<svg width="383" height="131" viewBox="0 0 383 131" fill="none" xmlns="http://www.w3.org/2000/svg">
<g clip-path="url(#clip0_274_7184)">
<path d="M129.184 110.954C128.313 111.497 127.496 111.905 126.735 112.177C125.974 112.448 125.105 112.584 124.128 112.584C122.279 112.584 120.675 111.96 119.317 110.709C117.958 109.458 117.279 107.312 117.279 104.268V9.75792C117.279 7.15058 117.875 5.11253 119.072 3.64378C120.268 2.17639 121.953 1.44269 124.126 1.44269C125.103 1.44269 125.973 1.57856 126.734 1.8503C127.495 2.12204 128.311 2.52965 129.182 3.07313L129.997 -0.0518744L117.279 0.0323641V-0.0518744L110.821 0.0704075L108.625 -0.0518744L65.5924 96.0162L26.5992 10.8979L22.0353 -0.187744H16.1929H12.7962H0.0244141L0.839632 2.91008C1.70784 2.38291 2.55023 1.96307 3.36545 1.6465C4.18067 1.32992 5.07605 1.17095 6.05703 1.17095C8.23094 1.17095 9.64263 1.98617 10.2948 3.61661C10.8967 5.12069 11.7296 6.99569 12.7962 9.23754V104.433C12.7962 105.848 12.6331 107.042 12.3084 108.019C11.9809 108.997 11.5489 109.812 11.0054 110.465C10.2432 111.335 9.45513 111.933 8.63991 112.258C7.82469 112.585 6.92659 112.746 5.94969 112.746C4.97143 112.746 4.10051 112.629 3.34099 112.394C2.57876 112.159 1.76355 111.804 0.895339 111.333L0.0801211 114.213H12.7962H12.932H16.057H16.1929H28.9334L28.1182 111.333C27.2459 111.804 26.428 112.159 25.6657 112.394C24.9035 112.629 24.0326 112.747 23.0543 112.747C22.0733 112.747 21.1739 112.585 20.3587 112.259C19.5407 111.935 18.7513 111.335 17.9891 110.466C17.4456 109.814 17.0108 108.999 16.6834 108.02C16.356 107.043 16.1929 105.849 16.1929 104.435V16.7199L60.4674 114.656C60.5516 114.372 60.7826 113.755 61.1658 112.803C61.818 111.172 62.5775 109.268 63.4484 107.094C64.2976 104.656 65.3533 101.856 66.6128 98.6942L104.372 14.9413V104.269C104.372 105.683 104.209 106.878 103.885 107.857C103.557 108.835 103.125 109.651 102.586 110.3C101.933 111.171 101.174 111.769 100.307 112.096C99.4403 112.424 98.5191 112.584 97.5435 112.584C96.568 112.584 95.7011 112.467 94.943 112.232C94.1835 111.997 93.3696 111.643 92.5041 111.171L91.6916 114.08L104.374 114.035V114.08L110.818 114.012L130 113.944L129.184 110.954Z" fill="#050401"/>
<path d="M75.5265 129.885C74.439 129.885 73.5132 129.724 72.752 129.398C71.9921 129.074 71.1764 128.64 70.3078 128.098L69.4921 131.243H108.643L107.827 128.151C106.956 128.677 106.113 129.097 105.297 129.413C104.482 129.729 103.583 129.885 102.606 129.885C100.431 129.885 98.9353 129.099 98.1196 127.527C97.304 125.955 96.4612 123.868 95.5925 121.265L61.9883 9.04285C61.2257 11.537 60.0022 13.787 58.3152 15.7929C56.7383 17.6686 54.9493 19.1876 52.9469 20.3513C52.8192 20.4259 52.6737 20.4639 52.5255 20.4639L24.8686 123.014C24.1047 125.151 23.2645 126.74 22.347 127.774C21.2594 129.001 19.7913 129.613 17.9439 129.613C16.9651 129.613 16.0937 129.492 15.3338 129.246C14.5712 129.002 13.7556 128.636 12.8869 128.149L12.0713 131.106L20.7157 130.97L26.7528 131.106L26.7786 131.003L39.803 131.106L38.9873 127.986C38.5523 128.202 37.8998 128.529 37.0284 128.963C36.1571 129.397 35.1253 129.614 33.929 129.614C32.0816 129.614 30.6134 128.977 29.5259 127.7C28.4384 126.424 28.3283 124.405 29.1983 121.642L29.1534 121.643L29.5259 120.177L29.5042 120.185L53.3983 23.5317L82.0516 120.127C82.923 123.272 82.7041 125.685 81.3991 127.367C80.0941 129.046 78.1352 129.885 75.5265 129.885Z" fill="#050401"/>
</g>
<g clip-path="url(#clip1_274_7184)">
<path d="M157.09 25.136L158.882 29.488L174.626 63.856C174.114 65.136 173.687 66.2667 173.346 67.248C173.005 68.1013 172.706 68.848 172.45 69.488C172.194 70.128 172.109 70.384 172.194 70.256L153.57 29.04C153.101 28.0587 152.738 27.248 152.482 26.608C152.226 25.968 151.671 25.648 150.818 25.648C150.434 25.648 150.071 25.712 149.73 25.84C149.431 25.968 149.111 26.1387 148.77 26.352L148.45 25.136H157.09ZM191.074 25.2H192.034L173.922 65.392L173.026 65.456L191.074 25.2ZM189.41 70V29.872L191.65 25.2H194.466V68.912V70H189.41ZM189.41 28.976L194.466 25.2V28.976C194.466 29.1467 194.189 29.2747 193.634 29.36C193.122 29.4453 192.546 29.488 191.906 29.488C191.309 29.488 190.733 29.4453 190.178 29.36C189.666 29.2747 189.41 29.1467 189.41 28.976ZM184.418 70L184.738 68.848C185.079 69.0613 185.399 69.232 185.698 69.36C185.997 69.4453 186.338 69.488 186.722 69.488C187.106 69.488 187.469 69.424 187.81 69.296C188.151 69.168 188.45 68.9333 188.706 68.592C188.919 68.336 189.09 68.016 189.218 67.632C189.346 67.248 189.41 66.7787 189.41 66.224C189.41 65.6267 189.645 65.3707 190.114 65.456C190.626 65.5413 191.223 65.6907 191.906 65.904C192.631 65.6907 193.229 65.5413 193.698 65.456C194.21 65.3707 194.466 65.6267 194.466 66.224C194.466 67.4187 194.722 68.272 195.234 68.784C195.789 69.2533 196.429 69.488 197.154 69.488C197.538 69.488 197.879 69.4453 198.178 69.36C198.477 69.232 198.797 69.0613 199.138 68.848L199.458 70H184.418ZM199.138 26.352C198.797 26.1387 198.477 25.9893 198.178 25.904C197.879 25.776 197.538 25.712 197.154 25.712C196.301 25.712 195.639 26.0107 195.17 26.608C194.701 27.1627 194.466 27.952 194.466 28.976C194.466 29.1467 194.189 29.2747 193.634 29.36C193.122 29.4453 192.546 29.488 191.906 29.488C191.309 29.488 190.733 29.4453 190.178 29.36C189.666 29.2747 189.41 29.1467 189.41 28.976L191.394 25.2H199.458L199.138 26.352ZM153.442 25.136H154.786V70.064H153.442V25.136ZM148.45 70.064L148.77 68.912C149.111 69.1253 149.431 69.296 149.73 69.424C150.029 69.5093 150.37 69.552 150.754 69.552C151.138 69.552 151.479 69.488 151.778 69.36C152.119 69.232 152.439 68.9973 152.738 68.656C152.951 68.4 153.122 68.08 153.25 67.696C153.378 67.312 153.442 66.8427 153.442 66.288C153.442 65.9893 153.506 65.8187 153.634 65.776C153.762 65.7333 153.911 65.7547 154.082 65.84C154.253 65.9253 154.466 66.0533 154.722 66.224V70.064H148.45ZM159.778 70.064H153.506V66.224C153.762 66.0533 153.975 65.9253 154.146 65.84C154.317 65.7547 154.466 65.7333 154.594 65.776C154.722 65.8187 154.786 65.9893 154.786 66.288C154.786 66.8427 154.85 67.312 154.978 67.696C155.106 68.08 155.277 68.4 155.49 68.656C155.789 68.9973 156.087 69.232 156.386 69.36C156.727 69.488 157.09 69.552 157.474 69.552C157.858 69.552 158.199 69.5093 158.498 69.424C158.797 69.296 159.117 69.1253 159.458 68.912L159.778 70.064ZM228.416 70.064L228.736 68.848C229.077 69.0613 229.397 69.232 229.696 69.36C229.994 69.488 230.357 69.552 230.784 69.552C231.808 69.552 232.576 69.232 233.088 68.592C233.6 67.9093 233.685 66.9493 233.344 65.712L221.76 26.544C222.613 26.0747 223.36 25.456 224 24.688C224.682 23.8773 225.173 22.9813 225.472 22L238.656 66.16C238.997 67.184 239.317 68.016 239.616 68.656C239.957 69.2533 240.554 69.552 241.408 69.552C241.792 69.552 242.133 69.488 242.432 69.36C242.773 69.232 243.114 69.0613 243.456 68.848L243.776 70.064H228.416ZM205.888 70L206.208 68.848C206.549 69.0613 206.869 69.232 207.168 69.36C207.466 69.4453 207.808 69.488 208.192 69.488C208.917 69.488 209.493 69.2533 209.92 68.784C210.346 68.272 210.73 67.4613 211.072 66.352L212.736 65.712L211.648 70H209.28H205.888ZM211.84 69.36H210.24L221.76 26.544H222.4L211.84 69.36ZM216.768 70H210.048L211.072 66.352L212.608 66.288C212.266 67.3973 212.309 68.208 212.736 68.72C213.162 69.232 213.738 69.488 214.464 69.488C214.933 69.488 215.338 69.4027 215.68 69.232C216.021 69.0613 216.277 68.9333 216.448 68.848L216.768 70ZM214.912 56.176V55.664L231.744 54.832V56.176H214.912ZM248.92 54C248.92 51.7813 249.347 49.6907 250.2 47.728C251.053 45.7653 252.205 44.0587 253.656 42.608C255.149 41.1147 256.877 39.9413 258.84 39.088C260.803 38.2347 262.893 37.808 265.112 37.808C267.331 37.808 269.421 38.2347 271.384 39.088C273.389 39.9413 275.117 41.1147 276.568 42.608C278.061 44.0587 279.235 45.7653 280.088 47.728C280.941 49.6907 281.368 51.7813 281.368 54C281.368 56.2187 280.941 58.3093 280.088 60.272C279.235 62.2347 278.061 63.9627 276.568 65.456C275.117 66.9067 273.389 68.0587 271.384 68.912C269.421 69.7653 267.331 70.192 265.112 70.192C262.893 70.192 260.803 69.7653 258.84 68.912C256.877 68.0587 255.149 66.9067 253.656 65.456C252.205 63.9627 251.053 62.2347 250.2 60.272C249.347 58.3093 248.92 56.2187 248.92 54ZM256.216 59.824C257.411 61.5733 258.712 63.088 260.12 64.368C261.571 65.6053 263.064 66.544 264.6 67.184C266.136 67.7813 267.672 68.0373 269.208 67.952C270.787 67.824 272.28 67.2907 273.688 66.352C275.096 65.4133 276.12 64.2613 276.76 62.896C277.4 61.488 277.699 59.9733 277.656 58.352C277.656 56.7307 277.336 55.024 276.696 53.232C276.056 51.44 275.139 49.648 273.944 47.856C272.749 46.1067 271.448 44.6133 270.04 43.376C268.632 42.1387 267.181 41.2427 265.688 40.688C264.195 40.0907 262.68 39.856 261.144 39.984C259.651 40.0693 258.2 40.5813 256.792 41.52C255.384 42.4587 254.317 43.632 253.592 45.04C252.909 46.4053 252.568 47.8987 252.568 49.52C252.568 51.0987 252.867 52.784 253.464 54.576C254.104 56.3253 255.021 58.0747 256.216 59.824ZM253.144 64.432L253.464 65.2C252.397 66.1387 251.565 67.2053 250.968 68.4C250.413 69.5947 250.157 70.7253 250.2 71.792C250.285 72.8587 250.691 73.7547 251.416 74.48C252.141 75.248 253.251 75.632 254.744 75.632C256.067 75.632 257.261 75.2907 258.328 74.608C259.437 73.968 260.547 73.2427 261.656 72.432C262.765 71.664 263.939 70.9173 265.176 70.192C266.456 69.5093 267.928 69.104 269.592 68.976C271.085 68.848 272.515 68.9547 273.88 69.296C275.288 69.5947 276.525 70.1067 277.592 70.832C278.701 71.5573 279.576 72.4747 280.216 73.584C280.899 74.736 281.24 76.08 281.24 77.616C281.24 78.7253 280.984 79.7493 280.472 80.688C279.96 81.6267 279.277 82.4373 278.424 83.12C277.571 83.8027 276.589 84.336 275.48 84.72C274.413 85.1467 273.304 85.36 272.152 85.36C270.531 85.36 269.144 85.0187 267.992 84.336C266.883 83.696 265.965 82.928 265.24 82.032C264.515 81.1787 263.96 80.3253 263.576 79.472C263.192 78.6613 262.957 78.0853 262.872 77.744H270.232C269.933 77.8293 269.656 77.9787 269.4 78.192C269.187 78.3627 268.995 78.576 268.824 78.832C268.653 79.1307 268.568 79.4933 268.568 79.92C268.568 80.9013 269.08 81.6693 270.104 82.224C271.171 82.7787 272.301 83.0773 273.496 83.12C274.819 83.12 275.907 82.7787 276.76 82.096C277.656 81.4133 278.296 80.5387 278.68 79.472C279.107 78.448 279.256 77.3387 279.128 76.144C279 74.9493 278.573 73.8613 277.848 72.88C277.123 71.8987 276.077 71.088 274.712 70.448C273.347 69.808 271.64 69.552 269.592 69.68C268.184 69.7653 266.84 70.2133 265.56 71.024C264.323 71.8773 263.107 72.7947 261.912 73.776C260.717 74.7573 259.523 75.632 258.328 76.4C257.133 77.2107 255.896 77.616 254.616 77.616C252.653 77.616 251.245 77.104 250.392 76.08C249.581 75.0987 249.176 73.904 249.176 72.496C249.219 71.088 249.603 69.6373 250.328 68.144C251.053 66.6507 251.992 65.4133 253.144 64.432ZM271.448 35.888C271.448 34.224 272.024 32.816 273.176 31.664C274.371 30.4693 275.8 29.872 277.464 29.872C278.189 29.872 278.829 29.9573 279.384 30.128C279.939 30.2987 280.472 30.5973 280.984 31.024V34.928C280.557 34.3733 280.045 33.904 279.448 33.52C278.851 33.0933 278.189 32.88 277.464 32.88C276.227 32.88 275.16 33.328 274.264 34.224C273.411 35.12 272.984 36.1867 272.984 37.424C272.984 38.192 273.176 38.9173 273.56 39.6C273.944 40.24 274.435 40.7733 275.032 41.2C275.075 41.2427 275.075 41.2853 275.032 41.328C274.989 41.3707 274.947 41.3707 274.904 41.328C273.709 40.816 272.835 40.0907 272.28 39.152C271.725 38.2133 271.448 37.1253 271.448 35.888ZM291.505 70V25.2H296.561V68.912V70H291.505ZM286.833 26.352L286.513 25.2H296.561V29.04C296.561 29.424 296.283 29.68 295.729 29.808C295.217 29.8933 294.641 29.9147 294.001 29.872C293.403 29.7867 292.827 29.6587 292.273 29.488C291.761 29.3173 291.505 29.1467 291.505 28.976C291.505 27.952 291.27 27.1627 290.801 26.608C290.331 26.0107 289.67 25.712 288.817 25.712C288.433 25.712 288.091 25.776 287.793 25.904C287.494 25.9893 287.174 26.1387 286.833 26.352ZM286.513 70L286.833 68.848C287.174 69.0613 287.494 69.232 287.793 69.36C288.091 69.4453 288.433 69.488 288.817 69.488C289.713 69.488 290.374 69.1467 290.801 68.464C291.27 67.7387 291.505 66.992 291.505 66.224C291.505 65.6267 291.782 65.2853 292.337 65.2C292.891 65.1147 293.531 65.072 294.257 65.072C294.982 65.072 295.537 65.1147 295.921 65.2C296.347 65.2853 296.561 65.6267 296.561 66.224C296.561 67.4187 296.817 68.272 297.329 68.784C297.883 69.2533 298.523 69.488 299.249 69.488C299.633 69.488 299.974 69.4453 300.273 69.36C300.571 69.232 300.891 69.0613 301.233 68.848L301.553 70H286.513ZM301.105 25.2L299.249 26.288C298.395 26.288 297.734 26.5013 297.265 26.928C296.795 27.312 296.561 28.016 296.561 29.04C296.347 28.9973 296.113 28.784 295.857 28.4C295.601 27.9733 295.473 27.5893 295.473 27.248C295.473 26.9067 295.537 26.48 295.665 25.968C295.793 25.456 296.091 25.2 296.561 25.2H301.105ZM319.729 35.568C319.729 37.9147 319.153 39.7707 318.001 41.136C316.849 42.5013 315.419 43.5893 313.713 44.4C312.006 45.168 310.15 45.808 308.145 46.32C306.139 46.7893 304.283 47.3653 302.577 48.048C300.87 48.688 299.441 49.5413 298.289 50.608C297.137 51.632 296.561 53.1253 296.561 55.088C296.561 55.344 296.539 55.344 296.497 55.088C296.454 54.7893 296.411 54.4267 296.369 54C296.326 53.5307 296.305 53.0827 296.305 52.656C296.347 52.1867 296.433 51.888 296.561 51.76C297.03 50.48 297.777 49.4773 298.801 48.752C299.825 47.984 300.977 47.3227 302.257 46.768C303.537 46.1707 304.859 45.616 306.225 45.104C307.59 44.592 308.827 43.952 309.937 43.184C311.089 42.416 312.027 41.4347 312.753 40.24C313.478 39.0453 313.841 37.488 313.841 35.568C313.841 32.2827 312.731 29.9147 310.513 28.464C308.294 27.0133 304.539 26.288 299.249 26.288C299.547 26.0747 299.825 25.8827 300.081 25.712C300.294 25.584 300.486 25.4773 300.657 25.392C300.87 25.264 301.019 25.2 301.105 25.2C304.475 25.2 307.334 25.4133 309.681 25.84C312.027 26.224 313.947 26.8427 315.441 27.696C316.934 28.5067 318.022 29.5733 318.705 30.896C319.387 32.176 319.729 33.7333 319.729 35.568ZM331.13 70V29.872V25.2H336.186V68.912V70H331.13ZM326.458 26.352L326.138 25.2H336.186C336.058 25.456 335.972 25.648 335.93 25.776C335.93 25.904 335.93 26.096 335.93 26.352C335.972 26.5653 336.015 26.864 336.058 27.248C336.143 27.632 336.186 28.208 336.186 28.976C336.186 29.1467 335.908 29.2747 335.354 29.36C334.842 29.4453 334.266 29.488 333.626 29.488C333.028 29.488 332.452 29.4453 331.898 29.36C331.386 29.2747 331.13 29.1467 331.13 28.976C331.13 27.952 330.895 27.1627 330.426 26.608C329.956 26.0107 329.295 25.712 328.442 25.712C328.058 25.712 327.716 25.776 327.418 25.904C327.119 25.9893 326.799 26.1387 326.458 26.352ZM326.138 70L326.458 68.848C326.799 69.0613 327.119 69.232 327.418 69.36C327.716 69.4453 328.058 69.488 328.442 69.488C328.826 69.488 329.188 69.424 329.53 69.296C329.871 69.168 330.17 68.9333 330.426 68.592C330.639 68.336 330.81 68.016 330.938 67.632C331.066 67.248 331.13 66.7787 331.13 66.224C331.13 65.6267 331.364 65.3707 331.834 65.456C332.346 65.5413 332.943 65.6907 333.626 65.904C334.351 65.6907 334.948 65.5413 335.418 65.456C335.93 65.3707 336.186 65.6267 336.186 66.224C336.186 67.4187 336.442 68.272 336.954 68.784C337.508 69.2533 338.148 69.488 338.874 69.488C339.258 69.488 339.599 69.4453 339.898 69.36C340.196 69.232 340.516 69.0613 340.858 68.848L341.178 70H326.138ZM340.858 26.352C340.516 26.1387 340.196 25.9893 339.898 25.904C339.599 25.776 339.258 25.712 338.874 25.712C338.02 25.712 337.359 26.0107 336.89 26.608C336.42 27.1627 336.186 27.952 336.186 28.976C336.186 29.1467 335.908 29.2747 335.354 29.36C334.842 29.4453 334.266 29.488 333.626 29.488C333.028 29.488 332.452 29.4453 331.898 29.36C331.386 29.2747 331.13 29.1467 331.13 28.976C331.13 28.208 331.151 27.632 331.194 27.248C331.279 26.864 331.322 26.5653 331.322 26.352C331.364 26.096 331.364 25.904 331.322 25.776C331.322 25.648 331.258 25.456 331.13 25.2H341.178L340.858 26.352ZM352.567 70V25.2H357.623V68.912V70H352.567ZM352.567 26.544V25.2H375.735V26.544H352.567ZM371.511 25.2H376.503L373.047 40.304L371.639 39.664C371.895 39.408 372.13 39.0453 372.343 38.576C372.556 38.064 372.748 37.552 372.919 37.04C373.132 36.4853 373.303 35.952 373.431 35.44C373.559 34.8853 373.644 34.4587 373.687 34.16C374.028 32.4107 373.964 31.0453 373.495 30.064C373.026 29.04 372.364 28.272 371.511 27.76C370.7 27.248 369.783 26.928 368.759 26.8C367.735 26.6293 366.818 26.544 366.007 26.544L371.511 25.2ZM347.575 25.2H350.903H351.799H362.615L362.359 26.544H360.503C359.82 26.544 359.159 26.6507 358.519 26.864C357.922 27.0773 357.623 27.7813 357.623 28.976C357.623 29.5733 357.367 29.8293 356.855 29.744C356.386 29.6587 355.788 29.5093 355.063 29.296C354.38 29.5093 353.783 29.6587 353.271 29.744C352.802 29.8293 352.567 29.5733 352.567 28.976C352.567 28.4213 352.503 27.952 352.375 27.568C352.247 27.184 352.076 26.864 351.863 26.608C351.564 26.2667 351.244 26.032 350.903 25.904C350.604 25.776 350.263 25.712 349.879 25.712C349.495 25.712 349.154 25.776 348.855 25.904C348.556 25.9893 348.236 26.1387 347.895 26.352L347.575 25.2ZM355.575 45.232H365.495V46.64L355.575 46.32V45.232ZM366.071 37.488L371.319 53.68H370.039C369.954 52.1867 369.762 50.9707 369.463 50.032C369.207 49.0933 368.823 48.368 368.311 47.856C367.799 47.344 367.138 47.0027 366.327 46.832C365.516 46.6613 364.535 46.576 363.383 46.576V45.232C365.303 45.232 366.455 44.6133 366.839 43.376C367.223 42.1387 366.562 40.496 364.855 38.448L366.071 37.488ZM352.567 68.656H378.807V70H352.567V68.656ZM374.583 70L369.079 68.656C369.89 68.656 370.807 68.592 371.831 68.464C372.855 68.2933 373.772 67.952 374.583 67.44C375.436 66.928 376.098 66.16 376.567 65.136C377.036 64.112 377.1 62.7467 376.759 61.04C376.716 60.7413 376.631 60.336 376.503 59.824C376.375 59.2693 376.204 58.736 375.991 58.224C375.82 57.6693 375.628 57.1573 375.415 56.688C375.202 56.176 374.967 55.792 374.711 55.536L376.119 54.896L379.575 70H374.583ZM347.575 70L347.895 68.848C348.236 69.0613 348.556 69.232 348.855 69.36C349.154 69.4453 349.495 69.488 349.879 69.488C350.263 69.488 350.604 69.424 350.903 69.296C351.244 69.168 351.564 68.9333 351.863 68.592C352.076 68.336 352.247 68.016 352.375 67.632C352.503 67.248 352.567 66.7787 352.567 66.224C352.567 65.6267 352.802 65.3707 353.271 65.456C353.783 65.5413 354.38 65.6907 355.063 65.904C355.788 65.6907 356.386 65.5413 356.855 65.456C357.367 65.3707 357.623 65.6267 357.623 66.224C357.623 67.4187 357.922 68.1227 358.519 68.336C359.159 68.5493 359.82 68.656 360.503 68.656H362.359L362.615 70H351.799H350.903H347.575Z" fill="#050401"/>
<path d="M151.56 106V92H153.14V105.66V106H151.56ZM150.1 92.36L150 92H153.14V93.2C153.14 93.32 153.053 93.4 152.88 93.44C152.72 93.4667 152.54 93.4733 152.34 93.46C152.153 93.4333 151.973 93.3933 151.8 93.34C151.64 93.2867 151.56 93.2333 151.56 93.18C151.56 92.86 151.487 92.6133 151.34 92.44C151.193 92.2533 150.987 92.16 150.72 92.16C150.6 92.16 150.493 92.18 150.4 92.22C150.307 92.2467 150.207 92.2933 150.1 92.36ZM150 106L150.1 105.64C150.207 105.707 150.307 105.76 150.4 105.8C150.493 105.827 150.6 105.84 150.72 105.84C151 105.84 151.207 105.733 151.34 105.52C151.487 105.293 151.56 105.06 151.56 104.82C151.56 104.633 151.647 104.527 151.82 104.5C151.993 104.473 152.193 104.46 152.42 104.46C152.647 104.46 152.82 104.473 152.94 104.5C153.073 104.527 153.14 104.633 153.14 104.82C153.14 105.193 153.22 105.46 153.38 105.62C153.553 105.767 153.753 105.84 153.98 105.84C154.1 105.84 154.207 105.827 154.3 105.8C154.393 105.76 154.493 105.707 154.6 105.64L154.7 106H150ZM154.56 92L153.98 92.34C153.713 92.34 153.507 92.4067 153.36 92.54C153.213 92.66 153.14 92.88 153.14 93.2C153.073 93.1867 153 93.12 152.92 93C152.84 92.8667 152.8 92.7467 152.8 92.64C152.8 92.5333 152.82 92.4 152.86 92.24C152.9 92.08 152.993 92 153.14 92H154.56ZM160.38 95.24C160.38 95.9733 160.2 96.5533 159.84 96.98C159.48 97.4067 159.033 97.7467 158.5 98C157.967 98.24 157.387 98.44 156.76 98.6C156.133 98.7467 155.553 98.9267 155.02 99.14C154.487 99.34 154.04 99.6067 153.68 99.94C153.32 100.26 153.14 100.727 153.14 101.34C153.14 101.42 153.133 101.42 153.12 101.34C153.107 101.247 153.093 101.133 153.08 101C153.067 100.853 153.06 100.713 153.06 100.58C153.073 100.433 153.1 100.34 153.14 100.3C153.287 99.9 153.52 99.5867 153.84 99.36C154.16 99.12 154.52 98.9133 154.92 98.74C155.32 98.5533 155.733 98.38 156.16 98.22C156.587 98.06 156.973 97.86 157.32 97.62C157.68 97.38 157.973 97.0733 158.2 96.7C158.427 96.3267 158.54 95.84 158.54 95.24C158.54 94.2133 158.193 93.4733 157.5 93.02C156.807 92.5667 155.633 92.34 153.98 92.34C154.073 92.2733 154.16 92.2133 154.24 92.16C154.307 92.12 154.367 92.0867 154.42 92.06C154.487 92.02 154.533 92 154.56 92C155.613 92 156.507 92.0667 157.24 92.2C157.973 92.32 158.573 92.5133 159.04 92.78C159.507 93.0333 159.847 93.3667 160.06 93.78C160.273 94.18 160.38 94.6667 160.38 95.24ZM162.22 106H161.16H159.14L158.68 104.96L160.04 104.86C160.293 105.287 160.52 105.553 160.72 105.66C160.92 105.753 161.133 105.8 161.36 105.8C161.48 105.8 161.6 105.787 161.72 105.76C161.84 105.733 161.953 105.687 162.06 105.62L162.22 106ZM159.14 106L155.76 98.48L156.18 98.36L160.72 106H159.14ZM157.3 106L157.4 105.64C157.453 105.667 157.533 105.707 157.64 105.76C157.747 105.813 157.873 105.84 158.02 105.84C158.127 105.84 158.24 105.833 158.36 105.82C158.493 105.807 158.6 105.773 158.68 105.72C158.76 105.653 158.807 105.56 158.82 105.44C158.833 105.32 158.787 105.16 158.68 104.96L160.04 104.86L160.72 106H157.3ZM164.959 99.7C164.959 100.473 165.092 101.2 165.359 101.88C165.639 102.56 165.999 103.16 166.439 103.68C166.879 104.187 167.365 104.593 167.899 104.9C168.445 105.193 168.985 105.34 169.519 105.34C170.359 105.34 171.065 105.133 171.639 104.72C172.212 104.293 172.599 103.66 172.799 102.82H173.619C173.445 103.3 173.199 103.74 172.879 104.14C172.572 104.527 172.205 104.867 171.779 105.16C171.365 105.44 170.912 105.66 170.419 105.82C169.925 105.98 169.412 106.06 168.879 106.06C168.185 106.06 167.532 105.927 166.919 105.66C166.305 105.393 165.765 105.033 165.299 104.58C164.845 104.113 164.485 103.573 164.219 102.96C163.952 102.347 163.819 101.693 163.819 101C163.819 100.307 163.952 99.6533 164.219 99.04C164.485 98.4267 164.845 97.8933 165.299 97.44C165.765 96.9733 166.305 96.6067 166.919 96.34C167.532 96.0733 168.185 95.94 168.879 95.94C169.545 95.94 170.152 96.0267 170.699 96.2C171.245 96.3733 171.719 96.6133 172.119 96.92C172.532 97.2133 172.865 97.5667 173.119 97.98C173.385 98.3933 173.565 98.84 173.659 99.32C173.659 99.3333 173.559 99.34 173.359 99.34C173.159 99.34 172.945 99.34 172.719 99.34C172.439 99.34 172.119 99.3333 171.759 99.32C171.692 98.8933 171.545 98.5133 171.319 98.18C171.105 97.8333 170.845 97.5333 170.539 97.28C170.232 97.0267 169.885 96.8333 169.499 96.7C169.112 96.5667 168.719 96.5 168.319 96.5C167.839 96.5 167.392 96.5867 166.979 96.76C166.579 96.92 166.225 97.1467 165.919 97.44C165.625 97.7333 165.392 98.0733 165.219 98.46C165.045 98.8467 164.959 99.26 164.959 99.7ZM164.599 99.32V98.9H173.379L173.659 99.32H164.599ZM184.654 91.3V106.02H183.074V91.64V91.3H184.654ZM186.114 105.66L186.214 106.02H183.074V104.84H184.654C184.654 105.227 184.727 105.493 184.874 105.64C185.021 105.787 185.227 105.86 185.494 105.86C185.614 105.86 185.721 105.847 185.814 105.82C185.907 105.78 186.007 105.727 186.114 105.66ZM179.414 106.08C177.827 106.08 176.667 105.633 175.934 104.74C175.214 103.833 174.854 102.593 174.854 101.02C174.854 99.4333 175.254 98.1933 176.054 97.3C176.867 96.4067 178.001 95.96 179.454 95.96C180.134 95.96 180.721 96.0867 181.214 96.34C181.721 96.58 182.134 96.92 182.454 97.36C182.787 97.8 183.027 98.3333 183.174 98.96C183.334 99.5733 183.414 100.26 183.414 101.02C183.414 101.74 183.327 102.413 183.154 103.04C182.994 103.653 182.747 104.187 182.414 104.64C182.094 105.093 181.681 105.447 181.174 105.7C180.681 105.953 180.094 106.08 179.414 106.08ZM179.634 105.72C180.194 105.72 180.687 105.6 181.114 105.36C181.541 105.12 181.894 104.793 182.174 104.38C182.467 103.953 182.687 103.453 182.834 102.88C182.994 102.307 183.074 101.687 183.074 101.02C183.074 100.233 182.987 99.5467 182.814 98.96C182.641 98.36 182.401 97.8667 182.094 97.48C181.801 97.0933 181.447 96.8067 181.034 96.62C180.634 96.42 180.194 96.32 179.714 96.32C179.194 96.32 178.741 96.4533 178.354 96.72C177.967 96.9867 177.647 97.34 177.394 97.78C177.154 98.22 176.967 98.72 176.834 99.28C176.714 99.84 176.647 100.42 176.634 101.02C176.621 101.647 176.667 102.247 176.774 102.82C176.894 103.38 177.074 103.88 177.314 104.32C177.554 104.747 177.867 105.087 178.254 105.34C178.641 105.593 179.101 105.72 179.634 105.72ZM183.074 90.62C183.687 90.98 184.274 91.22 184.834 91.34C185.407 91.46 185.874 91.52 186.234 91.52L186.154 91.84C186.087 91.8133 186.007 91.7867 185.914 91.76C185.834 91.72 185.721 91.7 185.574 91.7C185.307 91.7 185.087 91.8067 184.914 92.02C184.741 92.22 184.654 92.5267 184.654 92.94C184.574 92.8333 184.461 92.7067 184.314 92.56C184.167 92.4 184.014 92.24 183.854 92.08C183.707 91.92 183.561 91.7733 183.414 91.64C183.267 91.4933 183.154 91.38 183.074 91.3V90.62ZM188.572 99.7C188.572 100.473 188.705 101.2 188.972 101.88C189.252 102.56 189.612 103.16 190.052 103.68C190.492 104.187 190.979 104.593 191.512 104.9C192.059 105.193 192.599 105.34 193.132 105.34C193.972 105.34 194.679 105.133 195.252 104.72C195.825 104.293 196.212 103.66 196.412 102.82H197.232C197.059 103.3 196.812 103.74 196.492 104.14C196.185 104.527 195.819 104.867 195.392 105.16C194.979 105.44 194.525 105.66 194.032 105.82C193.539 105.98 193.025 106.06 192.492 106.06C191.799 106.06 191.145 105.927 190.532 105.66C189.919 105.393 189.379 105.033 188.912 104.58C188.459 104.113 188.099 103.573 187.832 102.96C187.565 102.347 187.432 101.693 187.432 101C187.432 100.307 187.565 99.6533 187.832 99.04C188.099 98.4267 188.459 97.8933 188.912 97.44C189.379 96.9733 189.919 96.6067 190.532 96.34C191.145 96.0733 191.799 95.94 192.492 95.94C193.159 95.94 193.765 96.0267 194.312 96.2C194.859 96.3733 195.332 96.6133 195.732 96.92C196.145 97.2133 196.479 97.5667 196.732 97.98C196.999 98.3933 197.179 98.84 197.272 99.32C197.272 99.3333 197.172 99.34 196.972 99.34C196.772 99.34 196.559 99.34 196.332 99.34C196.052 99.34 195.732 99.3333 195.372 99.32C195.305 98.8933 195.159 98.5133 194.932 98.18C194.719 97.8333 194.459 97.5333 194.152 97.28C193.845 97.0267 193.499 96.8333 193.112 96.7C192.725 96.5667 192.332 96.5 191.932 96.5C191.452 96.5 191.005 96.5867 190.592 96.76C190.192 96.92 189.839 97.1467 189.532 97.44C189.239 97.7333 189.005 98.0733 188.832 98.46C188.659 98.8467 188.572 99.26 188.572 99.7ZM188.212 99.32V98.9H196.992L197.272 99.32H188.212ZM200.067 104.8V93.34L201.667 92V104.8H200.067ZM198.467 106.02L198.567 105.64C198.674 105.707 198.774 105.76 198.867 105.8C198.961 105.84 199.074 105.86 199.207 105.86C199.341 105.86 199.454 105.84 199.547 105.8C199.641 105.747 199.734 105.667 199.827 105.56C199.894 105.467 199.947 105.367 199.987 105.26C200.041 105.14 200.067 104.987 200.067 104.8C200.067 104.613 200.141 104.533 200.287 104.56C200.434 104.587 200.621 104.633 200.847 104.7C201.074 104.633 201.267 104.587 201.427 104.56C201.587 104.533 201.667 104.613 201.667 104.8C201.667 105.133 201.741 105.393 201.887 105.58C202.047 105.767 202.261 105.86 202.527 105.86C202.647 105.86 202.754 105.84 202.847 105.8C202.954 105.76 203.061 105.707 203.167 105.64L203.267 106.02H198.467ZM201.667 92V92.68C201.587 92.76 201.474 92.8733 201.327 93.02C201.181 93.1533 201.027 93.3 200.867 93.46C200.707 93.62 200.554 93.78 200.407 93.94C200.261 94.0867 200.147 94.2133 200.067 94.32C200.067 93.9067 199.981 93.6 199.807 93.4C199.634 93.1867 199.414 93.08 199.147 93.08C199.001 93.08 198.881 93.1 198.787 93.14C198.707 93.1667 198.634 93.1933 198.567 93.22L198.487 92.9C198.994 92.9 199.534 92.82 200.107 92.66C200.681 92.5 201.201 92.28 201.667 92ZM201.667 95.4V94.02C201.734 93.7133 201.854 93.44 202.027 93.2C202.201 92.9467 202.401 92.7333 202.627 92.56C202.867 92.3867 203.127 92.26 203.407 92.18C203.701 92.0867 203.987 92.04 204.267 92.04C205.094 92.04 205.767 92.22 206.287 92.58C206.807 92.94 207.161 93.4333 207.347 94.06L206.047 94.58C206.021 93.9533 205.807 93.4333 205.407 93.02C205.021 92.6067 204.534 92.4 203.947 92.4C203.694 92.4 203.427 92.4667 203.147 92.6C202.881 92.7333 202.634 92.9267 202.407 93.18C202.194 93.4333 202.014 93.7467 201.867 94.12C201.734 94.4933 201.667 94.92 201.667 95.4ZM198.567 97.32V96.9H203.167V97.32H198.567ZM208.545 96H213.245L213.145 96.36C213.039 96.2933 212.939 96.2467 212.845 96.22C212.752 96.18 212.645 96.16 212.525 96.16C212.259 96.16 212.052 96.2533 211.905 96.44C211.759 96.6133 211.685 96.86 211.685 97.18V104.82C211.685 105.193 211.765 105.46 211.925 105.62C212.099 105.767 212.299 105.84 212.525 105.84C212.645 105.84 212.752 105.827 212.845 105.8C212.939 105.76 213.039 105.707 213.145 105.64L213.245 106H208.545L208.645 105.64C208.752 105.707 208.852 105.76 208.945 105.8C209.039 105.827 209.145 105.84 209.265 105.84C209.385 105.84 209.499 105.82 209.605 105.78C209.712 105.74 209.805 105.667 209.885 105.56C209.952 105.48 210.005 105.38 210.045 105.26C210.085 105.14 210.105 104.993 210.105 104.82V97.46V97.18C210.105 96.86 210.032 96.6133 209.885 96.44C209.739 96.2533 209.532 96.16 209.265 96.16C209.145 96.16 209.039 96.18 208.945 96.22C208.852 96.2467 208.752 96.2933 208.645 96.36L208.545 96ZM209.765 94.66C209.765 94.3533 209.879 94.0867 210.105 93.86C210.332 93.6333 210.599 93.52 210.905 93.52C211.212 93.52 211.479 93.6333 211.705 93.86C211.932 94.0867 212.045 94.3533 212.045 94.66C212.045 94.9667 211.932 95.2333 211.705 95.46C211.479 95.6867 211.212 95.8 210.905 95.8C210.599 95.8 210.332 95.6867 210.105 95.46C209.879 95.2333 209.765 94.9667 209.765 94.66ZM216.044 106.02V105.88V96.72L217.644 96.24V105.66V106.02H216.044ZM214.444 106.02L214.544 105.64C214.65 105.707 214.75 105.76 214.844 105.8C214.937 105.84 215.05 105.86 215.184 105.86C215.317 105.86 215.43 105.84 215.524 105.8C215.617 105.747 215.71 105.667 215.804 105.56C215.87 105.467 215.924 105.367 215.964 105.26C216.017 105.14 216.044 104.987 216.044 104.8C216.044 104.613 216.117 104.533 216.264 104.56C216.41 104.587 216.597 104.633 216.824 104.7C217.05 104.633 217.244 104.587 217.404 104.56C217.564 104.533 217.644 104.613 217.644 104.8C217.644 105.133 217.717 105.393 217.864 105.58C218.024 105.767 218.237 105.86 218.504 105.86C218.624 105.86 218.73 105.84 218.824 105.8C218.93 105.76 219.037 105.707 219.144 105.64L219.244 106.02H214.444ZM217.644 96.02V96.7C217.564 96.78 217.45 96.8933 217.304 97.04C217.157 97.1733 217.004 97.32 216.844 97.48C216.684 97.64 216.53 97.8 216.384 97.96C216.237 98.1067 216.124 98.2333 216.044 98.34C216.044 97.9267 215.957 97.62 215.784 97.42C215.61 97.2067 215.39 97.1 215.124 97.1C214.977 97.1 214.857 97.12 214.764 97.16C214.684 97.1867 214.61 97.2133 214.544 97.24L214.464 96.92C214.824 96.92 215.29 96.86 215.864 96.74C216.437 96.62 217.03 96.38 217.644 96.02ZM220.284 106.02L220.404 105.64C220.51 105.707 220.61 105.76 220.704 105.8C220.81 105.84 220.917 105.86 221.024 105.86C221.157 105.86 221.27 105.84 221.364 105.8C221.47 105.747 221.57 105.667 221.664 105.56C221.73 105.48 221.784 105.38 221.824 105.26C221.877 105.14 221.904 104.987 221.904 104.8C221.904 104.613 221.977 104.533 222.124 104.56C222.284 104.587 222.47 104.633 222.684 104.7C222.91 104.633 223.104 104.587 223.264 104.56C223.437 104.533 223.524 104.613 223.524 104.8C223.524 105.133 223.597 105.393 223.744 105.58C223.89 105.767 224.097 105.86 224.364 105.86C224.497 105.86 224.61 105.84 224.704 105.8C224.797 105.76 224.897 105.707 225.004 105.64L225.084 106.02H220.284ZM221.904 106.02V105.88L221.884 99.26L223.504 99.3L223.524 105.66V106.02H221.904ZM217.644 99.36V97.98C217.71 97.6733 217.83 97.4 218.004 97.16C218.177 96.9067 218.377 96.6933 218.604 96.52C218.844 96.3467 219.104 96.22 219.384 96.14C219.677 96.0467 219.964 96 220.244 96C221.324 96 222.137 96.3067 222.684 96.92C223.23 97.52 223.504 98.3133 223.504 99.3C223.504 99.38 223.417 99.4933 223.244 99.64C223.084 99.7733 222.897 99.8733 222.684 99.94C222.484 100.007 222.297 100 222.124 99.92C221.964 99.84 221.884 99.62 221.884 99.26C221.884 98.42 221.717 97.7667 221.384 97.3C221.05 96.8333 220.544 96.6 219.864 96.6C219.61 96.6 219.35 96.6533 219.084 96.76C218.817 96.8667 218.577 97.0333 218.364 97.26C218.15 97.4867 217.977 97.7733 217.844 98.12C217.71 98.4667 217.644 98.88 217.644 99.36ZM227.42 99.7C227.42 100.473 227.553 101.2 227.82 101.88C228.1 102.56 228.46 103.16 228.9 103.68C229.34 104.187 229.826 104.593 230.36 104.9C230.906 105.193 231.446 105.34 231.98 105.34C232.82 105.34 233.526 105.133 234.1 104.72C234.673 104.293 235.06 103.66 235.26 102.82H236.08C235.906 103.3 235.66 103.74 235.34 104.14C235.033 104.527 234.666 104.867 234.24 105.16C233.826 105.44 233.373 105.66 232.88 105.82C232.386 105.98 231.873 106.06 231.34 106.06C230.646 106.06 229.993 105.927 229.38 105.66C228.766 105.393 228.226 105.033 227.76 104.58C227.306 104.113 226.946 103.573 226.68 102.96C226.413 102.347 226.28 101.693 226.28 101C226.28 100.307 226.413 99.6533 226.68 99.04C226.946 98.4267 227.306 97.8933 227.76 97.44C228.226 96.9733 228.766 96.6067 229.38 96.34C229.993 96.0733 230.646 95.94 231.34 95.94C232.006 95.94 232.613 96.0267 233.16 96.2C233.706 96.3733 234.18 96.6133 234.58 96.92C234.993 97.2133 235.326 97.5667 235.58 97.98C235.846 98.3933 236.026 98.84 236.12 99.32C236.12 99.3333 236.02 99.34 235.82 99.34C235.62 99.34 235.406 99.34 235.18 99.34C234.9 99.34 234.58 99.3333 234.22 99.32C234.153 98.8933 234.006 98.5133 233.78 98.18C233.566 97.8333 233.306 97.5333 233 97.28C232.693 97.0267 232.346 96.8333 231.96 96.7C231.573 96.5667 231.18 96.5 230.78 96.5C230.3 96.5 229.853 96.5867 229.44 96.76C229.04 96.92 228.686 97.1467 228.38 97.44C228.086 97.7333 227.853 98.0733 227.68 98.46C227.506 98.8467 227.42 99.26 227.42 99.7ZM227.06 99.32V98.9H235.84L236.12 99.32H227.06ZM244.07 110.72V96H245.65V110.38V110.72H244.07ZM242.61 96.36L242.51 96H245.65V97.18H244.07C244.07 96.7933 243.997 96.5267 243.85 96.38C243.703 96.2333 243.497 96.16 243.23 96.16C243.11 96.16 243.003 96.18 242.91 96.22C242.817 96.2467 242.717 96.2933 242.61 96.36ZM242.51 110.72L242.61 110.36C242.717 110.427 242.817 110.473 242.91 110.5C243.003 110.54 243.11 110.56 243.23 110.56C243.35 110.56 243.463 110.54 243.57 110.5C243.677 110.46 243.77 110.387 243.85 110.28C243.917 110.2 243.97 110.1 244.01 109.98C244.05 109.86 244.07 109.713 244.07 109.54C244.07 109.353 244.143 109.273 244.29 109.3C244.45 109.327 244.637 109.373 244.85 109.44C245.077 109.373 245.263 109.327 245.41 109.3C245.57 109.273 245.65 109.353 245.65 109.54C245.65 109.913 245.73 110.173 245.89 110.32C246.063 110.48 246.263 110.56 246.49 110.56C246.61 110.56 246.717 110.54 246.81 110.5C246.903 110.473 247.003 110.427 247.11 110.36L247.21 110.72H242.51ZM249.31 95.94C250.897 95.94 252.05 96.3867 252.77 97.28C253.503 98.1733 253.87 99.4133 253.87 101C253.87 102.587 253.463 103.827 252.65 104.72C251.85 105.613 250.723 106.06 249.27 106.06C248.59 106.06 247.997 105.94 247.49 105.7C246.997 105.447 246.583 105.1 246.25 104.66C245.93 104.22 245.69 103.693 245.53 103.08C245.383 102.453 245.31 101.76 245.31 101C245.31 100.28 245.39 99.6133 245.55 99C245.723 98.3733 245.97 97.8333 246.29 97.38C246.623 96.9267 247.037 96.5733 247.53 96.32C248.037 96.0667 248.63 95.94 249.31 95.94ZM249.09 96.3C248.53 96.3 248.037 96.42 247.61 96.66C247.183 96.9 246.823 97.2333 246.53 97.66C246.25 98.0733 246.03 98.5667 245.87 99.14C245.723 99.7133 245.65 100.333 245.65 101C245.65 101.787 245.737 102.473 245.91 103.06C246.083 103.647 246.317 104.14 246.61 104.54C246.917 104.927 247.27 105.22 247.67 105.42C248.083 105.607 248.53 105.7 249.01 105.7C249.53 105.7 249.983 105.567 250.37 105.3C250.757 105.033 251.07 104.68 251.31 104.24C251.563 103.8 251.75 103.3 251.87 102.74C252.003 102.18 252.077 101.6 252.09 101C252.103 100.373 252.05 99.78 251.93 99.22C251.823 98.6467 251.65 98.1467 251.41 97.72C251.17 97.28 250.857 96.9333 250.47 96.68C250.083 96.4267 249.623 96.3 249.09 96.3ZM255.069 101C255.069 100.307 255.202 99.6533 255.469 99.04C255.735 98.4267 256.095 97.8933 256.549 97.44C257.015 96.9733 257.555 96.6067 258.169 96.34C258.782 96.0733 259.435 95.94 260.129 95.94C260.822 95.94 261.475 96.0733 262.089 96.34C262.715 96.6067 263.255 96.9733 263.709 97.44C264.175 97.8933 264.542 98.4267 264.809 99.04C265.075 99.6533 265.209 100.307 265.209 101C265.209 101.693 265.075 102.347 264.809 102.96C264.542 103.573 264.175 104.113 263.709 104.58C263.255 105.033 262.715 105.393 262.089 105.66C261.475 105.927 260.822 106.06 260.129 106.06C259.435 106.06 258.782 105.927 258.169 105.66C257.555 105.393 257.015 105.033 256.549 104.58C256.095 104.113 255.735 103.573 255.469 102.96C255.202 102.347 255.069 101.693 255.069 101ZM257.349 102.82C257.722 103.367 258.129 103.84 258.569 104.24C259.022 104.627 259.489 104.92 259.969 105.12C260.449 105.307 260.929 105.387 261.409 105.36C261.902 105.32 262.369 105.153 262.809 104.86C263.249 104.567 263.569 104.207 263.769 103.78C263.969 103.34 264.062 102.867 264.049 102.36C264.049 101.853 263.949 101.32 263.749 100.76C263.549 100.2 263.262 99.64 262.889 99.08C262.515 98.5333 262.109 98.0667 261.669 97.68C261.229 97.2933 260.775 97.0133 260.309 96.84C259.842 96.6533 259.369 96.58 258.889 96.62C258.422 96.6467 257.969 96.8067 257.529 97.1C257.089 97.3933 256.755 97.76 256.529 98.2C256.315 98.6267 256.209 99.0933 256.209 99.6C256.209 100.093 256.302 100.62 256.489 101.18C256.689 101.727 256.975 102.273 257.349 102.82ZM268.636 105.5C269.103 105.527 269.556 105.487 269.996 105.38C270.45 105.273 270.81 105.067 271.076 104.76C271.276 104.533 271.403 104.3 271.456 104.06C271.51 103.807 271.51 103.56 271.456 103.32C271.416 103.08 271.323 102.853 271.176 102.64C271.03 102.413 270.85 102.227 270.636 102.08C270.423 101.933 270.163 101.787 269.856 101.64C269.55 101.48 269.236 101.313 268.916 101.14C268.61 100.967 268.31 100.787 268.016 100.6C267.736 100.413 267.516 100.213 267.356 100C267.036 99.5867 266.863 99.1333 266.836 98.64C266.823 98.1333 266.916 97.6667 267.116 97.24C267.33 96.8 267.636 96.4333 268.036 96.14C268.45 95.8467 268.916 95.7 269.436 95.7C269.756 95.7 270.036 95.74 270.276 95.82C270.53 95.9 270.75 95.9867 270.936 96.08C271.136 96.2 271.316 96.3333 271.476 96.48L270.796 99.44L270.416 99.28C270.47 99.2267 270.516 99.1467 270.556 99.04C270.61 98.9333 270.656 98.82 270.696 98.7C270.736 98.58 270.77 98.4667 270.796 98.36C270.823 98.24 270.843 98.1467 270.856 98.08C270.91 97.7733 270.903 97.5067 270.836 97.28C270.77 97.04 270.663 96.8467 270.516 96.7C270.383 96.5533 270.216 96.44 270.016 96.36C269.816 96.28 269.61 96.24 269.396 96.24C269.05 96.2267 268.703 96.2933 268.356 96.44C268.01 96.5867 267.77 96.88 267.636 97.32C267.463 97.92 267.516 98.4067 267.796 98.78C268.076 99.14 268.45 99.4467 268.916 99.7C269.396 99.9533 269.89 100.167 270.396 100.34C270.916 100.513 271.316 100.713 271.596 100.94C271.836 101.127 272.03 101.373 272.176 101.68C272.323 101.973 272.396 102.3 272.396 102.66C272.41 103.02 272.343 103.407 272.196 103.82C272.05 104.22 271.796 104.613 271.436 105C271.116 105.347 270.716 105.62 270.236 105.82C269.756 106.007 269.21 106.1 268.596 106.1C268.223 106.1 267.903 106.067 267.636 106C267.37 105.947 267.143 105.887 266.956 105.82C266.743 105.74 266.563 105.647 266.416 105.54L267.096 102.68L267.496 102.88C267.443 102.933 267.39 103.013 267.336 103.12C267.283 103.227 267.23 103.34 267.176 103.46C267.136 103.58 267.103 103.693 267.076 103.8C267.05 103.907 267.03 103.993 267.016 104.06C266.963 104.327 266.976 104.553 267.056 104.74C267.136 104.913 267.256 105.053 267.416 105.16C267.576 105.267 267.763 105.347 267.976 105.4C268.203 105.453 268.423 105.487 268.636 105.5ZM275.843 105.5C276.31 105.527 276.763 105.487 277.203 105.38C277.657 105.273 278.017 105.067 278.283 104.76C278.483 104.533 278.61 104.3 278.663 104.06C278.717 103.807 278.717 103.56 278.663 103.32C278.623 103.08 278.53 102.853 278.383 102.64C278.237 102.413 278.057 102.227 277.843 102.08C277.63 101.933 277.37 101.787 277.063 101.64C276.757 101.48 276.443 101.313 276.123 101.14C275.817 100.967 275.517 100.787 275.223 100.6C274.943 100.413 274.723 100.213 274.563 100C274.243 99.5867 274.07 99.1333 274.043 98.64C274.03 98.1333 274.123 97.6667 274.323 97.24C274.537 96.8 274.843 96.4333 275.243 96.14C275.657 95.8467 276.123 95.7 276.643 95.7C276.963 95.7 277.243 95.74 277.483 95.82C277.737 95.9 277.957 95.9867 278.143 96.08C278.343 96.2 278.523 96.3333 278.683 96.48L278.003 99.44L277.623 99.28C277.677 99.2267 277.723 99.1467 277.763 99.04C277.817 98.9333 277.863 98.82 277.903 98.7C277.943 98.58 277.977 98.4667 278.003 98.36C278.03 98.24 278.05 98.1467 278.063 98.08C278.117 97.7733 278.11 97.5067 278.043 97.28C277.977 97.04 277.87 96.8467 277.723 96.7C277.59 96.5533 277.423 96.44 277.223 96.36C277.023 96.28 276.817 96.24 276.603 96.24C276.257 96.2267 275.91 96.2933 275.563 96.44C275.217 96.5867 274.977 96.88 274.843 97.32C274.67 97.92 274.723 98.4067 275.003 98.78C275.283 99.14 275.657 99.4467 276.123 99.7C276.603 99.9533 277.097 100.167 277.603 100.34C278.123 100.513 278.523 100.713 278.803 100.94C279.043 101.127 279.237 101.373 279.383 101.68C279.53 101.973 279.603 102.3 279.603 102.66C279.617 103.02 279.55 103.407 279.403 103.82C279.257 104.22 279.003 104.613 278.643 105C278.323 105.347 277.923 105.62 277.443 105.82C276.963 106.007 276.417 106.1 275.803 106.1C275.43 106.1 275.11 106.067 274.843 106C274.577 105.947 274.35 105.887 274.163 105.82C273.95 105.74 273.77 105.647 273.623 105.54L274.303 102.68L274.703 102.88C274.65 102.933 274.597 103.013 274.543 103.12C274.49 103.227 274.437 103.34 274.383 103.46C274.343 103.58 274.31 103.693 274.283 103.8C274.257 103.907 274.237 103.993 274.223 104.06C274.17 104.327 274.183 104.553 274.263 104.74C274.343 104.913 274.463 105.053 274.623 105.16C274.783 105.267 274.97 105.347 275.183 105.4C275.41 105.453 275.63 105.487 275.843 105.5ZM280.83 96H285.53L285.43 96.36C285.324 96.2933 285.224 96.2467 285.13 96.22C285.037 96.18 284.93 96.16 284.81 96.16C284.544 96.16 284.337 96.2533 284.19 96.44C284.044 96.6133 283.97 96.86 283.97 97.18V104.82C283.97 105.193 284.05 105.46 284.21 105.62C284.384 105.767 284.584 105.84 284.81 105.84C284.93 105.84 285.037 105.827 285.13 105.8C285.224 105.76 285.324 105.707 285.43 105.64L285.53 106H280.83L280.93 105.64C281.037 105.707 281.137 105.76 281.23 105.8C281.324 105.827 281.43 105.84 281.55 105.84C281.67 105.84 281.784 105.82 281.89 105.78C281.997 105.74 282.09 105.667 282.17 105.56C282.237 105.48 282.29 105.38 282.33 105.26C282.37 105.14 282.39 104.993 282.39 104.82V97.46V97.18C282.39 96.86 282.317 96.6133 282.17 96.44C282.024 96.2533 281.817 96.16 281.55 96.16C281.43 96.16 281.324 96.18 281.23 96.22C281.137 96.2467 281.037 96.2933 280.93 96.36L280.83 96ZM282.05 94.66C282.05 94.3533 282.164 94.0867 282.39 93.86C282.617 93.6333 282.884 93.52 283.19 93.52C283.497 93.52 283.764 93.6333 283.99 93.86C284.217 94.0867 284.33 94.3533 284.33 94.66C284.33 94.9667 284.217 95.2333 283.99 95.46C283.764 95.6867 283.497 95.8 283.19 95.8C282.884 95.8 282.617 95.6867 282.39 95.46C282.164 95.2333 282.05 94.9667 282.05 94.66ZM288.309 91.3H289.889V91.64V106.02H288.309V91.3ZM286.849 105.66C286.956 105.727 287.056 105.78 287.149 105.82C287.242 105.847 287.349 105.86 287.469 105.86C287.736 105.86 287.942 105.787 288.089 105.64C288.236 105.493 288.309 105.227 288.309 104.84H289.889V106.02H286.749L286.849 105.66ZM293.549 106.08C292.869 106.08 292.276 105.953 291.769 105.7C291.276 105.447 290.862 105.093 290.529 104.64C290.209 104.187 289.962 103.653 289.789 103.04C289.629 102.413 289.549 101.74 289.549 101.02C289.549 100.26 289.622 99.5733 289.769 98.96C289.929 98.3333 290.169 97.8 290.489 97.36C290.822 96.92 291.236 96.58 291.729 96.34C292.236 96.0867 292.829 95.96 293.509 95.96C294.962 95.96 296.089 96.4067 296.889 97.3C297.702 98.1933 298.109 99.4333 298.109 101.02C298.109 102.593 297.742 103.833 297.009 104.74C296.289 105.633 295.136 106.08 293.549 106.08ZM293.329 105.72C293.862 105.72 294.322 105.593 294.709 105.34C295.096 105.087 295.409 104.747 295.649 104.32C295.889 103.88 296.062 103.38 296.169 102.82C296.289 102.247 296.342 101.647 296.329 101.02C296.316 100.42 296.242 99.84 296.109 99.28C295.989 98.72 295.802 98.22 295.549 97.78C295.309 97.34 294.996 96.9867 294.609 96.72C294.222 96.4533 293.769 96.32 293.249 96.32C292.769 96.32 292.322 96.42 291.909 96.62C291.509 96.8067 291.156 97.0933 290.849 97.48C290.556 97.8667 290.322 98.36 290.149 98.96C289.976 99.5467 289.889 100.233 289.889 101.02C289.889 101.687 289.962 102.307 290.109 102.88C290.269 103.453 290.489 103.953 290.769 104.38C291.062 104.793 291.422 105.12 291.849 105.36C292.276 105.6 292.769 105.72 293.329 105.72ZM289.889 90.62V91.3C289.809 91.38 289.696 91.4933 289.549 91.64C289.402 91.7733 289.249 91.92 289.089 92.08C288.942 92.24 288.796 92.4 288.649 92.56C288.502 92.7067 288.389 92.8333 288.309 92.94C288.309 92.5267 288.222 92.22 288.049 92.02C287.876 91.8067 287.656 91.7 287.389 91.7C287.242 91.7 287.122 91.72 287.029 91.76C286.949 91.7867 286.876 91.8133 286.809 91.84L286.729 91.52C287.089 91.52 287.549 91.46 288.109 91.34C288.682 91.22 289.276 90.98 289.889 90.62ZM299.307 96H304.007L303.907 96.36C303.8 96.2933 303.7 96.2467 303.607 96.22C303.514 96.18 303.407 96.16 303.287 96.16C303.02 96.16 302.814 96.2533 302.667 96.44C302.52 96.6133 302.447 96.86 302.447 97.18V104.82C302.447 105.193 302.527 105.46 302.687 105.62C302.86 105.767 303.06 105.84 303.287 105.84C303.407 105.84 303.514 105.827 303.607 105.8C303.7 105.76 303.8 105.707 303.907 105.64L304.007 106H299.307L299.407 105.64C299.514 105.707 299.614 105.76 299.707 105.8C299.8 105.827 299.907 105.84 300.027 105.84C300.147 105.84 300.26 105.82 300.367 105.78C300.474 105.74 300.567 105.667 300.647 105.56C300.714 105.48 300.767 105.38 300.807 105.26C300.847 105.14 300.867 104.993 300.867 104.82V97.46V97.18C300.867 96.86 300.794 96.6133 300.647 96.44C300.5 96.2533 300.294 96.16 300.027 96.16C299.907 96.16 299.8 96.18 299.707 96.22C299.614 96.2467 299.514 96.2933 299.407 96.36L299.307 96ZM300.527 94.66C300.527 94.3533 300.64 94.0867 300.867 93.86C301.094 93.6333 301.36 93.52 301.667 93.52C301.974 93.52 302.24 93.6333 302.467 93.86C302.694 94.0867 302.807 94.3533 302.807 94.66C302.807 94.9667 302.694 95.2333 302.467 95.46C302.24 95.6867 301.974 95.8 301.667 95.8C301.36 95.8 301.094 95.6867 300.867 95.46C300.64 95.2333 300.527 94.9667 300.527 94.66ZM306.805 106.02V105.88V92.7L308.405 92.22V105.66V106.02H306.805ZM305.205 106.02L305.305 105.64C305.412 105.707 305.512 105.76 305.605 105.8C305.699 105.84 305.812 105.86 305.945 105.86C306.079 105.86 306.192 105.84 306.285 105.8C306.379 105.747 306.472 105.667 306.565 105.56C306.632 105.467 306.685 105.367 306.725 105.26C306.779 105.14 306.805 104.987 306.805 104.8C306.805 104.613 306.879 104.533 307.025 104.56C307.172 104.587 307.359 104.633 307.585 104.7C307.812 104.633 308.005 104.587 308.165 104.56C308.325 104.533 308.405 104.613 308.405 104.8C308.405 105.133 308.479 105.393 308.625 105.58C308.785 105.767 308.999 105.86 309.265 105.86C309.385 105.86 309.492 105.84 309.585 105.8C309.692 105.76 309.799 105.707 309.905 105.64L310.005 106.02H305.205ZM308.405 92V92.68C308.325 92.76 308.212 92.8733 308.065 93.02C307.919 93.1533 307.765 93.3 307.605 93.46C307.445 93.62 307.292 93.78 307.145 93.94C306.999 94.0867 306.885 94.2133 306.805 94.32C306.805 93.9067 306.719 93.6 306.545 93.4C306.372 93.1867 306.152 93.08 305.885 93.08C305.739 93.08 305.619 93.1 305.525 93.14C305.445 93.1667 305.372 93.1933 305.305 93.22L305.225 92.9C305.585 92.9 306.052 92.84 306.625 92.72C307.199 92.6 307.792 92.36 308.405 92ZM311.202 96H315.902L315.802 96.36C315.695 96.2933 315.595 96.2467 315.502 96.22C315.408 96.18 315.302 96.16 315.182 96.16C314.915 96.16 314.708 96.2533 314.562 96.44C314.415 96.6133 314.342 96.86 314.342 97.18V104.82C314.342 105.193 314.422 105.46 314.582 105.62C314.755 105.767 314.955 105.84 315.182 105.84C315.302 105.84 315.408 105.827 315.502 105.8C315.595 105.76 315.695 105.707 315.802 105.64L315.902 106H311.202L311.302 105.64C311.408 105.707 311.508 105.76 311.602 105.8C311.695 105.827 311.802 105.84 311.922 105.84C312.042 105.84 312.155 105.82 312.262 105.78C312.368 105.74 312.462 105.667 312.542 105.56C312.608 105.48 312.662 105.38 312.702 105.26C312.742 105.14 312.762 104.993 312.762 104.82V97.46V97.18C312.762 96.86 312.688 96.6133 312.542 96.44C312.395 96.2533 312.188 96.16 311.922 96.16C311.802 96.16 311.695 96.18 311.602 96.22C311.508 96.2467 311.408 96.2933 311.302 96.36L311.202 96ZM312.422 94.66C312.422 94.3533 312.535 94.0867 312.762 93.86C312.988 93.6333 313.255 93.52 313.562 93.52C313.868 93.52 314.135 93.6333 314.362 93.86C314.588 94.0867 314.702 94.3533 314.702 94.66C314.702 94.9667 314.588 95.2333 314.362 95.46C314.135 95.6867 313.868 95.8 313.562 95.8C313.255 95.8 312.988 95.6867 312.762 95.46C312.535 95.2333 312.422 94.9667 312.422 94.66ZM317.18 97.32V96.9H321.78V97.32H317.18ZM321.72 106C321.347 106.013 320.98 105.96 320.62 105.84C320.26 105.72 319.933 105.533 319.64 105.28C319.36 105.027 319.127 104.707 318.94 104.32C318.767 103.92 318.68 103.453 318.68 102.92H320.28C320.253 103.653 320.42 104.26 320.78 104.74C321.14 105.207 321.587 105.44 322.12 105.44C322.293 105.44 322.513 105.42 322.78 105.38C323.047 105.327 323.293 105.22 323.52 105.06C323.76 104.9 323.947 104.667 324.08 104.36C324.213 104.04 324.233 103.62 324.14 103.1C324.127 103.007 324.1 102.88 324.06 102.72C324.02 102.547 323.967 102.38 323.9 102.22C323.847 102.047 323.787 101.887 323.72 101.74C323.653 101.58 323.58 101.46 323.5 101.38L323.94 101.18L325.04 106H321.72ZM318.68 102.92V93.34L320.28 92V102.92H318.68ZM320.28 92V92.68C320.2 92.76 320.087 92.8733 319.94 93.02C319.793 93.1533 319.64 93.3 319.48 93.46C319.32 93.62 319.167 93.78 319.02 93.94C318.873 94.0867 318.76 94.2133 318.68 94.32C318.68 93.9067 318.593 93.6 318.42 93.4C318.247 93.1867 318.027 93.08 317.76 93.08C317.613 93.08 317.493 93.1 317.4 93.14C317.32 93.1667 317.247 93.1933 317.18 93.22L317.1 92.9C317.607 92.9 318.147 92.82 318.72 92.66C319.293 92.5 319.813 92.28 320.28 92ZM326.241 96H330.941L330.841 96.36C330.734 96.2933 330.634 96.2467 330.541 96.22C330.447 96.18 330.341 96.16 330.221 96.16C329.954 96.16 329.747 96.2533 329.601 96.44C329.454 96.6133 329.381 96.86 329.381 97.18V104.82C329.381 105.193 329.461 105.46 329.621 105.62C329.794 105.767 329.994 105.84 330.221 105.84C330.341 105.84 330.447 105.827 330.541 105.8C330.634 105.76 330.734 105.707 330.841 105.64L330.941 106H326.241L326.341 105.64C326.447 105.707 326.547 105.76 326.641 105.8C326.734 105.827 326.841 105.84 326.961 105.84C327.081 105.84 327.194 105.82 327.301 105.78C327.407 105.74 327.501 105.667 327.581 105.56C327.647 105.48 327.701 105.38 327.741 105.26C327.781 105.14 327.801 104.993 327.801 104.82V97.46V97.18C327.801 96.86 327.727 96.6133 327.581 96.44C327.434 96.2533 327.227 96.16 326.961 96.16C326.841 96.16 326.734 96.18 326.641 96.22C326.547 96.2467 326.447 96.2933 326.341 96.36L326.241 96ZM327.461 94.66C327.461 94.3533 327.574 94.0867 327.801 93.86C328.027 93.6333 328.294 93.52 328.601 93.52C328.907 93.52 329.174 93.6333 329.401 93.86C329.627 94.0867 329.741 94.3533 329.741 94.66C329.741 94.9667 329.627 95.2333 329.401 95.46C329.174 95.6867 328.907 95.8 328.601 95.8C328.294 95.8 328.027 95.6867 327.801 95.46C327.574 95.2333 327.461 94.9667 327.461 94.66ZM333.279 99.7C333.279 100.473 333.412 101.2 333.679 101.88C333.959 102.56 334.319 103.16 334.759 103.68C335.199 104.187 335.686 104.593 336.219 104.9C336.766 105.193 337.306 105.34 337.839 105.34C338.679 105.34 339.386 105.133 339.959 104.72C340.532 104.293 340.919 103.66 341.119 102.82H341.939C341.766 103.3 341.519 103.74 341.199 104.14C340.892 104.527 340.526 104.867 340.099 105.16C339.686 105.44 339.232 105.66 338.739 105.82C338.246 105.98 337.732 106.06 337.199 106.06C336.506 106.06 335.852 105.927 335.239 105.66C334.626 105.393 334.086 105.033 333.619 104.58C333.166 104.113 332.806 103.573 332.539 102.96C332.272 102.347 332.139 101.693 332.139 101C332.139 100.307 332.272 99.6533 332.539 99.04C332.806 98.4267 333.166 97.8933 333.619 97.44C334.086 96.9733 334.626 96.6067 335.239 96.34C335.852 96.0733 336.506 95.94 337.199 95.94C337.866 95.94 338.472 96.0267 339.019 96.2C339.566 96.3733 340.039 96.6133 340.439 96.92C340.852 97.2133 341.186 97.5667 341.439 97.98C341.706 98.3933 341.886 98.84 341.979 99.32C341.979 99.3333 341.879 99.34 341.679 99.34C341.479 99.34 341.266 99.34 341.039 99.34C340.759 99.34 340.439 99.3333 340.079 99.32C340.012 98.8933 339.866 98.5133 339.639 98.18C339.426 97.8333 339.166 97.5333 338.859 97.28C338.552 97.0267 338.206 96.8333 337.819 96.7C337.432 96.5667 337.039 96.5 336.639 96.5C336.159 96.5 335.712 96.5867 335.299 96.76C334.899 96.92 334.546 97.1467 334.239 97.44C333.946 97.7333 333.712 98.0733 333.539 98.46C333.366 98.8467 333.279 99.26 333.279 99.7ZM332.919 99.32V98.9H341.699L341.979 99.32H332.919ZM345.394 105.5C345.861 105.527 346.314 105.487 346.754 105.38C347.208 105.273 347.568 105.067 347.834 104.76C348.034 104.533 348.161 104.3 348.214 104.06C348.268 103.807 348.268 103.56 348.214 103.32C348.174 103.08 348.081 102.853 347.934 102.64C347.788 102.413 347.608 102.227 347.394 102.08C347.181 101.933 346.921 101.787 346.614 101.64C346.308 101.48 345.994 101.313 345.674 101.14C345.368 100.967 345.068 100.787 344.774 100.6C344.494 100.413 344.274 100.213 344.114 100C343.794 99.5867 343.621 99.1333 343.594 98.64C343.581 98.1333 343.674 97.6667 343.874 97.24C344.088 96.8 344.394 96.4333 344.794 96.14C345.208 95.8467 345.674 95.7 346.194 95.7C346.514 95.7 346.794 95.74 347.034 95.82C347.288 95.9 347.508 95.9867 347.694 96.08C347.894 96.2 348.074 96.3333 348.234 96.48L347.554 99.44L347.174 99.28C347.228 99.2267 347.274 99.1467 347.314 99.04C347.368 98.9333 347.414 98.82 347.454 98.7C347.494 98.58 347.528 98.4667 347.554 98.36C347.581 98.24 347.601 98.1467 347.614 98.08C347.668 97.7733 347.661 97.5067 347.594 97.28C347.528 97.04 347.421 96.8467 347.274 96.7C347.141 96.5533 346.974 96.44 346.774 96.36C346.574 96.28 346.368 96.24 346.154 96.24C345.808 96.2267 345.461 96.2933 345.114 96.44C344.768 96.5867 344.528 96.88 344.394 97.32C344.221 97.92 344.274 98.4067 344.554 98.78C344.834 99.14 345.208 99.4467 345.674 99.7C346.154 99.9533 346.648 100.167 347.154 100.34C347.674 100.513 348.074 100.713 348.354 100.94C348.594 101.127 348.788 101.373 348.934 101.68C349.081 101.973 349.154 102.3 349.154 102.66C349.168 103.02 349.101 103.407 348.954 103.82C348.808 104.22 348.554 104.613 348.194 105C347.874 105.347 347.474 105.62 346.994 105.82C346.514 106.007 345.968 106.1 345.354 106.1C344.981 106.1 344.661 106.067 344.394 106C344.128 105.947 343.901 105.887 343.714 105.82C343.501 105.74 343.321 105.647 343.174 105.54L343.854 102.68L344.254 102.88C344.201 102.933 344.148 103.013 344.094 103.12C344.041 103.227 343.988 103.34 343.934 103.46C343.894 103.58 343.861 103.693 343.834 103.8C343.808 103.907 343.788 103.993 343.774 104.06C343.721 104.327 343.734 104.553 343.814 104.74C343.894 104.913 344.014 105.053 344.174 105.16C344.334 105.267 344.521 105.347 344.734 105.4C344.961 105.453 345.181 105.487 345.394 105.5Z" fill="#050401"/>
</g>
<defs>
<clipPath id="clip0_274_7184">
<rect width="130" height="130" fill="white" transform="translate(0 0.5)"/>
</clipPath>
<clipPath id="clip1_274_7184">
<rect width="238" height="93" fill="white" transform="translate(145 19)"/>
</clipPath>
</defs>
</svg>
