<svg width="383" height="130" viewBox="0 0 383 130" fill="none" xmlns="http://www.w3.org/2000/svg">
<g clip-path="url(#clip0_274_7176)">
<path d="M129.184 110.454C128.313 110.997 127.496 111.405 126.735 111.677C125.974 111.948 125.105 112.084 124.128 112.084C122.279 112.084 120.675 111.46 119.317 110.209C117.958 108.958 117.279 106.812 117.279 103.768V9.25792C117.279 6.65058 117.875 4.61253 119.072 3.14378C120.268 1.67639 121.953 0.942692 124.126 0.942692C125.103 0.942692 125.973 1.07856 126.734 1.3503C127.495 1.62204 128.311 2.02965 129.182 2.57313L129.997 -0.551874L117.279 -0.467636V-0.551874L110.821 -0.429593L108.625 -0.551874L65.5924 95.5162L26.5992 10.3979L22.0353 -0.687744H16.1929H12.7962H0.0244141L0.839632 2.41008C1.70784 1.88291 2.55023 1.46307 3.36545 1.1465C4.18067 0.829921 5.07605 0.670953 6.05703 0.670953C8.23094 0.670953 9.64263 1.48617 10.2948 3.11661C10.8967 4.62069 11.7296 6.49569 12.7962 8.73754V103.933C12.7962 105.348 12.6331 106.542 12.3084 107.519C11.9809 108.497 11.5489 109.312 11.0054 109.965C10.2432 110.835 9.45513 111.433 8.63991 111.758C7.82469 112.085 6.92659 112.246 5.94969 112.246C4.97143 112.246 4.10051 112.129 3.34099 111.894C2.57876 111.659 1.76355 111.304 0.895339 110.833L0.0801211 113.713H12.7962H12.932H16.057H16.1929H28.9334L28.1182 110.833C27.2459 111.304 26.428 111.659 25.6657 111.894C24.9035 112.129 24.0326 112.247 23.0543 112.247C22.0733 112.247 21.1739 112.085 20.3587 111.759C19.5407 111.435 18.7513 110.835 17.9891 109.966C17.4456 109.314 17.0108 108.499 16.6834 107.52C16.356 106.543 16.1929 105.349 16.1929 103.935V16.2199L60.4674 114.156C60.5516 113.872 60.7826 113.255 61.1658 112.303C61.818 110.672 62.5775 108.768 63.4484 106.594C64.2976 104.156 65.3533 101.356 66.6128 98.1942L104.372 14.4413V103.769C104.372 105.183 104.209 106.378 103.885 107.357C103.557 108.335 103.125 109.151 102.586 109.8C101.933 110.671 101.174 111.269 100.307 111.596C99.4403 111.924 98.5191 112.084 97.5435 112.084C96.568 112.084 95.7011 111.967 94.943 111.732C94.1835 111.497 93.3696 111.143 92.5041 110.671L91.6916 113.58L104.374 113.535V113.58L110.818 113.512L130 113.444L129.184 110.454Z" fill="#ECE2D2"/>
<path d="M75.5265 129.385C74.439 129.385 73.5132 129.224 72.752 128.898C71.9921 128.574 71.1764 128.14 70.3078 127.598L69.4921 130.743H108.643L107.827 127.651C106.956 128.177 106.113 128.597 105.297 128.913C104.482 129.229 103.583 129.385 102.606 129.385C100.431 129.385 98.9353 128.599 98.1196 127.027C97.304 125.455 96.4612 123.368 95.5925 120.765L61.9883 8.54285C61.2257 11.037 60.0022 13.287 58.3152 15.2929C56.7383 17.1686 54.9493 18.6876 52.9469 19.8513C52.8192 19.9259 52.6737 19.9639 52.5255 19.9639L24.8686 122.514C24.1047 124.651 23.2645 126.24 22.347 127.274C21.2594 128.501 19.7913 129.113 17.9439 129.113C16.9651 129.113 16.0937 128.992 15.3338 128.746C14.5712 128.502 13.7556 128.136 12.8869 127.649L12.0713 130.606L20.7157 130.47L26.7528 130.606L26.7786 130.503L39.803 130.606L38.9873 127.486C38.5523 127.702 37.8998 128.029 37.0284 128.463C36.1571 128.897 35.1253 129.114 33.929 129.114C32.0816 129.114 30.6134 128.477 29.5259 127.2C28.4384 125.924 28.3283 123.905 29.1983 121.142L29.1534 121.143L29.5259 119.677L29.5042 119.685L53.3983 23.0317L82.0516 119.627C82.923 122.772 82.7041 125.185 81.3991 126.867C80.0941 128.546 78.1352 129.385 75.5265 129.385Z" fill="#ECE2D2"/>
</g>
<g clip-path="url(#clip1_274_7176)">
<path d="M157.09 36.136L158.882 40.488L174.626 74.856C174.114 76.136 173.687 77.2667 173.346 78.248C173.005 79.1013 172.706 79.848 172.45 80.488C172.194 81.128 172.109 81.384 172.194 81.256L153.57 40.04C153.101 39.0587 152.738 38.248 152.482 37.608C152.226 36.968 151.671 36.648 150.818 36.648C150.434 36.648 150.071 36.712 149.73 36.84C149.431 36.968 149.111 37.1387 148.77 37.352L148.45 36.136H157.09ZM191.074 36.2H192.034L173.922 76.392L173.026 76.456L191.074 36.2ZM189.41 81V40.872L191.65 36.2H194.466V79.912V81H189.41ZM189.41 39.976L194.466 36.2V39.976C194.466 40.1467 194.189 40.2747 193.634 40.36C193.122 40.4453 192.546 40.488 191.906 40.488C191.309 40.488 190.733 40.4453 190.178 40.36C189.666 40.2747 189.41 40.1467 189.41 39.976ZM184.418 81L184.738 79.848C185.079 80.0613 185.399 80.232 185.698 80.36C185.997 80.4453 186.338 80.488 186.722 80.488C187.106 80.488 187.469 80.424 187.81 80.296C188.151 80.168 188.45 79.9333 188.706 79.592C188.919 79.336 189.09 79.016 189.218 78.632C189.346 78.248 189.41 77.7787 189.41 77.224C189.41 76.6267 189.645 76.3707 190.114 76.456C190.626 76.5413 191.223 76.6907 191.906 76.904C192.631 76.6907 193.229 76.5413 193.698 76.456C194.21 76.3707 194.466 76.6267 194.466 77.224C194.466 78.4187 194.722 79.272 195.234 79.784C195.789 80.2533 196.429 80.488 197.154 80.488C197.538 80.488 197.879 80.4453 198.178 80.36C198.477 80.232 198.797 80.0613 199.138 79.848L199.458 81H184.418ZM199.138 37.352C198.797 37.1387 198.477 36.9893 198.178 36.904C197.879 36.776 197.538 36.712 197.154 36.712C196.301 36.712 195.639 37.0107 195.17 37.608C194.701 38.1627 194.466 38.952 194.466 39.976C194.466 40.1467 194.189 40.2747 193.634 40.36C193.122 40.4453 192.546 40.488 191.906 40.488C191.309 40.488 190.733 40.4453 190.178 40.36C189.666 40.2747 189.41 40.1467 189.41 39.976L191.394 36.2H199.458L199.138 37.352ZM153.442 36.136H154.786V81.064H153.442V36.136ZM148.45 81.064L148.77 79.912C149.111 80.1253 149.431 80.296 149.73 80.424C150.029 80.5093 150.37 80.552 150.754 80.552C151.138 80.552 151.479 80.488 151.778 80.36C152.119 80.232 152.439 79.9973 152.738 79.656C152.951 79.4 153.122 79.08 153.25 78.696C153.378 78.312 153.442 77.8427 153.442 77.288C153.442 76.9893 153.506 76.8187 153.634 76.776C153.762 76.7333 153.911 76.7547 154.082 76.84C154.253 76.9253 154.466 77.0533 154.722 77.224V81.064H148.45ZM159.778 81.064H153.506V77.224C153.762 77.0533 153.975 76.9253 154.146 76.84C154.317 76.7547 154.466 76.7333 154.594 76.776C154.722 76.8187 154.786 76.9893 154.786 77.288C154.786 77.8427 154.85 78.312 154.978 78.696C155.106 79.08 155.277 79.4 155.49 79.656C155.789 79.9973 156.087 80.232 156.386 80.36C156.727 80.488 157.09 80.552 157.474 80.552C157.858 80.552 158.199 80.5093 158.498 80.424C158.797 80.296 159.117 80.1253 159.458 79.912L159.778 81.064ZM228.416 81.064L228.736 79.848C229.077 80.0613 229.397 80.232 229.696 80.36C229.994 80.488 230.357 80.552 230.784 80.552C231.808 80.552 232.576 80.232 233.088 79.592C233.6 78.9093 233.685 77.9493 233.344 76.712L221.76 37.544C222.613 37.0747 223.36 36.456 224 35.688C224.682 34.8773 225.173 33.9813 225.472 33L238.656 77.16C238.997 78.184 239.317 79.016 239.616 79.656C239.957 80.2533 240.554 80.552 241.408 80.552C241.792 80.552 242.133 80.488 242.432 80.36C242.773 80.232 243.114 80.0613 243.456 79.848L243.776 81.064H228.416ZM205.888 81L206.208 79.848C206.549 80.0613 206.869 80.232 207.168 80.36C207.466 80.4453 207.808 80.488 208.192 80.488C208.917 80.488 209.493 80.2533 209.92 79.784C210.346 79.272 210.73 78.4613 211.072 77.352L212.736 76.712L211.648 81H209.28H205.888ZM211.84 80.36H210.24L221.76 37.544H222.4L211.84 80.36ZM216.768 81H210.048L211.072 77.352L212.608 77.288C212.266 78.3973 212.309 79.208 212.736 79.72C213.162 80.232 213.738 80.488 214.464 80.488C214.933 80.488 215.338 80.4027 215.68 80.232C216.021 80.0613 216.277 79.9333 216.448 79.848L216.768 81ZM214.912 67.176V66.664L231.744 65.832V67.176H214.912ZM248.92 65C248.92 62.7813 249.347 60.6907 250.2 58.728C251.053 56.7653 252.205 55.0587 253.656 53.608C255.149 52.1147 256.877 50.9413 258.84 50.088C260.803 49.2347 262.893 48.808 265.112 48.808C267.331 48.808 269.421 49.2347 271.384 50.088C273.389 50.9413 275.117 52.1147 276.568 53.608C278.061 55.0587 279.235 56.7653 280.088 58.728C280.941 60.6907 281.368 62.7813 281.368 65C281.368 67.2187 280.941 69.3093 280.088 71.272C279.235 73.2347 278.061 74.9627 276.568 76.456C275.117 77.9067 273.389 79.0587 271.384 79.912C269.421 80.7653 267.331 81.192 265.112 81.192C262.893 81.192 260.803 80.7653 258.84 79.912C256.877 79.0587 255.149 77.9067 253.656 76.456C252.205 74.9627 251.053 73.2347 250.2 71.272C249.347 69.3093 248.92 67.2187 248.92 65ZM256.216 70.824C257.411 72.5733 258.712 74.088 260.12 75.368C261.571 76.6053 263.064 77.544 264.6 78.184C266.136 78.7813 267.672 79.0373 269.208 78.952C270.787 78.824 272.28 78.2907 273.688 77.352C275.096 76.4133 276.12 75.2613 276.76 73.896C277.4 72.488 277.699 70.9733 277.656 69.352C277.656 67.7307 277.336 66.024 276.696 64.232C276.056 62.44 275.139 60.648 273.944 58.856C272.749 57.1067 271.448 55.6133 270.04 54.376C268.632 53.1387 267.181 52.2427 265.688 51.688C264.195 51.0907 262.68 50.856 261.144 50.984C259.651 51.0693 258.2 51.5813 256.792 52.52C255.384 53.4587 254.317 54.632 253.592 56.04C252.909 57.4053 252.568 58.8987 252.568 60.52C252.568 62.0987 252.867 63.784 253.464 65.576C254.104 67.3253 255.021 69.0747 256.216 70.824ZM253.144 75.432L253.464 76.2C252.397 77.1387 251.565 78.2053 250.968 79.4C250.413 80.5947 250.157 81.7253 250.2 82.792C250.285 83.8587 250.691 84.7547 251.416 85.48C252.141 86.248 253.251 86.632 254.744 86.632C256.067 86.632 257.261 86.2907 258.328 85.608C259.437 84.968 260.547 84.2427 261.656 83.432C262.765 82.664 263.939 81.9173 265.176 81.192C266.456 80.5093 267.928 80.104 269.592 79.976C271.085 79.848 272.515 79.9547 273.88 80.296C275.288 80.5947 276.525 81.1067 277.592 81.832C278.701 82.5573 279.576 83.4747 280.216 84.584C280.899 85.736 281.24 87.08 281.24 88.616C281.24 89.7253 280.984 90.7493 280.472 91.688C279.96 92.6267 279.277 93.4373 278.424 94.12C277.571 94.8027 276.589 95.336 275.48 95.72C274.413 96.1467 273.304 96.36 272.152 96.36C270.531 96.36 269.144 96.0187 267.992 95.336C266.883 94.696 265.965 93.928 265.24 93.032C264.515 92.1787 263.96 91.3253 263.576 90.472C263.192 89.6613 262.957 89.0853 262.872 88.744H270.232C269.933 88.8293 269.656 88.9787 269.4 89.192C269.187 89.3627 268.995 89.576 268.824 89.832C268.653 90.1307 268.568 90.4933 268.568 90.92C268.568 91.9013 269.08 92.6693 270.104 93.224C271.171 93.7787 272.301 94.0773 273.496 94.12C274.819 94.12 275.907 93.7787 276.76 93.096C277.656 92.4133 278.296 91.5387 278.68 90.472C279.107 89.448 279.256 88.3387 279.128 87.144C279 85.9493 278.573 84.8613 277.848 83.88C277.123 82.8987 276.077 82.088 274.712 81.448C273.347 80.808 271.64 80.552 269.592 80.68C268.184 80.7653 266.84 81.2133 265.56 82.024C264.323 82.8773 263.107 83.7947 261.912 84.776C260.717 85.7573 259.523 86.632 258.328 87.4C257.133 88.2107 255.896 88.616 254.616 88.616C252.653 88.616 251.245 88.104 250.392 87.08C249.581 86.0987 249.176 84.904 249.176 83.496C249.219 82.088 249.603 80.6373 250.328 79.144C251.053 77.6507 251.992 76.4133 253.144 75.432ZM271.448 46.888C271.448 45.224 272.024 43.816 273.176 42.664C274.371 41.4693 275.8 40.872 277.464 40.872C278.189 40.872 278.829 40.9573 279.384 41.128C279.939 41.2987 280.472 41.5973 280.984 42.024V45.928C280.557 45.3733 280.045 44.904 279.448 44.52C278.851 44.0933 278.189 43.88 277.464 43.88C276.227 43.88 275.16 44.328 274.264 45.224C273.411 46.12 272.984 47.1867 272.984 48.424C272.984 49.192 273.176 49.9173 273.56 50.6C273.944 51.24 274.435 51.7733 275.032 52.2C275.075 52.2427 275.075 52.2853 275.032 52.328C274.989 52.3707 274.947 52.3707 274.904 52.328C273.709 51.816 272.835 51.0907 272.28 50.152C271.725 49.2133 271.448 48.1253 271.448 46.888ZM291.505 81V36.2H296.561V79.912V81H291.505ZM286.833 37.352L286.513 36.2H296.561V40.04C296.561 40.424 296.283 40.68 295.729 40.808C295.217 40.8933 294.641 40.9147 294.001 40.872C293.403 40.7867 292.827 40.6587 292.273 40.488C291.761 40.3173 291.505 40.1467 291.505 39.976C291.505 38.952 291.27 38.1627 290.801 37.608C290.331 37.0107 289.67 36.712 288.817 36.712C288.433 36.712 288.091 36.776 287.793 36.904C287.494 36.9893 287.174 37.1387 286.833 37.352ZM286.513 81L286.833 79.848C287.174 80.0613 287.494 80.232 287.793 80.36C288.091 80.4453 288.433 80.488 288.817 80.488C289.713 80.488 290.374 80.1467 290.801 79.464C291.27 78.7387 291.505 77.992 291.505 77.224C291.505 76.6267 291.782 76.2853 292.337 76.2C292.891 76.1147 293.531 76.072 294.257 76.072C294.982 76.072 295.537 76.1147 295.921 76.2C296.347 76.2853 296.561 76.6267 296.561 77.224C296.561 78.4187 296.817 79.272 297.329 79.784C297.883 80.2533 298.523 80.488 299.249 80.488C299.633 80.488 299.974 80.4453 300.273 80.36C300.571 80.232 300.891 80.0613 301.233 79.848L301.553 81H286.513ZM301.105 36.2L299.249 37.288C298.395 37.288 297.734 37.5013 297.265 37.928C296.795 38.312 296.561 39.016 296.561 40.04C296.347 39.9973 296.113 39.784 295.857 39.4C295.601 38.9733 295.473 38.5893 295.473 38.248C295.473 37.9067 295.537 37.48 295.665 36.968C295.793 36.456 296.091 36.2 296.561 36.2H301.105ZM319.729 46.568C319.729 48.9147 319.153 50.7707 318.001 52.136C316.849 53.5013 315.419 54.5893 313.713 55.4C312.006 56.168 310.15 56.808 308.145 57.32C306.139 57.7893 304.283 58.3653 302.577 59.048C300.87 59.688 299.441 60.5413 298.289 61.608C297.137 62.632 296.561 64.1253 296.561 66.088C296.561 66.344 296.539 66.344 296.497 66.088C296.454 65.7893 296.411 65.4267 296.369 65C296.326 64.5307 296.305 64.0827 296.305 63.656C296.347 63.1867 296.433 62.888 296.561 62.76C297.03 61.48 297.777 60.4773 298.801 59.752C299.825 58.984 300.977 58.3227 302.257 57.768C303.537 57.1707 304.859 56.616 306.225 56.104C307.59 55.592 308.827 54.952 309.937 54.184C311.089 53.416 312.027 52.4347 312.753 51.24C313.478 50.0453 313.841 48.488 313.841 46.568C313.841 43.2827 312.731 40.9147 310.513 39.464C308.294 38.0133 304.539 37.288 299.249 37.288C299.547 37.0747 299.825 36.8827 300.081 36.712C300.294 36.584 300.486 36.4773 300.657 36.392C300.87 36.264 301.019 36.2 301.105 36.2C304.475 36.2 307.334 36.4133 309.681 36.84C312.027 37.224 313.947 37.8427 315.441 38.696C316.934 39.5067 318.022 40.5733 318.705 41.896C319.387 43.176 319.729 44.7333 319.729 46.568ZM331.13 81V40.872V36.2H336.186V79.912V81H331.13ZM326.458 37.352L326.138 36.2H336.186C336.058 36.456 335.972 36.648 335.93 36.776C335.93 36.904 335.93 37.096 335.93 37.352C335.972 37.5653 336.015 37.864 336.058 38.248C336.143 38.632 336.186 39.208 336.186 39.976C336.186 40.1467 335.908 40.2747 335.354 40.36C334.842 40.4453 334.266 40.488 333.626 40.488C333.028 40.488 332.452 40.4453 331.898 40.36C331.386 40.2747 331.13 40.1467 331.13 39.976C331.13 38.952 330.895 38.1627 330.426 37.608C329.956 37.0107 329.295 36.712 328.442 36.712C328.058 36.712 327.716 36.776 327.418 36.904C327.119 36.9893 326.799 37.1387 326.458 37.352ZM326.138 81L326.458 79.848C326.799 80.0613 327.119 80.232 327.418 80.36C327.716 80.4453 328.058 80.488 328.442 80.488C328.826 80.488 329.188 80.424 329.53 80.296C329.871 80.168 330.17 79.9333 330.426 79.592C330.639 79.336 330.81 79.016 330.938 78.632C331.066 78.248 331.13 77.7787 331.13 77.224C331.13 76.6267 331.364 76.3707 331.834 76.456C332.346 76.5413 332.943 76.6907 333.626 76.904C334.351 76.6907 334.948 76.5413 335.418 76.456C335.93 76.3707 336.186 76.6267 336.186 77.224C336.186 78.4187 336.442 79.272 336.954 79.784C337.508 80.2533 338.148 80.488 338.874 80.488C339.258 80.488 339.599 80.4453 339.898 80.36C340.196 80.232 340.516 80.0613 340.858 79.848L341.178 81H326.138ZM340.858 37.352C340.516 37.1387 340.196 36.9893 339.898 36.904C339.599 36.776 339.258 36.712 338.874 36.712C338.02 36.712 337.359 37.0107 336.89 37.608C336.42 38.1627 336.186 38.952 336.186 39.976C336.186 40.1467 335.908 40.2747 335.354 40.36C334.842 40.4453 334.266 40.488 333.626 40.488C333.028 40.488 332.452 40.4453 331.898 40.36C331.386 40.2747 331.13 40.1467 331.13 39.976C331.13 39.208 331.151 38.632 331.194 38.248C331.279 37.864 331.322 37.5653 331.322 37.352C331.364 37.096 331.364 36.904 331.322 36.776C331.322 36.648 331.258 36.456 331.13 36.2H341.178L340.858 37.352ZM352.567 81V36.2H357.623V79.912V81H352.567ZM352.567 37.544V36.2H375.735V37.544H352.567ZM371.511 36.2H376.503L373.047 51.304L371.639 50.664C371.895 50.408 372.13 50.0453 372.343 49.576C372.556 49.064 372.748 48.552 372.919 48.04C373.132 47.4853 373.303 46.952 373.431 46.44C373.559 45.8853 373.644 45.4587 373.687 45.16C374.028 43.4107 373.964 42.0453 373.495 41.064C373.026 40.04 372.364 39.272 371.511 38.76C370.7 38.248 369.783 37.928 368.759 37.8C367.735 37.6293 366.818 37.544 366.007 37.544L371.511 36.2ZM347.575 36.2H350.903H351.799H362.615L362.359 37.544H360.503C359.82 37.544 359.159 37.6507 358.519 37.864C357.922 38.0773 357.623 38.7813 357.623 39.976C357.623 40.5733 357.367 40.8293 356.855 40.744C356.386 40.6587 355.788 40.5093 355.063 40.296C354.38 40.5093 353.783 40.6587 353.271 40.744C352.802 40.8293 352.567 40.5733 352.567 39.976C352.567 39.4213 352.503 38.952 352.375 38.568C352.247 38.184 352.076 37.864 351.863 37.608C351.564 37.2667 351.244 37.032 350.903 36.904C350.604 36.776 350.263 36.712 349.879 36.712C349.495 36.712 349.154 36.776 348.855 36.904C348.556 36.9893 348.236 37.1387 347.895 37.352L347.575 36.2ZM355.575 56.232H365.495V57.64L355.575 57.32V56.232ZM366.071 48.488L371.319 64.68H370.039C369.954 63.1867 369.762 61.9707 369.463 61.032C369.207 60.0933 368.823 59.368 368.311 58.856C367.799 58.344 367.138 58.0027 366.327 57.832C365.516 57.6613 364.535 57.576 363.383 57.576V56.232C365.303 56.232 366.455 55.6133 366.839 54.376C367.223 53.1387 366.562 51.496 364.855 49.448L366.071 48.488ZM352.567 79.656H378.807V81H352.567V79.656ZM374.583 81L369.079 79.656C369.89 79.656 370.807 79.592 371.831 79.464C372.855 79.2933 373.772 78.952 374.583 78.44C375.436 77.928 376.098 77.16 376.567 76.136C377.036 75.112 377.1 73.7467 376.759 72.04C376.716 71.7413 376.631 71.336 376.503 70.824C376.375 70.2693 376.204 69.736 375.991 69.224C375.82 68.6693 375.628 68.1573 375.415 67.688C375.202 67.176 374.967 66.792 374.711 66.536L376.119 65.896L379.575 81H374.583ZM347.575 81L347.895 79.848C348.236 80.0613 348.556 80.232 348.855 80.36C349.154 80.4453 349.495 80.488 349.879 80.488C350.263 80.488 350.604 80.424 350.903 80.296C351.244 80.168 351.564 79.9333 351.863 79.592C352.076 79.336 352.247 79.016 352.375 78.632C352.503 78.248 352.567 77.7787 352.567 77.224C352.567 76.6267 352.802 76.3707 353.271 76.456C353.783 76.5413 354.38 76.6907 355.063 76.904C355.788 76.6907 356.386 76.5413 356.855 76.456C357.367 76.3707 357.623 76.6267 357.623 77.224C357.623 78.4187 357.922 79.1227 358.519 79.336C359.159 79.5493 359.82 79.656 360.503 79.656H362.359L362.615 81H351.799H350.903H347.575Z" fill="#ECE2D2"/>
</g>
<defs>
<clipPath id="clip0_274_7176">
<rect width="130" height="130" fill="white"/>
</clipPath>
<clipPath id="clip1_274_7176">
<rect width="238" height="70" fill="white" transform="translate(145 30)"/>
</clipPath>
</defs>
</svg>
