<svg width="200" height="200" viewBox="0 0 200 200" fill="none" xmlns="http://www.w3.org/2000/svg">
<g clip-path="url(#clip0_274_7164)">
<path d="M198.744 169.929C197.404 170.765 196.148 171.392 194.978 171.81C193.807 172.228 192.469 172.437 190.966 172.437C188.121 172.437 185.655 171.478 183.565 169.552C181.474 167.627 180.429 164.327 180.429 159.642V14.2429C180.429 10.2316 181.347 7.09617 183.188 4.83655C185.028 2.57902 187.62 1.45026 190.964 1.45026C192.467 1.45026 193.805 1.65929 194.976 2.07735C196.146 2.49541 197.402 3.1225 198.742 3.95862L199.996 -0.849075L180.429 -0.719477V-0.849075L170.494 -0.660949L167.116 -0.849075L100.912 146.948L40.9223 15.9967L33.901 -1.05811H24.9127H19.6869H0.0380859L1.29227 3.70778C2.62797 2.89675 3.92396 2.25084 5.17814 1.7638C6.43232 1.27676 7.80983 1.0322 9.31903 1.0322C12.6635 1.0322 14.8353 2.28638 15.8387 4.79474C16.7647 7.10871 18.046 9.99333 19.6869 13.4423V159.897C19.6869 162.073 19.4361 163.911 18.9365 165.414C18.4328 166.919 17.768 168.173 16.9319 169.176C15.7593 170.516 14.5469 171.436 13.2927 171.935C12.0385 172.439 10.6568 172.686 9.1539 172.686C7.64888 172.686 6.309 172.506 5.14052 172.144C3.96786 171.783 2.71367 171.237 1.37797 170.512L0.123789 174.943H19.6869H19.896H24.7037H24.9127H44.5135L43.2593 170.512C41.9173 171.237 40.6589 171.783 39.4863 172.144C38.3136 172.506 36.9737 172.688 35.4687 172.688C33.9595 172.688 32.5757 172.439 31.3216 171.937C30.0632 171.438 28.8487 170.516 27.6761 169.178C26.8399 168.175 26.1711 166.921 25.6673 165.416C25.1635 163.913 24.9127 162.075 24.9127 159.899V24.9536L93.0273 175.625C93.1569 175.188 93.5122 174.239 94.1017 172.774C95.1051 170.265 96.2735 167.335 97.6134 163.99C98.9199 160.24 100.544 155.932 102.482 151.068L160.573 22.2174V159.644C160.573 161.82 160.323 163.658 159.823 165.165C159.319 166.67 158.654 167.924 157.825 168.923C156.821 170.263 155.653 171.183 154.319 171.687C152.986 172.19 151.568 172.437 150.067 172.437C148.567 172.437 147.233 172.257 146.067 171.896C144.898 171.534 143.646 170.988 142.315 170.263L141.065 174.738L160.575 174.669V174.738L170.49 174.634L200.001 174.529L198.744 169.929Z" fill="#050401"/>
<path d="M116.195 199.054C114.522 199.054 113.097 198.806 111.926 198.305C110.757 197.806 109.502 197.139 108.166 196.304L106.911 201.143H167.143L165.888 196.385C164.547 197.195 163.251 197.842 161.996 198.328C160.741 198.814 159.359 199.054 157.855 199.054C154.509 199.054 152.208 197.844 150.953 195.426C149.699 193.007 148.402 189.796 147.065 185.792L95.3667 13.1428C94.1934 16.98 92.3111 20.4416 89.7157 23.5276C87.2898 26.4133 84.5375 28.7502 81.4569 30.5405C81.2603 30.6552 81.0365 30.7136 80.8086 30.7136L38.2595 188.484C37.0842 191.77 35.7917 194.215 34.38 195.805C32.7069 197.694 30.4482 198.635 27.606 198.635C26.1002 198.635 24.7597 198.449 23.5906 198.071C22.4173 197.696 21.1625 197.132 19.8261 196.383L18.5713 200.932L31.8704 200.723L41.1582 200.932L41.1979 200.774L61.2354 200.932L59.9806 196.133C59.3113 196.465 58.3075 196.968 56.9669 197.635C55.6263 198.303 54.0389 198.637 52.1985 198.637C49.3564 198.637 47.0977 197.656 45.4246 195.693C43.7515 193.729 43.5821 190.622 44.9205 186.372L44.8515 186.374L45.4246 184.119L45.3911 184.131L82.1512 35.4334L126.233 184.041C127.574 188.88 127.237 192.592 125.229 195.179C123.222 197.763 120.208 199.054 116.195 199.054Z" fill="#050401"/>
</g>
<defs>
<clipPath id="clip0_274_7164">
<rect width="200" height="200" fill="white"/>
</clipPath>
</defs>
</svg>
