<svg width="179" height="209" viewBox="0 0 179 209" fill="none" xmlns="http://www.w3.org/2000/svg">
<g clip-path="url(#clip0_274_7203)">
<path d="M148.746 101.957C147.942 102.459 147.189 102.835 146.486 103.086C145.784 103.337 144.981 103.462 144.079 103.462C142.372 103.462 140.893 102.887 139.638 101.731C138.384 100.576 137.757 98.596 137.757 95.7854V8.54578C137.757 6.13901 138.308 4.25774 139.413 2.90197C140.516 1.54745 142.071 0.870192 144.078 0.870192C144.98 0.870192 145.783 0.99561 146.485 1.24645C147.187 1.49728 147.941 1.87354 148.745 2.37521L149.498 -0.509408L137.757 -0.43165V-0.509408L131.796 -0.396533L129.769 -0.509408L90.0468 88.1688L54.053 9.59804L49.8402 -0.634827H44.4472H41.3118H29.5225L30.275 2.22471C31.0764 1.73808 31.854 1.35054 32.6065 1.05832C33.359 0.766094 34.1855 0.619355 35.091 0.619355C37.0977 0.619355 38.4008 1.37186 39.0028 2.87688C39.5584 4.26526 40.3272 5.99603 41.3118 8.06543V95.9384C41.3118 97.244 41.1613 98.3465 40.8615 99.2482C40.5593 100.151 40.1604 100.904 39.6588 101.506C38.9552 102.31 38.2277 102.862 37.4752 103.161C36.7227 103.464 35.8937 103.612 34.9919 103.612C34.0889 103.612 33.285 103.504 32.5839 103.287C31.8803 103.07 31.1278 102.742 30.3264 102.307L29.5739 104.966H41.3118H41.4372H44.3218H44.4472H56.2077L55.4552 102.307C54.65 102.742 53.895 103.07 53.1914 103.287C52.4878 103.504 51.6839 103.613 50.7808 103.613C49.8753 103.613 49.0451 103.464 48.2925 103.163C47.5375 102.863 46.8088 102.31 46.1053 101.507C45.6036 100.905 45.2022 100.152 44.9 99.2495C44.5977 98.3477 44.4472 97.2453 44.4472 95.9397V14.9722L85.316 105.375C85.3938 105.113 85.607 104.543 85.9606 103.664C86.5627 102.159 87.2637 100.401 88.0677 98.3941C88.8515 96.1441 89.826 93.5593 90.9887 90.6408L125.844 13.3305V95.7867C125.844 97.0923 125.693 98.1947 125.393 99.099C125.091 100.002 124.692 100.754 124.194 101.354C123.592 102.158 122.891 102.71 122.091 103.012C121.291 103.314 120.441 103.462 119.54 103.462C118.64 103.462 117.839 103.354 117.14 103.137C116.439 102.92 115.687 102.593 114.888 102.158L114.138 104.843L125.845 104.802V104.843L131.793 104.78L149.5 104.718L148.746 101.957Z" fill="#434822"/>
<path d="M99.2166 119.433C98.2128 119.433 97.3582 119.284 96.6555 118.983C95.9541 118.684 95.2012 118.283 94.3993 117.782L93.6464 120.686H129.785L129.033 117.831C128.228 118.317 127.45 118.705 126.697 118.997C125.944 119.289 125.115 119.433 124.213 119.433C122.205 119.433 120.825 118.706 120.072 117.255C119.319 115.804 118.541 113.878 117.739 111.475L86.7198 7.88571C86.0158 10.188 84.8865 12.265 83.3293 14.1166C81.8737 15.848 80.2223 17.2501 78.3739 18.3243C78.256 18.3931 78.1217 18.4282 77.985 18.4282L52.4555 113.09C51.7503 115.062 50.9748 116.529 50.1278 117.483C49.1239 118.616 47.7687 119.181 46.0634 119.181C45.16 119.181 44.3556 119.069 43.6542 118.843C42.9502 118.618 42.1973 118.279 41.3955 117.83L40.6426 120.559L48.622 120.434L54.1947 120.559L54.2185 120.464L66.241 120.559L65.4881 117.68C65.0866 117.879 64.4843 118.181 63.6799 118.581C62.8756 118.982 61.9232 119.182 60.8189 119.182C59.1136 119.182 57.7584 118.594 56.7545 117.416C55.7507 116.238 55.649 114.373 56.4521 111.823L56.4107 111.825L56.7545 110.471L56.7345 110.479L78.7906 21.2601L105.24 110.425C106.044 113.328 105.842 115.555 104.637 117.108C103.433 118.658 101.625 119.433 99.2166 119.433Z" fill="#434822"/>
</g>
<g clip-path="url(#clip1_274_7203)">
<path d="M9.3175 140.352L10.6615 143.616L22.4695 169.392C22.0855 170.352 21.7655 171.2 21.5095 171.936C21.2535 172.576 21.0295 173.136 20.8375 173.616C20.6455 174.096 20.5815 174.288 20.6455 174.192L6.6775 143.28C6.3255 142.544 6.0535 141.936 5.8615 141.456C5.6695 140.976 5.2535 140.736 4.6135 140.736C4.3255 140.736 4.0535 140.784 3.7975 140.88C3.5735 140.976 3.3335 141.104 3.0775 141.264L2.8375 140.352H9.3175ZM34.8055 140.4H35.5255L21.9415 170.544L21.2695 170.592L34.8055 140.4ZM33.5575 174V143.904L35.2375 140.4H37.3495V173.184V174H33.5575ZM33.5575 143.232L37.3495 140.4V143.232C37.3495 143.36 37.1415 143.456 36.7255 143.52C36.3415 143.584 35.9095 143.616 35.4295 143.616C34.9815 143.616 34.5495 143.584 34.1335 143.52C33.7495 143.456 33.5575 143.36 33.5575 143.232ZM29.8135 174L30.0535 173.136C30.3095 173.296 30.5495 173.424 30.7735 173.52C30.9975 173.584 31.2535 173.616 31.5415 173.616C31.8295 173.616 32.1015 173.568 32.3575 173.472C32.6135 173.376 32.8375 173.2 33.0295 172.944C33.1895 172.752 33.3175 172.512 33.4135 172.224C33.5095 171.936 33.5575 171.584 33.5575 171.168C33.5575 170.72 33.7335 170.528 34.0855 170.592C34.4695 170.656 34.9175 170.768 35.4295 170.928C35.9735 170.768 36.4215 170.656 36.7735 170.592C37.1575 170.528 37.3495 170.72 37.3495 171.168C37.3495 172.064 37.5415 172.704 37.9255 173.088C38.3415 173.44 38.8215 173.616 39.3655 173.616C39.6535 173.616 39.9095 173.584 40.1335 173.52C40.3575 173.424 40.5975 173.296 40.8535 173.136L41.0935 174H29.8135ZM40.8535 141.264C40.5975 141.104 40.3575 140.992 40.1335 140.928C39.9095 140.832 39.6535 140.784 39.3655 140.784C38.7255 140.784 38.2295 141.008 37.8775 141.456C37.5255 141.872 37.3495 142.464 37.3495 143.232C37.3495 143.36 37.1415 143.456 36.7255 143.52C36.3415 143.584 35.9095 143.616 35.4295 143.616C34.9815 143.616 34.5495 143.584 34.1335 143.52C33.7495 143.456 33.5575 143.36 33.5575 143.232L35.0455 140.4H41.0935L40.8535 141.264ZM6.5815 140.352H7.5895V174.048H6.5815V140.352ZM2.8375 174.048L3.0775 173.184C3.3335 173.344 3.5735 173.472 3.7975 173.568C4.0215 173.632 4.2775 173.664 4.5655 173.664C4.8535 173.664 5.1095 173.616 5.3335 173.52C5.5895 173.424 5.8295 173.248 6.0535 172.992C6.2135 172.8 6.3415 172.56 6.4375 172.272C6.5335 171.984 6.5815 171.632 6.5815 171.216C6.5815 170.992 6.6295 170.864 6.7255 170.832C6.8215 170.8 6.9335 170.816 7.0615 170.88C7.1895 170.944 7.3495 171.04 7.5415 171.168V174.048H2.8375ZM11.3335 174.048H6.6295V171.168C6.8215 171.04 6.9815 170.944 7.1095 170.88C7.2375 170.816 7.3495 170.8 7.4455 170.832C7.5415 170.864 7.5895 170.992 7.5895 171.216C7.5895 171.632 7.6375 171.984 7.7335 172.272C7.8295 172.56 7.9575 172.8 8.1175 172.992C8.3415 173.248 8.5655 173.424 8.7895 173.52C9.0455 173.616 9.3175 173.664 9.6055 173.664C9.8935 173.664 10.1495 173.632 10.3735 173.568C10.5975 173.472 10.8375 173.344 11.0935 173.184L11.3335 174.048ZM62.8116 174.048L63.0516 173.136C63.3076 173.296 63.5476 173.424 63.7716 173.52C63.9956 173.616 64.2676 173.664 64.5876 173.664C65.3556 173.664 65.9316 173.424 66.3156 172.944C66.6996 172.432 66.7636 171.712 66.5076 170.784L57.8196 141.408C58.4596 141.056 59.0196 140.592 59.4996 140.016C60.0116 139.408 60.3796 138.736 60.6036 138L70.4916 171.12C70.7476 171.888 70.9876 172.512 71.2116 172.992C71.4676 173.44 71.9156 173.664 72.5556 173.664C72.8436 173.664 73.0996 173.616 73.3236 173.52C73.5796 173.424 73.8356 173.296 74.0916 173.136L74.3316 174.048H62.8116ZM45.9156 174L46.1556 173.136C46.4116 173.296 46.6516 173.424 46.8756 173.52C47.0996 173.584 47.3556 173.616 47.6436 173.616C48.1876 173.616 48.6196 173.44 48.9396 173.088C49.2596 172.704 49.5476 172.096 49.8036 171.264L51.0516 170.784L50.2356 174H48.4596H45.9156ZM50.3796 173.52H49.1796L57.8196 141.408H58.2996L50.3796 173.52ZM54.0756 174H49.0356L49.8036 171.264L50.9556 171.216C50.6996 172.048 50.7316 172.656 51.0516 173.04C51.3716 173.424 51.8036 173.616 52.3476 173.616C52.6996 173.616 53.0036 173.552 53.2596 173.424C53.5156 173.296 53.7076 173.2 53.8356 173.136L54.0756 174ZM52.6836 163.632V163.248L65.3076 162.624V163.632H52.6836ZM78.19 162C78.19 160.336 78.51 158.768 79.15 157.296C79.79 155.824 80.654 154.544 81.742 153.456C82.862 152.336 84.158 151.456 85.63 150.816C87.102 150.176 88.67 149.856 90.334 149.856C91.998 149.856 93.566 150.176 95.038 150.816C96.542 151.456 97.838 152.336 98.926 153.456C100.046 154.544 100.926 155.824 101.566 157.296C102.206 158.768 102.526 160.336 102.526 162C102.526 163.664 102.206 165.232 101.566 166.704C100.926 168.176 100.046 169.472 98.926 170.592C97.838 171.68 96.542 172.544 95.038 173.184C93.566 173.824 91.998 174.144 90.334 174.144C88.67 174.144 87.102 173.824 85.63 173.184C84.158 172.544 82.862 171.68 81.742 170.592C80.654 169.472 79.79 168.176 79.15 166.704C78.51 165.232 78.19 163.664 78.19 162ZM83.662 166.368C84.558 167.68 85.534 168.816 86.59 169.776C87.678 170.704 88.798 171.408 89.95 171.888C91.102 172.336 92.254 172.528 93.406 172.464C94.59 172.368 95.71 171.968 96.766 171.264C97.822 170.56 98.59 169.696 99.07 168.672C99.55 167.616 99.774 166.48 99.742 165.264C99.742 164.048 99.502 162.768 99.022 161.424C98.542 160.08 97.854 158.736 96.958 157.392C96.062 156.08 95.086 154.96 94.03 154.032C92.974 153.104 91.886 152.432 90.766 152.016C89.646 151.568 88.51 151.392 87.358 151.488C86.238 151.552 85.15 151.936 84.094 152.64C83.038 153.344 82.238 154.224 81.694 155.28C81.182 156.304 80.926 157.424 80.926 158.64C80.926 159.824 81.15 161.088 81.598 162.432C82.078 163.744 82.766 165.056 83.662 166.368ZM81.358 169.824L81.598 170.4C80.798 171.104 80.174 171.904 79.726 172.8C79.31 173.696 79.118 174.544 79.15 175.344C79.214 176.144 79.518 176.816 80.062 177.36C80.606 177.936 81.438 178.224 82.558 178.224C83.55 178.224 84.446 177.968 85.246 177.456C86.078 176.976 86.91 176.432 87.742 175.824C88.574 175.248 89.454 174.688 90.382 174.144C91.342 173.632 92.446 173.328 93.694 173.232C94.814 173.136 95.886 173.216 96.91 173.472C97.966 173.696 98.894 174.08 99.694 174.624C100.526 175.168 101.182 175.856 101.662 176.688C102.174 177.552 102.43 178.56 102.43 179.712C102.43 180.544 102.238 181.312 101.854 182.016C101.47 182.72 100.958 183.328 100.318 183.84C99.678 184.352 98.942 184.752 98.11 185.04C97.31 185.36 96.478 185.52 95.614 185.52C94.398 185.52 93.358 185.264 92.494 184.752C91.662 184.272 90.974 183.696 90.43 183.024C89.886 182.384 89.47 181.744 89.182 181.104C88.894 180.496 88.718 180.064 88.654 179.808H94.174C93.95 179.872 93.742 179.984 93.55 180.144C93.39 180.272 93.246 180.432 93.118 180.624C92.99 180.848 92.926 181.12 92.926 181.44C92.926 182.176 93.31 182.752 94.078 183.168C94.878 183.584 95.726 183.808 96.622 183.84C97.614 183.84 98.43 183.584 99.07 183.072C99.742 182.56 100.222 181.904 100.51 181.104C100.83 180.336 100.942 179.504 100.846 178.608C100.75 177.712 100.43 176.896 99.886 176.16C99.342 175.424 98.558 174.816 97.534 174.336C96.51 173.856 95.23 173.664 93.694 173.76C92.638 173.824 91.63 174.16 90.67 174.768C89.742 175.408 88.83 176.096 87.934 176.832C87.038 177.568 86.142 178.224 85.246 178.8C84.35 179.408 83.422 179.712 82.462 179.712C80.99 179.712 79.934 179.328 79.294 178.56C78.686 177.824 78.382 176.928 78.382 175.872C78.414 174.816 78.702 173.728 79.246 172.608C79.79 171.488 80.494 170.56 81.358 169.824ZM95.086 148.416C95.086 147.168 95.518 146.112 96.382 145.248C97.278 144.352 98.35 143.904 99.598 143.904C100.142 143.904 100.622 143.968 101.038 144.096C101.454 144.224 101.854 144.448 102.238 144.768V147.696C101.918 147.28 101.534 146.928 101.086 146.64C100.638 146.32 100.142 146.16 99.598 146.16C98.67 146.16 97.87 146.496 97.198 147.168C96.558 147.84 96.238 148.64 96.238 149.568C96.238 150.144 96.382 150.688 96.67 151.2C96.958 151.68 97.326 152.08 97.774 152.4C97.806 152.432 97.806 152.464 97.774 152.496C97.742 152.528 97.71 152.528 97.678 152.496C96.782 152.112 96.126 151.568 95.71 150.864C95.294 150.16 95.086 149.344 95.086 148.416ZM110.128 174V140.4H113.92V173.184V174H110.128ZM106.624 141.264L106.384 140.4H113.92V143.28C113.92 143.568 113.712 143.76 113.296 143.856C112.912 143.92 112.48 143.936 112 143.904C111.552 143.84 111.12 143.744 110.704 143.616C110.32 143.488 110.128 143.36 110.128 143.232C110.128 142.464 109.952 141.872 109.6 141.456C109.248 141.008 108.752 140.784 108.112 140.784C107.824 140.784 107.568 140.832 107.344 140.928C107.12 140.992 106.88 141.104 106.624 141.264ZM106.384 174L106.624 173.136C106.88 173.296 107.12 173.424 107.344 173.52C107.568 173.584 107.824 173.616 108.112 173.616C108.784 173.616 109.28 173.36 109.6 172.848C109.952 172.304 110.128 171.744 110.128 171.168C110.128 170.72 110.336 170.464 110.752 170.4C111.168 170.336 111.648 170.304 112.192 170.304C112.736 170.304 113.152 170.336 113.44 170.4C113.76 170.464 113.92 170.72 113.92 171.168C113.92 172.064 114.112 172.704 114.496 173.088C114.912 173.44 115.392 173.616 115.936 173.616C116.224 173.616 116.48 173.584 116.704 173.52C116.928 173.424 117.168 173.296 117.424 173.136L117.664 174H106.384ZM117.328 140.4L115.936 141.216C115.296 141.216 114.8 141.376 114.448 141.696C114.096 141.984 113.92 142.512 113.92 143.28C113.76 143.248 113.584 143.088 113.392 142.8C113.2 142.48 113.104 142.192 113.104 141.936C113.104 141.68 113.152 141.36 113.248 140.976C113.344 140.592 113.568 140.4 113.92 140.4H117.328ZM131.296 148.176C131.296 149.936 130.864 151.328 130 152.352C129.136 153.376 128.064 154.192 126.784 154.8C125.504 155.376 124.112 155.856 122.608 156.24C121.104 156.592 119.712 157.024 118.432 157.536C117.152 158.016 116.08 158.656 115.216 159.456C114.352 160.224 113.92 161.344 113.92 162.816C113.92 163.008 113.904 163.008 113.872 162.816C113.84 162.592 113.808 162.32 113.776 162C113.744 161.648 113.728 161.312 113.728 160.992C113.76 160.64 113.824 160.416 113.92 160.32C114.272 159.36 114.832 158.608 115.6 158.064C116.368 157.488 117.232 156.992 118.192 156.576C119.152 156.128 120.144 155.712 121.168 155.328C122.192 154.944 123.12 154.464 123.952 153.888C124.816 153.312 125.52 152.576 126.064 151.68C126.608 150.784 126.88 149.616 126.88 148.176C126.88 145.712 126.048 143.936 124.384 142.848C122.72 141.76 119.904 141.216 115.936 141.216C116.16 141.056 116.368 140.912 116.56 140.784C116.72 140.688 116.864 140.608 116.992 140.544C117.152 140.448 117.264 140.4 117.328 140.4C119.856 140.4 122 140.56 123.76 140.88C125.52 141.168 126.96 141.632 128.08 142.272C129.2 142.88 130.016 143.68 130.528 144.672C131.04 145.632 131.296 146.8 131.296 148.176ZM139.847 174V143.904V140.4H143.639V173.184V174H139.847ZM136.343 141.264L136.103 140.4H143.639C143.543 140.592 143.479 140.736 143.447 140.832C143.447 140.928 143.447 141.072 143.447 141.264C143.479 141.424 143.511 141.648 143.543 141.936C143.607 142.224 143.639 142.656 143.639 143.232C143.639 143.36 143.431 143.456 143.015 143.52C142.631 143.584 142.199 143.616 141.719 143.616C141.271 143.616 140.839 143.584 140.423 143.52C140.039 143.456 139.847 143.36 139.847 143.232C139.847 142.464 139.671 141.872 139.319 141.456C138.967 141.008 138.471 140.784 137.831 140.784C137.543 140.784 137.287 140.832 137.063 140.928C136.839 140.992 136.599 141.104 136.343 141.264ZM136.103 174L136.343 173.136C136.599 173.296 136.839 173.424 137.063 173.52C137.287 173.584 137.543 173.616 137.831 173.616C138.119 173.616 138.391 173.568 138.647 173.472C138.903 173.376 139.127 173.2 139.319 172.944C139.479 172.752 139.607 172.512 139.703 172.224C139.799 171.936 139.847 171.584 139.847 171.168C139.847 170.72 140.023 170.528 140.375 170.592C140.759 170.656 141.207 170.768 141.719 170.928C142.263 170.768 142.711 170.656 143.063 170.592C143.447 170.528 143.639 170.72 143.639 171.168C143.639 172.064 143.831 172.704 144.215 173.088C144.631 173.44 145.111 173.616 145.655 173.616C145.943 173.616 146.199 173.584 146.423 173.52C146.647 173.424 146.887 173.296 147.143 173.136L147.383 174H136.103ZM147.143 141.264C146.887 141.104 146.647 140.992 146.423 140.928C146.199 140.832 145.943 140.784 145.655 140.784C145.015 140.784 144.519 141.008 144.167 141.456C143.815 141.872 143.639 142.464 143.639 143.232C143.639 143.36 143.431 143.456 143.015 143.52C142.631 143.584 142.199 143.616 141.719 143.616C141.271 143.616 140.839 143.584 140.423 143.52C140.039 143.456 139.847 143.36 139.847 143.232C139.847 142.656 139.863 142.224 139.895 141.936C139.959 141.648 139.991 141.424 139.991 141.264C140.023 141.072 140.023 140.928 139.991 140.832C139.991 140.736 139.943 140.592 139.847 140.4H147.383L147.143 141.264ZM155.925 174V140.4H159.717V173.184V174H155.925ZM155.925 141.408V140.4H173.301V141.408H155.925ZM170.133 140.4H173.877L171.285 151.728L170.229 151.248C170.421 151.056 170.597 150.784 170.757 150.432C170.917 150.048 171.061 149.664 171.189 149.28C171.349 148.864 171.477 148.464 171.573 148.08C171.669 147.664 171.733 147.344 171.765 147.12C172.021 145.808 171.973 144.784 171.621 144.048C171.269 143.28 170.773 142.704 170.133 142.32C169.525 141.936 168.837 141.696 168.069 141.6C167.301 141.472 166.613 141.408 166.005 141.408L170.133 140.4ZM152.181 140.4H154.677H155.349H163.461L163.269 141.408H161.877C161.365 141.408 160.869 141.488 160.389 141.648C159.941 141.808 159.717 142.336 159.717 143.232C159.717 143.68 159.525 143.872 159.141 143.808C158.789 143.744 158.341 143.632 157.797 143.472C157.285 143.632 156.837 143.744 156.453 143.808C156.101 143.872 155.925 143.68 155.925 143.232C155.925 142.816 155.877 142.464 155.781 142.176C155.685 141.888 155.557 141.648 155.397 141.456C155.173 141.2 154.933 141.024 154.677 140.928C154.453 140.832 154.197 140.784 153.909 140.784C153.621 140.784 153.365 140.832 153.141 140.928C152.917 140.992 152.677 141.104 152.421 141.264L152.181 140.4ZM158.181 155.424H165.621V156.48L158.181 156.24V155.424ZM166.053 149.616L169.989 161.76H169.029C168.965 160.64 168.821 159.728 168.597 159.024C168.405 158.32 168.117 157.776 167.733 157.392C167.349 157.008 166.853 156.752 166.245 156.624C165.637 156.496 164.901 156.432 164.037 156.432V155.424C165.477 155.424 166.341 154.96 166.629 154.032C166.917 153.104 166.421 151.872 165.141 150.336L166.053 149.616ZM155.925 172.992H175.605V174H155.925V172.992ZM172.437 174L168.309 172.992C168.917 172.992 169.605 172.944 170.373 172.848C171.141 172.72 171.829 172.464 172.437 172.08C173.077 171.696 173.573 171.12 173.925 170.352C174.277 169.584 174.325 168.56 174.069 167.28C174.037 167.056 173.973 166.752 173.877 166.368C173.781 165.952 173.653 165.552 173.493 165.168C173.365 164.752 173.221 164.368 173.061 164.016C172.901 163.632 172.725 163.344 172.533 163.152L173.589 162.672L176.181 174H172.437ZM152.181 174L152.421 173.136C152.677 173.296 152.917 173.424 153.141 173.52C153.365 173.584 153.621 173.616 153.909 173.616C154.197 173.616 154.453 173.568 154.677 173.472C154.933 173.376 155.173 173.2 155.397 172.944C155.557 172.752 155.685 172.512 155.781 172.224C155.877 171.936 155.925 171.584 155.925 171.168C155.925 170.72 156.101 170.528 156.453 170.592C156.837 170.656 157.285 170.768 157.797 170.928C158.341 170.768 158.789 170.656 159.141 170.592C159.525 170.528 159.717 170.72 159.717 171.168C159.717 172.064 159.941 172.592 160.389 172.752C160.869 172.912 161.365 172.992 161.877 172.992H163.269L163.461 174H155.349H154.677H152.181Z" fill="#434822"/>
<path d="M11.2355 204V192.8H12.4995V203.728V204H11.2355ZM10.0675 193.088L9.9875 192.8H12.4995V193.76C12.4995 193.856 12.4302 193.92 12.2915 193.952C12.1635 193.973 12.0195 193.979 11.8595 193.968C11.7102 193.947 11.5662 193.915 11.4275 193.872C11.2995 193.829 11.2355 193.787 11.2355 193.744C11.2355 193.488 11.1768 193.291 11.0595 193.152C10.9422 193.003 10.7768 192.928 10.5635 192.928C10.4675 192.928 10.3822 192.944 10.3075 192.976C10.2328 192.997 10.1528 193.035 10.0675 193.088ZM9.9875 204L10.0675 203.712C10.1528 203.765 10.2328 203.808 10.3075 203.84C10.3822 203.861 10.4675 203.872 10.5635 203.872C10.7875 203.872 10.9528 203.787 11.0595 203.616C11.1768 203.435 11.2355 203.248 11.2355 203.056C11.2355 202.907 11.3048 202.821 11.4435 202.8C11.5822 202.779 11.7422 202.768 11.9235 202.768C12.1048 202.768 12.2435 202.779 12.3395 202.8C12.4462 202.821 12.4995 202.907 12.4995 203.056C12.4995 203.355 12.5635 203.568 12.6915 203.696C12.8302 203.813 12.9902 203.872 13.1715 203.872C13.2675 203.872 13.3528 203.861 13.4275 203.84C13.5022 203.808 13.5822 203.765 13.6675 203.712L13.7475 204H9.9875ZM13.6355 192.8L13.1715 193.072C12.9582 193.072 12.7928 193.125 12.6755 193.232C12.5582 193.328 12.4995 193.504 12.4995 193.76C12.4462 193.749 12.3875 193.696 12.3235 193.6C12.2595 193.493 12.2275 193.397 12.2275 193.312C12.2275 193.227 12.2435 193.12 12.2755 192.992C12.3075 192.864 12.3822 192.8 12.4995 192.8H13.6355ZM18.2915 195.392C18.2915 195.979 18.1475 196.443 17.8595 196.784C17.5715 197.125 17.2142 197.397 16.7875 197.6C16.3608 197.792 15.8968 197.952 15.3955 198.08C14.8942 198.197 14.4302 198.341 14.0035 198.512C13.5768 198.672 13.2195 198.885 12.9315 199.152C12.6435 199.408 12.4995 199.781 12.4995 200.272C12.4995 200.336 12.4942 200.336 12.4835 200.272C12.4728 200.197 12.4622 200.107 12.4515 200C12.4408 199.883 12.4355 199.771 12.4355 199.664C12.4462 199.547 12.4675 199.472 12.4995 199.44C12.6168 199.12 12.8035 198.869 13.0595 198.688C13.3155 198.496 13.6035 198.331 13.9235 198.192C14.2435 198.043 14.5742 197.904 14.9155 197.776C15.2568 197.648 15.5662 197.488 15.8435 197.296C16.1315 197.104 16.3662 196.859 16.5475 196.56C16.7288 196.261 16.8195 195.872 16.8195 195.392C16.8195 194.571 16.5422 193.979 15.9875 193.616C15.4328 193.253 14.4942 193.072 13.1715 193.072C13.2462 193.019 13.3155 192.971 13.3795 192.928C13.4328 192.896 13.4808 192.869 13.5235 192.848C13.5768 192.816 13.6142 192.8 13.6355 192.8C14.4782 192.8 15.1928 192.853 15.7795 192.96C16.3662 193.056 16.8462 193.211 17.2195 193.424C17.5928 193.627 17.8648 193.893 18.0355 194.224C18.2062 194.544 18.2915 194.933 18.2915 195.392ZM19.7635 204H18.9155H17.2995L16.9315 203.168L18.0195 203.088C18.2222 203.429 18.4035 203.643 18.5635 203.728C18.7235 203.803 18.8942 203.84 19.0755 203.84C19.1715 203.84 19.2675 203.829 19.3635 203.808C19.4595 203.787 19.5502 203.749 19.6355 203.696L19.7635 204ZM17.2995 204L14.5955 197.984L14.9315 197.888L18.5635 204H17.2995ZM15.8275 204L15.9075 203.712C15.9502 203.733 16.0142 203.765 16.0995 203.808C16.1848 203.851 16.2862 203.872 16.4035 203.872C16.4888 203.872 16.5795 203.867 16.6755 203.856C16.7822 203.845 16.8675 203.819 16.9315 203.776C16.9955 203.723 17.0328 203.648 17.0435 203.552C17.0542 203.456 17.0168 203.328 16.9315 203.168L18.0195 203.088L18.5635 204H15.8275ZM21.9545 198.96C21.9545 199.579 22.0612 200.16 22.2745 200.704C22.4985 201.248 22.7865 201.728 23.1385 202.144C23.4905 202.549 23.8798 202.875 24.3065 203.12C24.7438 203.355 25.1758 203.472 25.6025 203.472C26.2745 203.472 26.8398 203.307 27.2985 202.976C27.7572 202.635 28.0665 202.128 28.2265 201.456H28.8825C28.7438 201.84 28.5465 202.192 28.2905 202.512C28.0452 202.821 27.7518 203.093 27.4105 203.328C27.0798 203.552 26.7172 203.728 26.3225 203.856C25.9278 203.984 25.5172 204.048 25.0905 204.048C24.5358 204.048 24.0132 203.941 23.5225 203.728C23.0318 203.515 22.5998 203.227 22.2265 202.864C21.8638 202.491 21.5758 202.059 21.3625 201.568C21.1492 201.077 21.0425 200.555 21.0425 200C21.0425 199.445 21.1492 198.923 21.3625 198.432C21.5758 197.941 21.8638 197.515 22.2265 197.152C22.5998 196.779 23.0318 196.485 23.5225 196.272C24.0132 196.059 24.5358 195.952 25.0905 195.952C25.6238 195.952 26.1092 196.021 26.5465 196.16C26.9838 196.299 27.3625 196.491 27.6825 196.736C28.0132 196.971 28.2798 197.253 28.4825 197.584C28.6958 197.915 28.8398 198.272 28.9145 198.656C28.9145 198.667 28.8345 198.672 28.6745 198.672C28.5145 198.672 28.3438 198.672 28.1625 198.672C27.9385 198.672 27.6825 198.667 27.3945 198.656C27.3412 198.315 27.2238 198.011 27.0425 197.744C26.8718 197.467 26.6638 197.227 26.4185 197.024C26.1732 196.821 25.8958 196.667 25.5865 196.56C25.2772 196.453 24.9625 196.4 24.6425 196.4C24.2585 196.4 23.9012 196.469 23.5705 196.608C23.2505 196.736 22.9678 196.917 22.7225 197.152C22.4878 197.387 22.3012 197.659 22.1625 197.968C22.0238 198.277 21.9545 198.608 21.9545 198.96ZM21.6665 198.656V198.32H28.6905L28.9145 198.656H21.6665ZM37.7106 192.24V204.016H36.4466V192.512V192.24H37.7106ZM38.8786 203.728L38.9586 204.016H36.4466V203.072H37.7106C37.7106 203.381 37.7693 203.595 37.8866 203.712C38.004 203.829 38.1693 203.888 38.3826 203.888C38.4786 203.888 38.564 203.877 38.6386 203.856C38.7133 203.824 38.7933 203.781 38.8786 203.728ZM33.5186 204.064C32.2493 204.064 31.3213 203.707 30.7346 202.992C30.1586 202.267 29.8706 201.275 29.8706 200.016C29.8706 198.747 30.1906 197.755 30.8306 197.04C31.4813 196.325 32.388 195.968 33.5506 195.968C34.0946 195.968 34.564 196.069 34.9586 196.272C35.364 196.464 35.6946 196.736 35.9506 197.088C36.2173 197.44 36.4093 197.867 36.5266 198.368C36.6546 198.859 36.7186 199.408 36.7186 200.016C36.7186 200.592 36.6493 201.131 36.5106 201.632C36.3826 202.123 36.1853 202.549 35.9186 202.912C35.6626 203.275 35.332 203.557 34.9266 203.76C34.532 203.963 34.0626 204.064 33.5186 204.064ZM33.6946 203.776C34.1426 203.776 34.5373 203.68 34.8786 203.488C35.22 203.296 35.5026 203.035 35.7266 202.704C35.9613 202.363 36.1373 201.963 36.2546 201.504C36.3826 201.045 36.4466 200.549 36.4466 200.016C36.4466 199.387 36.3773 198.837 36.2386 198.368C36.1 197.888 35.908 197.493 35.6626 197.184C35.428 196.875 35.1453 196.645 34.8146 196.496C34.4946 196.336 34.1426 196.256 33.7586 196.256C33.3426 196.256 32.98 196.363 32.6706 196.576C32.3613 196.789 32.1053 197.072 31.9026 197.424C31.7106 197.776 31.5613 198.176 31.4546 198.624C31.3586 199.072 31.3053 199.536 31.2946 200.016C31.284 200.517 31.3213 200.997 31.4066 201.456C31.5026 201.904 31.6466 202.304 31.8386 202.656C32.0306 202.997 32.2813 203.269 32.5906 203.472C32.9 203.675 33.268 203.776 33.6946 203.776ZM36.4466 191.696C36.9373 191.984 37.4066 192.176 37.8546 192.272C38.3133 192.368 38.6866 192.416 38.9746 192.416L38.9106 192.672C38.8573 192.651 38.7933 192.629 38.7186 192.608C38.6546 192.576 38.564 192.56 38.4466 192.56C38.2333 192.56 38.0573 192.645 37.9186 192.816C37.78 192.976 37.7106 193.221 37.7106 193.552C37.6466 193.467 37.556 193.365 37.4386 193.248C37.3213 193.12 37.1986 192.992 37.0706 192.864C36.9533 192.736 36.836 192.619 36.7186 192.512C36.6013 192.395 36.5106 192.304 36.4466 192.24V191.696ZM40.8451 198.96C40.8451 199.579 40.9518 200.16 41.1651 200.704C41.3891 201.248 41.6771 201.728 42.0291 202.144C42.3811 202.549 42.7705 202.875 43.1971 203.12C43.6345 203.355 44.0665 203.472 44.4931 203.472C45.1651 203.472 45.7305 203.307 46.1891 202.976C46.6478 202.635 46.9571 202.128 47.1171 201.456H47.7731C47.6345 201.84 47.4371 202.192 47.1811 202.512C46.9358 202.821 46.6425 203.093 46.3011 203.328C45.9705 203.552 45.6078 203.728 45.2131 203.856C44.8185 203.984 44.4078 204.048 43.9811 204.048C43.4265 204.048 42.9038 203.941 42.4131 203.728C41.9225 203.515 41.4905 203.227 41.1171 202.864C40.7545 202.491 40.4665 202.059 40.2531 201.568C40.0398 201.077 39.9331 200.555 39.9331 200C39.9331 199.445 40.0398 198.923 40.2531 198.432C40.4665 197.941 40.7545 197.515 41.1171 197.152C41.4905 196.779 41.9225 196.485 42.4131 196.272C42.9038 196.059 43.4265 195.952 43.9811 195.952C44.5145 195.952 44.9998 196.021 45.4371 196.16C45.8745 196.299 46.2531 196.491 46.5731 196.736C46.9038 196.971 47.1705 197.253 47.3731 197.584C47.5865 197.915 47.7305 198.272 47.8051 198.656C47.8051 198.667 47.7251 198.672 47.5651 198.672C47.4051 198.672 47.2345 198.672 47.0531 198.672C46.8291 198.672 46.5731 198.667 46.2851 198.656C46.2318 198.315 46.1145 198.011 45.9331 197.744C45.7625 197.467 45.5545 197.227 45.3091 197.024C45.0638 196.821 44.7865 196.667 44.4771 196.56C44.1678 196.453 43.8531 196.4 43.5331 196.4C43.1491 196.4 42.7918 196.469 42.4611 196.608C42.1411 196.736 41.8585 196.917 41.6131 197.152C41.3785 197.387 41.1918 197.659 41.0531 197.968C40.9145 198.277 40.8451 198.608 40.8451 198.96ZM40.5571 198.656V198.32H47.5811L47.8051 198.656H40.5571ZM50.0413 203.04V193.872L51.3213 192.8V203.04H50.0413ZM48.7613 204.016L48.8413 203.712C48.9266 203.765 49.0066 203.808 49.0813 203.84C49.1559 203.872 49.2466 203.888 49.3533 203.888C49.4599 203.888 49.5506 203.872 49.6253 203.84C49.6999 203.797 49.7746 203.733 49.8493 203.648C49.9026 203.573 49.9453 203.493 49.9773 203.408C50.0199 203.312 50.0413 203.189 50.0413 203.04C50.0413 202.891 50.0999 202.827 50.2173 202.848C50.3346 202.869 50.4839 202.907 50.6653 202.96C50.8466 202.907 51.0013 202.869 51.1293 202.848C51.2573 202.827 51.3213 202.891 51.3213 203.04C51.3213 203.307 51.3799 203.515 51.4973 203.664C51.6253 203.813 51.7959 203.888 52.0093 203.888C52.1053 203.888 52.1906 203.872 52.2653 203.84C52.3506 203.808 52.4359 203.765 52.5213 203.712L52.6013 204.016H48.7613ZM51.3213 192.8V193.344C51.2573 193.408 51.1666 193.499 51.0493 193.616C50.9319 193.723 50.8093 193.84 50.6813 193.968C50.5533 194.096 50.4306 194.224 50.3133 194.352C50.1959 194.469 50.1053 194.571 50.0413 194.656C50.0413 194.325 49.9719 194.08 49.8333 193.92C49.6946 193.749 49.5186 193.664 49.3053 193.664C49.1879 193.664 49.0919 193.68 49.0173 193.712C48.9533 193.733 48.8946 193.755 48.8413 193.776L48.7773 193.52C49.1826 193.52 49.6146 193.456 50.0733 193.328C50.5319 193.2 50.9479 193.024 51.3213 192.8ZM51.3213 195.52V194.416C51.3746 194.171 51.4706 193.952 51.6093 193.76C51.7479 193.557 51.9079 193.387 52.0893 193.248C52.2813 193.109 52.4893 193.008 52.7133 192.944C52.9479 192.869 53.1773 192.832 53.4013 192.832C54.0626 192.832 54.6013 192.976 55.0173 193.264C55.4333 193.552 55.7159 193.947 55.8653 194.448L54.8253 194.864C54.8039 194.363 54.6333 193.947 54.3133 193.616C54.0039 193.285 53.6146 193.12 53.1453 193.12C52.9426 193.12 52.7293 193.173 52.5052 193.28C52.2919 193.387 52.0946 193.541 51.9133 193.744C51.7426 193.947 51.5986 194.197 51.4813 194.496C51.3746 194.795 51.3213 195.136 51.3213 195.52ZM48.8413 197.056V196.72H52.5213V197.056H48.8413ZM56.8238 196H60.5838L60.5038 196.288C60.4184 196.235 60.3384 196.197 60.2638 196.176C60.1891 196.144 60.1038 196.128 60.0078 196.128C59.7944 196.128 59.6291 196.203 59.5118 196.352C59.3944 196.491 59.3358 196.688 59.3358 196.944V203.056C59.3358 203.355 59.3998 203.568 59.5278 203.696C59.6664 203.813 59.8264 203.872 60.0078 203.872C60.1038 203.872 60.1891 203.861 60.2638 203.84C60.3384 203.808 60.4184 203.765 60.5038 203.712L60.5838 204H56.8238L56.9038 203.712C56.9891 203.765 57.0691 203.808 57.1438 203.84C57.2184 203.861 57.3038 203.872 57.3997 203.872C57.4958 203.872 57.5864 203.856 57.6718 203.824C57.7571 203.792 57.8318 203.733 57.8958 203.648C57.9491 203.584 57.9918 203.504 58.0238 203.408C58.0558 203.312 58.0718 203.195 58.0718 203.056V197.168V196.944C58.0718 196.688 58.0131 196.491 57.8958 196.352C57.7784 196.203 57.6131 196.128 57.3997 196.128C57.3038 196.128 57.2184 196.144 57.1438 196.176C57.0691 196.197 56.9891 196.235 56.9038 196.288L56.8238 196ZM57.7998 194.928C57.7998 194.683 57.8904 194.469 58.0718 194.288C58.2531 194.107 58.4664 194.016 58.7118 194.016C58.9571 194.016 59.1704 194.107 59.3518 194.288C59.5331 194.469 59.6238 194.683 59.6238 194.928C59.6238 195.173 59.5331 195.387 59.3518 195.568C59.1704 195.749 58.9571 195.84 58.7118 195.84C58.4664 195.84 58.2531 195.749 58.0718 195.568C57.8904 195.387 57.7998 195.173 57.7998 194.928ZM62.8225 204.016V203.904V196.576L64.1025 196.192V203.728V204.016H62.8225ZM61.5425 204.016L61.6225 203.712C61.7078 203.765 61.7878 203.808 61.8625 203.84C61.9372 203.872 62.0278 203.888 62.1345 203.888C62.2412 203.888 62.3318 203.872 62.4065 203.84C62.4812 203.797 62.5558 203.733 62.6305 203.648C62.6838 203.573 62.7265 203.493 62.7585 203.408C62.8012 203.312 62.8225 203.189 62.8225 203.04C62.8225 202.891 62.8812 202.827 62.9985 202.848C63.1158 202.869 63.2652 202.907 63.4465 202.96C63.6278 202.907 63.7825 202.869 63.9105 202.848C64.0385 202.827 64.1025 202.891 64.1025 203.04C64.1025 203.307 64.1612 203.515 64.2785 203.664C64.4065 203.813 64.5772 203.888 64.7905 203.888C64.8865 203.888 64.9718 203.872 65.0465 203.84C65.1318 203.808 65.2172 203.765 65.3025 203.712L65.3825 204.016H61.5425ZM64.1025 196.016V196.56C64.0385 196.624 63.9478 196.715 63.8305 196.832C63.7132 196.939 63.5905 197.056 63.4625 197.184C63.3345 197.312 63.2118 197.44 63.0945 197.568C62.9772 197.685 62.8865 197.787 62.8225 197.872C62.8225 197.541 62.7532 197.296 62.6145 197.136C62.4758 196.965 62.2998 196.88 62.0865 196.88C61.9692 196.88 61.8732 196.896 61.7985 196.928C61.7345 196.949 61.6758 196.971 61.6225 196.992L61.5585 196.736C61.8465 196.736 62.2198 196.688 62.6785 196.592C63.1372 196.496 63.6118 196.304 64.1025 196.016ZM66.2145 204.016L66.3105 203.712C66.3958 203.765 66.4758 203.808 66.5505 203.84C66.6358 203.872 66.7212 203.888 66.8065 203.888C66.9132 203.888 67.0038 203.872 67.0785 203.84C67.1638 203.797 67.2438 203.733 67.3185 203.648C67.3718 203.584 67.4145 203.504 67.4465 203.408C67.4892 203.312 67.5105 203.189 67.5105 203.04C67.5105 202.891 67.5692 202.827 67.6865 202.848C67.8145 202.869 67.9638 202.907 68.1345 202.96C68.3158 202.907 68.4705 202.869 68.5985 202.848C68.7372 202.827 68.8065 202.891 68.8065 203.04C68.8065 203.307 68.8652 203.515 68.9825 203.664C69.0998 203.813 69.2652 203.888 69.4785 203.888C69.5852 203.888 69.6758 203.872 69.7505 203.84C69.8252 203.808 69.9052 203.765 69.9905 203.712L70.0545 204.016H66.2145ZM67.5105 204.016V203.904L67.4945 198.608L68.7905 198.64L68.8065 203.728V204.016H67.5105ZM64.1025 198.688V197.584C64.1558 197.339 64.2518 197.12 64.3905 196.928C64.5292 196.725 64.6892 196.555 64.8705 196.416C65.0625 196.277 65.2705 196.176 65.4945 196.112C65.7292 196.037 65.9585 196 66.1825 196C67.0465 196 67.6972 196.245 68.1345 196.736C68.5718 197.216 68.7905 197.851 68.7905 198.64C68.7905 198.704 68.7212 198.795 68.5825 198.912C68.4545 199.019 68.3052 199.099 68.1345 199.152C67.9745 199.205 67.8252 199.2 67.6865 199.136C67.5585 199.072 67.4945 198.896 67.4945 198.608C67.4945 197.936 67.3612 197.413 67.0945 197.04C66.8278 196.667 66.4225 196.48 65.8785 196.48C65.6758 196.48 65.4678 196.523 65.2545 196.608C65.0412 196.693 64.8492 196.827 64.6785 197.008C64.5078 197.189 64.3692 197.419 64.2625 197.696C64.1558 197.973 64.1025 198.304 64.1025 198.688ZM71.9233 198.96C71.9233 199.579 72.0299 200.16 72.2433 200.704C72.4673 201.248 72.7553 201.728 73.1073 202.144C73.4593 202.549 73.8486 202.875 74.2753 203.12C74.7126 203.355 75.1446 203.472 75.5713 203.472C76.2433 203.472 76.8086 203.307 77.2673 202.976C77.7259 202.635 78.0353 202.128 78.1953 201.456H78.8513C78.7126 201.84 78.5153 202.192 78.2593 202.512C78.0139 202.821 77.7206 203.093 77.3793 203.328C77.0486 203.552 76.6859 203.728 76.2913 203.856C75.8966 203.984 75.4859 204.048 75.0593 204.048C74.5046 204.048 73.9819 203.941 73.4913 203.728C73.0006 203.515 72.5686 203.227 72.1953 202.864C71.8326 202.491 71.5446 202.059 71.3313 201.568C71.1179 201.077 71.0113 200.555 71.0113 200C71.0113 199.445 71.1179 198.923 71.3313 198.432C71.5446 197.941 71.8326 197.515 72.1953 197.152C72.5686 196.779 73.0006 196.485 73.4913 196.272C73.9819 196.059 74.5046 195.952 75.0593 195.952C75.5926 195.952 76.0779 196.021 76.5153 196.16C76.9526 196.299 77.3313 196.491 77.6513 196.736C77.9819 196.971 78.2486 197.253 78.4513 197.584C78.6646 197.915 78.8086 198.272 78.8833 198.656C78.8833 198.667 78.8033 198.672 78.6433 198.672C78.4833 198.672 78.3126 198.672 78.1313 198.672C77.9073 198.672 77.6513 198.667 77.3633 198.656C77.3099 198.315 77.1926 198.011 77.0113 197.744C76.8406 197.467 76.6326 197.227 76.3873 197.024C76.1419 196.821 75.8646 196.667 75.5553 196.56C75.2459 196.453 74.9313 196.4 74.6113 196.4C74.2273 196.4 73.8699 196.469 73.5393 196.608C73.2193 196.736 72.9366 196.917 72.6913 197.152C72.4566 197.387 72.2699 197.659 72.1313 197.968C71.9926 198.277 71.9233 198.608 71.9233 198.96ZM71.6353 198.656V198.32H78.6593L78.8833 198.656H71.6353ZM85.2436 207.776V196H86.5076V207.504V207.776H85.2436ZM84.0756 196.288L83.9956 196H86.5076V196.944H85.2436C85.2436 196.635 85.185 196.421 85.0676 196.304C84.9503 196.187 84.785 196.128 84.5716 196.128C84.4756 196.128 84.3903 196.144 84.3156 196.176C84.241 196.197 84.161 196.235 84.0756 196.288ZM83.9956 207.776L84.0756 207.488C84.161 207.541 84.241 207.579 84.3156 207.6C84.3903 207.632 84.4756 207.648 84.5716 207.648C84.6676 207.648 84.7583 207.632 84.8436 207.6C84.929 207.568 85.0036 207.509 85.0676 207.424C85.121 207.36 85.1636 207.28 85.1956 207.184C85.2276 207.088 85.2436 206.971 85.2436 206.832C85.2436 206.683 85.3023 206.619 85.4196 206.64C85.5476 206.661 85.697 206.699 85.8676 206.752C86.049 206.699 86.1983 206.661 86.3156 206.64C86.4436 206.619 86.5076 206.683 86.5076 206.832C86.5076 207.131 86.5716 207.339 86.6996 207.456C86.8383 207.584 86.9983 207.648 87.1796 207.648C87.2756 207.648 87.361 207.632 87.4356 207.6C87.5103 207.579 87.5903 207.541 87.6756 207.488L87.7556 207.776H83.9956ZM89.4356 195.952C90.705 195.952 91.6276 196.309 92.2036 197.024C92.7903 197.739 93.0836 198.731 93.0836 200C93.0836 201.269 92.7583 202.261 92.1076 202.976C91.4676 203.691 90.5663 204.048 89.4036 204.048C88.8596 204.048 88.385 203.952 87.9796 203.76C87.585 203.557 87.2543 203.28 86.9876 202.928C86.7316 202.576 86.5396 202.155 86.4116 201.664C86.2943 201.163 86.2356 200.608 86.2356 200C86.2356 199.424 86.2996 198.891 86.4276 198.4C86.5663 197.899 86.7636 197.467 87.0196 197.104C87.2863 196.741 87.617 196.459 88.0116 196.256C88.417 196.053 88.8916 195.952 89.4356 195.952ZM89.2596 196.24C88.8116 196.24 88.417 196.336 88.0756 196.528C87.7343 196.72 87.4463 196.987 87.2116 197.328C86.9876 197.659 86.8116 198.053 86.6836 198.512C86.5663 198.971 86.5076 199.467 86.5076 200C86.5076 200.629 86.577 201.179 86.7156 201.648C86.8543 202.117 87.041 202.512 87.2756 202.832C87.521 203.141 87.8036 203.376 88.1236 203.536C88.4543 203.685 88.8116 203.76 89.1956 203.76C89.6116 203.76 89.9743 203.653 90.2836 203.44C90.593 203.227 90.8436 202.944 91.0356 202.592C91.2383 202.24 91.3876 201.84 91.4836 201.392C91.5903 200.944 91.649 200.48 91.6596 200C91.6703 199.499 91.6276 199.024 91.5316 198.576C91.4463 198.117 91.3076 197.717 91.1156 197.376C90.9236 197.024 90.673 196.747 90.3636 196.544C90.0543 196.341 89.6863 196.24 89.2596 196.24ZM94.0425 200C94.0425 199.445 94.1492 198.923 94.3625 198.432C94.5758 197.941 94.8638 197.515 95.2265 197.152C95.5998 196.779 96.0318 196.485 96.5225 196.272C97.0132 196.059 97.5358 195.952 98.0905 195.952C98.6452 195.952 99.1678 196.059 99.6585 196.272C100.16 196.485 100.592 196.779 100.955 197.152C101.328 197.515 101.621 197.941 101.835 198.432C102.048 198.923 102.155 199.445 102.155 200C102.155 200.555 102.048 201.077 101.835 201.568C101.621 202.059 101.328 202.491 100.955 202.864C100.592 203.227 100.16 203.515 99.6585 203.728C99.1678 203.941 98.6452 204.048 98.0905 204.048C97.5358 204.048 97.0132 203.941 96.5225 203.728C96.0318 203.515 95.5998 203.227 95.2265 202.864C94.8638 202.491 94.5758 202.059 94.3625 201.568C94.1492 201.077 94.0425 200.555 94.0425 200ZM95.8665 201.456C96.1652 201.893 96.4905 202.272 96.8425 202.592C97.2052 202.901 97.5785 203.136 97.9625 203.296C98.3465 203.445 98.7305 203.509 99.1145 203.488C99.5092 203.456 99.8825 203.323 100.235 203.088C100.587 202.853 100.843 202.565 101.003 202.224C101.163 201.872 101.237 201.493 101.227 201.088C101.227 200.683 101.147 200.256 100.987 199.808C100.827 199.36 100.597 198.912 100.299 198.464C99.9998 198.027 99.6745 197.653 99.3225 197.344C98.9705 197.035 98.6078 196.811 98.2345 196.672C97.8612 196.523 97.4825 196.464 97.0985 196.496C96.7252 196.517 96.3625 196.645 96.0105 196.88C95.6585 197.115 95.3918 197.408 95.2105 197.76C95.0398 198.101 94.9545 198.475 94.9545 198.88C94.9545 199.275 95.0292 199.696 95.1785 200.144C95.3385 200.581 95.5678 201.019 95.8665 201.456ZM104.897 203.6C105.27 203.621 105.633 203.589 105.985 203.504C106.347 203.419 106.635 203.253 106.849 203.008C107.009 202.827 107.11 202.64 107.153 202.448C107.195 202.245 107.195 202.048 107.153 201.856C107.121 201.664 107.046 201.483 106.929 201.312C106.811 201.131 106.667 200.981 106.497 200.864C106.326 200.747 106.118 200.629 105.873 200.512C105.627 200.384 105.377 200.251 105.121 200.112C104.875 199.973 104.635 199.829 104.401 199.68C104.177 199.531 104.001 199.371 103.873 199.2C103.617 198.869 103.478 198.507 103.457 198.112C103.446 197.707 103.521 197.333 103.681 196.992C103.851 196.64 104.097 196.347 104.417 196.112C104.747 195.877 105.121 195.76 105.537 195.76C105.793 195.76 106.017 195.792 106.209 195.856C106.411 195.92 106.587 195.989 106.737 196.064C106.897 196.16 107.041 196.267 107.169 196.384L106.625 198.752L106.321 198.624C106.363 198.581 106.401 198.517 106.433 198.432C106.475 198.347 106.513 198.256 106.545 198.16C106.577 198.064 106.603 197.973 106.625 197.888C106.646 197.792 106.662 197.717 106.673 197.664C106.715 197.419 106.71 197.205 106.657 197.024C106.603 196.832 106.518 196.677 106.401 196.56C106.294 196.443 106.161 196.352 106.001 196.288C105.841 196.224 105.675 196.192 105.505 196.192C105.227 196.181 104.95 196.235 104.673 196.352C104.395 196.469 104.203 196.704 104.097 197.056C103.958 197.536 104.001 197.925 104.225 198.224C104.449 198.512 104.747 198.757 105.121 198.96C105.505 199.163 105.899 199.333 106.305 199.472C106.721 199.611 107.041 199.771 107.265 199.952C107.457 200.101 107.611 200.299 107.729 200.544C107.846 200.779 107.905 201.04 107.905 201.328C107.915 201.616 107.862 201.925 107.745 202.256C107.627 202.576 107.425 202.891 107.137 203.2C106.881 203.477 106.561 203.696 106.177 203.856C105.793 204.005 105.355 204.08 104.865 204.08C104.566 204.08 104.31 204.053 104.097 204C103.883 203.957 103.702 203.909 103.553 203.856C103.382 203.792 103.238 203.717 103.121 203.632L103.665 201.344L103.985 201.504C103.942 201.547 103.899 201.611 103.857 201.696C103.814 201.781 103.771 201.872 103.729 201.968C103.697 202.064 103.67 202.155 103.649 202.24C103.627 202.325 103.611 202.395 103.601 202.448C103.558 202.661 103.569 202.843 103.633 202.992C103.697 203.131 103.793 203.243 103.921 203.328C104.049 203.413 104.198 203.477 104.369 203.52C104.55 203.563 104.726 203.589 104.897 203.6ZM110.662 203.6C111.036 203.621 111.398 203.589 111.75 203.504C112.113 203.419 112.401 203.253 112.614 203.008C112.774 202.827 112.876 202.64 112.918 202.448C112.961 202.245 112.961 202.048 112.918 201.856C112.886 201.664 112.812 201.483 112.694 201.312C112.577 201.131 112.433 200.981 112.262 200.864C112.092 200.747 111.884 200.629 111.638 200.512C111.393 200.384 111.142 200.251 110.886 200.112C110.641 199.973 110.401 199.829 110.166 199.68C109.942 199.531 109.766 199.371 109.638 199.2C109.382 198.869 109.244 198.507 109.222 198.112C109.212 197.707 109.286 197.333 109.446 196.992C109.617 196.64 109.862 196.347 110.182 196.112C110.513 195.877 110.886 195.76 111.302 195.76C111.558 195.76 111.782 195.792 111.974 195.856C112.177 195.92 112.353 195.989 112.502 196.064C112.662 196.16 112.806 196.267 112.934 196.384L112.39 198.752L112.086 198.624C112.129 198.581 112.166 198.517 112.198 198.432C112.241 198.347 112.278 198.256 112.31 198.16C112.342 198.064 112.369 197.973 112.39 197.888C112.412 197.792 112.428 197.717 112.438 197.664C112.481 197.419 112.476 197.205 112.422 197.024C112.369 196.832 112.284 196.677 112.166 196.56C112.06 196.443 111.926 196.352 111.766 196.288C111.606 196.224 111.441 196.192 111.27 196.192C110.993 196.181 110.716 196.235 110.438 196.352C110.161 196.469 109.969 196.704 109.862 197.056C109.724 197.536 109.766 197.925 109.99 198.224C110.214 198.512 110.513 198.757 110.886 198.96C111.27 199.163 111.665 199.333 112.07 199.472C112.486 199.611 112.806 199.771 113.03 199.952C113.222 200.101 113.377 200.299 113.494 200.544C113.612 200.779 113.67 201.04 113.67 201.328C113.681 201.616 113.628 201.925 113.51 202.256C113.393 202.576 113.19 202.891 112.902 203.2C112.646 203.477 112.326 203.696 111.942 203.856C111.558 204.005 111.121 204.08 110.63 204.08C110.332 204.08 110.076 204.053 109.862 204C109.649 203.957 109.468 203.909 109.318 203.856C109.148 203.792 109.004 203.717 108.886 203.632L109.43 201.344L109.75 201.504C109.708 201.547 109.665 201.611 109.622 201.696C109.58 201.781 109.537 201.872 109.494 201.968C109.462 202.064 109.436 202.155 109.414 202.24C109.393 202.325 109.377 202.395 109.366 202.448C109.324 202.661 109.334 202.843 109.398 202.992C109.462 203.131 109.558 203.243 109.686 203.328C109.814 203.413 109.964 203.477 110.134 203.52C110.316 203.563 110.492 203.589 110.662 203.6ZM114.652 196H118.412L118.332 196.288C118.247 196.235 118.167 196.197 118.092 196.176C118.017 196.144 117.932 196.128 117.836 196.128C117.623 196.128 117.457 196.203 117.34 196.352C117.223 196.491 117.164 196.688 117.164 196.944V203.056C117.164 203.355 117.228 203.568 117.356 203.696C117.495 203.813 117.655 203.872 117.836 203.872C117.932 203.872 118.017 203.861 118.092 203.84C118.167 203.808 118.247 203.765 118.332 203.712L118.412 204H114.652L114.732 203.712C114.817 203.765 114.897 203.808 114.972 203.84C115.047 203.861 115.132 203.872 115.228 203.872C115.324 203.872 115.415 203.856 115.5 203.824C115.585 203.792 115.66 203.733 115.724 203.648C115.777 203.584 115.82 203.504 115.852 203.408C115.884 203.312 115.9 203.195 115.9 203.056V197.168V196.944C115.9 196.688 115.841 196.491 115.724 196.352C115.607 196.203 115.441 196.128 115.228 196.128C115.132 196.128 115.047 196.144 114.972 196.176C114.897 196.197 114.817 196.235 114.732 196.288L114.652 196ZM115.628 194.928C115.628 194.683 115.719 194.469 115.9 194.288C116.081 194.107 116.295 194.016 116.54 194.016C116.785 194.016 116.999 194.107 117.18 194.288C117.361 194.469 117.452 194.683 117.452 194.928C117.452 195.173 117.361 195.387 117.18 195.568C116.999 195.749 116.785 195.84 116.54 195.84C116.295 195.84 116.081 195.749 115.9 195.568C115.719 195.387 115.628 195.173 115.628 194.928ZM120.635 192.24H121.899V192.512V204.016H120.635V192.24ZM119.467 203.728C119.552 203.781 119.632 203.824 119.707 203.856C119.781 203.877 119.867 203.888 119.963 203.888C120.176 203.888 120.341 203.829 120.459 203.712C120.576 203.595 120.635 203.381 120.635 203.072H121.899V204.016H119.387L119.467 203.728ZM124.827 204.064C124.283 204.064 123.808 203.963 123.403 203.76C123.008 203.557 122.677 203.275 122.411 202.912C122.155 202.549 121.957 202.123 121.819 201.632C121.691 201.131 121.627 200.592 121.627 200.016C121.627 199.408 121.685 198.859 121.803 198.368C121.931 197.867 122.123 197.44 122.379 197.088C122.645 196.736 122.976 196.464 123.371 196.272C123.776 196.069 124.251 195.968 124.795 195.968C125.957 195.968 126.859 196.325 127.499 197.04C128.149 197.755 128.475 198.747 128.475 200.016C128.475 201.275 128.181 202.267 127.595 202.992C127.019 203.707 126.096 204.064 124.827 204.064ZM124.651 203.776C125.077 203.776 125.445 203.675 125.755 203.472C126.064 203.269 126.315 202.997 126.507 202.656C126.699 202.304 126.837 201.904 126.923 201.456C127.019 200.997 127.061 200.517 127.051 200.016C127.04 199.536 126.981 199.072 126.875 198.624C126.779 198.176 126.629 197.776 126.427 197.424C126.235 197.072 125.984 196.789 125.675 196.576C125.365 196.363 125.003 196.256 124.587 196.256C124.203 196.256 123.845 196.336 123.515 196.496C123.195 196.645 122.912 196.875 122.667 197.184C122.432 197.493 122.245 197.888 122.107 198.368C121.968 198.837 121.899 199.387 121.899 200.016C121.899 200.549 121.957 201.045 122.075 201.504C122.203 201.963 122.379 202.363 122.603 202.704C122.837 203.035 123.125 203.296 123.467 203.488C123.808 203.68 124.203 203.776 124.651 203.776ZM121.899 191.696V192.24C121.835 192.304 121.744 192.395 121.627 192.512C121.509 192.619 121.387 192.736 121.259 192.864C121.141 192.992 121.024 193.12 120.907 193.248C120.789 193.365 120.699 193.467 120.635 193.552C120.635 193.221 120.565 192.976 120.427 192.816C120.288 192.645 120.112 192.56 119.899 192.56C119.781 192.56 119.685 192.576 119.611 192.608C119.547 192.629 119.488 192.651 119.435 192.672L119.371 192.416C119.659 192.416 120.027 192.368 120.475 192.272C120.933 192.176 121.408 191.984 121.899 191.696ZM129.433 196H133.193L133.113 196.288C133.028 196.235 132.948 196.197 132.873 196.176C132.798 196.144 132.713 196.128 132.617 196.128C132.404 196.128 132.238 196.203 132.121 196.352C132.004 196.491 131.945 196.688 131.945 196.944V203.056C131.945 203.355 132.009 203.568 132.137 203.696C132.276 203.813 132.436 203.872 132.617 203.872C132.713 203.872 132.798 203.861 132.873 203.84C132.948 203.808 133.028 203.765 133.113 203.712L133.193 204H129.433L129.513 203.712C129.598 203.765 129.678 203.808 129.753 203.84C129.828 203.861 129.913 203.872 130.009 203.872C130.105 203.872 130.196 203.856 130.281 203.824C130.366 203.792 130.441 203.733 130.505 203.648C130.558 203.584 130.601 203.504 130.633 203.408C130.665 203.312 130.681 203.195 130.681 203.056V197.168V196.944C130.681 196.688 130.622 196.491 130.505 196.352C130.388 196.203 130.222 196.128 130.009 196.128C129.913 196.128 129.828 196.144 129.753 196.176C129.678 196.197 129.598 196.235 129.513 196.288L129.433 196ZM130.409 194.928C130.409 194.683 130.5 194.469 130.681 194.288C130.862 194.107 131.076 194.016 131.321 194.016C131.566 194.016 131.78 194.107 131.961 194.288C132.142 194.469 132.233 194.683 132.233 194.928C132.233 195.173 132.142 195.387 131.961 195.568C131.78 195.749 131.566 195.84 131.321 195.84C131.076 195.84 130.862 195.749 130.681 195.568C130.5 195.387 130.409 195.173 130.409 194.928ZM135.432 204.016V203.904V193.36L136.712 192.976V203.728V204.016H135.432ZM134.152 204.016L134.232 203.712C134.317 203.765 134.397 203.808 134.472 203.84C134.547 203.872 134.637 203.888 134.744 203.888C134.851 203.888 134.941 203.872 135.016 203.84C135.091 203.797 135.165 203.733 135.24 203.648C135.293 203.573 135.336 203.493 135.368 203.408C135.411 203.312 135.432 203.189 135.432 203.04C135.432 202.891 135.491 202.827 135.608 202.848C135.725 202.869 135.875 202.907 136.056 202.96C136.237 202.907 136.392 202.869 136.52 202.848C136.648 202.827 136.712 202.891 136.712 203.04C136.712 203.307 136.771 203.515 136.888 203.664C137.016 203.813 137.187 203.888 137.4 203.888C137.496 203.888 137.581 203.872 137.656 203.84C137.741 203.808 137.827 203.765 137.912 203.712L137.992 204.016H134.152ZM136.712 192.8V193.344C136.648 193.408 136.557 193.499 136.44 193.616C136.323 193.723 136.2 193.84 136.072 193.968C135.944 194.096 135.821 194.224 135.704 194.352C135.587 194.469 135.496 194.571 135.432 194.656C135.432 194.325 135.363 194.08 135.224 193.92C135.085 193.749 134.909 193.664 134.696 193.664C134.579 193.664 134.483 193.68 134.408 193.712C134.344 193.733 134.285 193.755 134.232 193.776L134.168 193.52C134.456 193.52 134.829 193.472 135.288 193.376C135.747 193.28 136.221 193.088 136.712 192.8ZM138.949 196H142.709L142.629 196.288C142.543 196.235 142.463 196.197 142.389 196.176C142.314 196.144 142.229 196.128 142.133 196.128C141.919 196.128 141.754 196.203 141.637 196.352C141.519 196.491 141.461 196.688 141.461 196.944V203.056C141.461 203.355 141.525 203.568 141.653 203.696C141.791 203.813 141.951 203.872 142.133 203.872C142.229 203.872 142.314 203.861 142.389 203.84C142.463 203.808 142.543 203.765 142.629 203.712L142.709 204H138.949L139.029 203.712C139.114 203.765 139.194 203.808 139.269 203.84C139.343 203.861 139.429 203.872 139.525 203.872C139.621 203.872 139.711 203.856 139.797 203.824C139.882 203.792 139.957 203.733 140.021 203.648C140.074 203.584 140.117 203.504 140.149 203.408C140.181 203.312 140.197 203.195 140.197 203.056V197.168V196.944C140.197 196.688 140.138 196.491 140.021 196.352C139.903 196.203 139.738 196.128 139.525 196.128C139.429 196.128 139.343 196.144 139.269 196.176C139.194 196.197 139.114 196.235 139.029 196.288L138.949 196ZM139.925 194.928C139.925 194.683 140.015 194.469 140.197 194.288C140.378 194.107 140.591 194.016 140.837 194.016C141.082 194.016 141.295 194.107 141.477 194.288C141.658 194.469 141.749 194.683 141.749 194.928C141.749 195.173 141.658 195.387 141.477 195.568C141.295 195.749 141.082 195.84 140.837 195.84C140.591 195.84 140.378 195.749 140.197 195.568C140.015 195.387 139.925 195.173 139.925 194.928ZM143.732 197.056V196.72H147.411V197.056H143.732ZM147.364 204C147.065 204.011 146.772 203.968 146.484 203.872C146.196 203.776 145.934 203.627 145.7 203.424C145.476 203.221 145.289 202.965 145.14 202.656C145.001 202.336 144.932 201.963 144.932 201.536H146.212C146.19 202.123 146.324 202.608 146.612 202.992C146.9 203.365 147.257 203.552 147.684 203.552C147.822 203.552 147.998 203.536 148.212 203.504C148.425 203.461 148.622 203.376 148.804 203.248C148.996 203.12 149.145 202.933 149.252 202.688C149.358 202.432 149.374 202.096 149.3 201.68C149.289 201.605 149.268 201.504 149.236 201.376C149.204 201.237 149.161 201.104 149.108 200.976C149.065 200.837 149.017 200.709 148.964 200.592C148.91 200.464 148.852 200.368 148.788 200.304L149.14 200.144L150.02 204H147.364ZM144.932 201.536V193.872L146.212 192.8V201.536H144.932ZM146.212 192.8V193.344C146.148 193.408 146.057 193.499 145.94 193.616C145.822 193.723 145.7 193.84 145.572 193.968C145.444 194.096 145.321 194.224 145.204 194.352C145.086 194.469 144.996 194.571 144.932 194.656C144.932 194.325 144.862 194.08 144.724 193.92C144.585 193.749 144.409 193.664 144.196 193.664C144.078 193.664 143.982 193.68 143.908 193.712C143.844 193.733 143.785 193.755 143.732 193.776L143.668 193.52C144.073 193.52 144.505 193.456 144.964 193.328C145.422 193.2 145.838 193.024 146.212 192.8ZM150.98 196H154.74L154.66 196.288C154.575 196.235 154.495 196.197 154.42 196.176C154.345 196.144 154.26 196.128 154.164 196.128C153.951 196.128 153.785 196.203 153.668 196.352C153.551 196.491 153.492 196.688 153.492 196.944V203.056C153.492 203.355 153.556 203.568 153.684 203.696C153.823 203.813 153.983 203.872 154.164 203.872C154.26 203.872 154.345 203.861 154.42 203.84C154.495 203.808 154.575 203.765 154.66 203.712L154.74 204H150.98L151.06 203.712C151.145 203.765 151.225 203.808 151.3 203.84C151.375 203.861 151.46 203.872 151.556 203.872C151.652 203.872 151.743 203.856 151.828 203.824C151.913 203.792 151.988 203.733 152.052 203.648C152.105 203.584 152.148 203.504 152.18 203.408C152.212 203.312 152.228 203.195 152.228 203.056V197.168V196.944C152.228 196.688 152.169 196.491 152.052 196.352C151.935 196.203 151.769 196.128 151.556 196.128C151.46 196.128 151.375 196.144 151.3 196.176C151.225 196.197 151.145 196.235 151.06 196.288L150.98 196ZM151.956 194.928C151.956 194.683 152.047 194.469 152.228 194.288C152.409 194.107 152.623 194.016 152.868 194.016C153.113 194.016 153.327 194.107 153.508 194.288C153.689 194.469 153.78 194.683 153.78 194.928C153.78 195.173 153.689 195.387 153.508 195.568C153.327 195.749 153.113 195.84 152.868 195.84C152.623 195.84 152.409 195.749 152.228 195.568C152.047 195.387 151.956 195.173 151.956 194.928ZM156.611 198.96C156.611 199.579 156.717 200.16 156.931 200.704C157.155 201.248 157.443 201.728 157.795 202.144C158.147 202.549 158.536 202.875 158.963 203.12C159.4 203.355 159.832 203.472 160.259 203.472C160.931 203.472 161.496 203.307 161.955 202.976C162.413 202.635 162.723 202.128 162.883 201.456H163.539C163.4 201.84 163.203 202.192 162.947 202.512C162.701 202.821 162.408 203.093 162.067 203.328C161.736 203.552 161.373 203.728 160.979 203.856C160.584 203.984 160.173 204.048 159.747 204.048C159.192 204.048 158.669 203.941 158.179 203.728C157.688 203.515 157.256 203.227 156.883 202.864C156.52 202.491 156.232 202.059 156.019 201.568C155.805 201.077 155.699 200.555 155.699 200C155.699 199.445 155.805 198.923 156.019 198.432C156.232 197.941 156.52 197.515 156.883 197.152C157.256 196.779 157.688 196.485 158.179 196.272C158.669 196.059 159.192 195.952 159.747 195.952C160.28 195.952 160.765 196.021 161.203 196.16C161.64 196.299 162.019 196.491 162.339 196.736C162.669 196.971 162.936 197.253 163.139 197.584C163.352 197.915 163.496 198.272 163.571 198.656C163.571 198.667 163.491 198.672 163.331 198.672C163.171 198.672 163 198.672 162.819 198.672C162.595 198.672 162.339 198.667 162.051 198.656C161.997 198.315 161.88 198.011 161.699 197.744C161.528 197.467 161.32 197.227 161.075 197.024C160.829 196.821 160.552 196.667 160.243 196.56C159.933 196.453 159.619 196.4 159.299 196.4C158.915 196.4 158.557 196.469 158.227 196.608C157.907 196.736 157.624 196.917 157.379 197.152C157.144 197.387 156.957 197.659 156.819 197.968C156.68 198.277 156.611 198.608 156.611 198.96ZM156.323 198.656V198.32H163.347L163.571 198.656H156.323ZM166.303 203.6C166.676 203.621 167.039 203.589 167.391 203.504C167.754 203.419 168.042 203.253 168.255 203.008C168.415 202.827 168.516 202.64 168.559 202.448C168.602 202.245 168.602 202.048 168.559 201.856C168.527 201.664 168.452 201.483 168.335 201.312C168.218 201.131 168.074 200.981 167.903 200.864C167.732 200.747 167.524 200.629 167.279 200.512C167.034 200.384 166.783 200.251 166.527 200.112C166.282 199.973 166.042 199.829 165.807 199.68C165.583 199.531 165.407 199.371 165.279 199.2C165.023 198.869 164.884 198.507 164.863 198.112C164.852 197.707 164.927 197.333 165.087 196.992C165.258 196.64 165.503 196.347 165.823 196.112C166.154 195.877 166.527 195.76 166.943 195.76C167.199 195.76 167.423 195.792 167.615 195.856C167.818 195.92 167.994 195.989 168.143 196.064C168.303 196.16 168.447 196.267 168.575 196.384L168.031 198.752L167.727 198.624C167.77 198.581 167.807 198.517 167.839 198.432C167.882 198.347 167.919 198.256 167.951 198.16C167.983 198.064 168.01 197.973 168.031 197.888C168.052 197.792 168.068 197.717 168.079 197.664C168.122 197.419 168.116 197.205 168.063 197.024C168.01 196.832 167.924 196.677 167.807 196.56C167.7 196.443 167.567 196.352 167.407 196.288C167.247 196.224 167.082 196.192 166.911 196.192C166.634 196.181 166.356 196.235 166.079 196.352C165.802 196.469 165.61 196.704 165.503 197.056C165.364 197.536 165.407 197.925 165.631 198.224C165.855 198.512 166.154 198.757 166.527 198.96C166.911 199.163 167.306 199.333 167.711 199.472C168.127 199.611 168.447 199.771 168.671 199.952C168.863 200.101 169.018 200.299 169.135 200.544C169.252 200.779 169.311 201.04 169.311 201.328C169.322 201.616 169.268 201.925 169.151 202.256C169.034 202.576 168.831 202.891 168.543 203.2C168.287 203.477 167.967 203.696 167.583 203.856C167.199 204.005 166.762 204.08 166.271 204.08C165.972 204.08 165.716 204.053 165.503 204C165.29 203.957 165.108 203.909 164.959 203.856C164.788 203.792 164.644 203.717 164.527 203.632L165.071 201.344L165.391 201.504C165.348 201.547 165.306 201.611 165.263 201.696C165.22 201.781 165.178 201.872 165.135 201.968C165.103 202.064 165.076 202.155 165.055 202.24C165.034 202.325 165.018 202.395 165.007 202.448C164.964 202.661 164.975 202.843 165.039 202.992C165.103 203.131 165.199 203.243 165.327 203.328C165.455 203.413 165.604 203.477 165.775 203.52C165.956 203.563 166.132 203.589 166.303 203.6Z" fill="#434822"/>
</g>
<defs>
<clipPath id="clip0_274_7203">
<rect width="120" height="120" fill="white" transform="translate(29.5)"/>
</clipPath>
<clipPath id="clip1_274_7203">
<rect width="179" height="74" fill="white" transform="translate(0 135)"/>
</clipPath>
</defs>
</svg>
