<svg width="179" height="188" viewBox="0 0 179 188" fill="none" xmlns="http://www.w3.org/2000/svg">
<g clip-path="url(#clip0_274_7195)">
<path d="M148.746 101.957C147.942 102.459 147.189 102.835 146.486 103.086C145.784 103.337 144.981 103.462 144.079 103.462C142.372 103.462 140.893 102.887 139.638 101.731C138.384 100.576 137.757 98.596 137.757 95.7854V8.54578C137.757 6.13901 138.308 4.25774 139.413 2.90197C140.516 1.54745 142.071 0.870192 144.078 0.870192C144.98 0.870192 145.783 0.99561 146.485 1.24645C147.187 1.49728 147.941 1.87354 148.745 2.37521L149.498 -0.509408L137.757 -0.43165V-0.509408L131.796 -0.396533L129.769 -0.509408L90.0468 88.1688L54.053 9.59804L49.8402 -0.634827H44.4472H41.3118H29.5225L30.275 2.22471C31.0764 1.73808 31.854 1.35054 32.6065 1.05832C33.359 0.766094 34.1855 0.619355 35.091 0.619355C37.0977 0.619355 38.4008 1.37186 39.0028 2.87688C39.5584 4.26526 40.3272 5.99603 41.3118 8.06543V95.9384C41.3118 97.244 41.1613 98.3465 40.8615 99.2482C40.5593 100.151 40.1604 100.904 39.6588 101.506C38.9552 102.31 38.2277 102.862 37.4752 103.161C36.7227 103.464 35.8937 103.612 34.9919 103.612C34.0889 103.612 33.285 103.504 32.5839 103.287C31.8803 103.07 31.1278 102.742 30.3264 102.307L29.5739 104.966H41.3118H41.4372H44.3218H44.4472H56.2077L55.4552 102.307C54.65 102.742 53.895 103.07 53.1914 103.287C52.4878 103.504 51.6839 103.613 50.7808 103.613C49.8753 103.613 49.0451 103.464 48.2925 103.163C47.5375 102.863 46.8088 102.31 46.1053 101.507C45.6036 100.905 45.2022 100.152 44.9 99.2495C44.5977 98.3477 44.4472 97.2453 44.4472 95.9397V14.9722L85.316 105.375C85.3938 105.113 85.607 104.543 85.9606 103.664C86.5627 102.159 87.2637 100.401 88.0677 98.3941C88.8515 96.1441 89.826 93.5593 90.9887 90.6408L125.844 13.3305V95.7867C125.844 97.0923 125.693 98.1947 125.393 99.099C125.091 100.002 124.692 100.754 124.194 101.354C123.592 102.158 122.891 102.71 122.091 103.012C121.291 103.314 120.441 103.462 119.54 103.462C118.64 103.462 117.839 103.354 117.14 103.137C116.439 102.92 115.687 102.593 114.888 102.158L114.138 104.843L125.845 104.802V104.843L131.793 104.78L149.5 104.718L148.746 101.957Z" fill="white"/>
<path d="M99.2166 119.433C98.2128 119.433 97.3582 119.284 96.6555 118.983C95.9541 118.684 95.2012 118.283 94.3993 117.783L93.6464 120.686H129.785L129.033 117.831C128.228 118.317 127.45 118.705 126.697 118.997C125.944 119.289 125.115 119.433 124.213 119.433C122.205 119.433 120.825 118.706 120.072 117.255C119.319 115.804 118.541 113.878 117.739 111.475L86.7198 7.88574C86.0158 10.188 84.8865 12.265 83.3293 14.1166C81.8737 15.848 80.2223 17.2502 78.3739 18.3243C78.256 18.3932 78.1217 18.4282 77.985 18.4282L52.4555 113.09C51.7503 115.062 50.9748 116.529 50.1278 117.483C49.1239 118.616 47.7687 119.181 46.0634 119.181C45.16 119.181 44.3556 119.07 43.6542 118.843C42.9502 118.618 42.1973 118.28 41.3955 117.83L40.6426 120.559L48.622 120.434L54.1947 120.559L54.2185 120.464L66.241 120.559L65.4881 117.68C65.0866 117.879 64.4843 118.181 63.6799 118.581C62.8756 118.982 61.9232 119.182 60.8189 119.182C59.1136 119.182 57.7584 118.594 56.7545 117.416C55.7507 116.238 55.649 114.374 56.4521 111.823L56.4107 111.825L56.7545 110.471L56.7345 110.479L78.7906 21.2601L105.24 110.425C106.044 113.328 105.842 115.555 104.637 117.108C103.433 118.658 101.625 119.433 99.2166 119.433Z" fill="white"/>
</g>
<g clip-path="url(#clip1_274_7195)">
<path d="M9.3175 140.352L10.6615 143.616L22.4695 169.392C22.0855 170.352 21.7655 171.2 21.5095 171.936C21.2535 172.576 21.0295 173.136 20.8375 173.616C20.6455 174.096 20.5815 174.288 20.6455 174.192L6.6775 143.28C6.3255 142.544 6.0535 141.936 5.8615 141.456C5.6695 140.976 5.2535 140.736 4.6135 140.736C4.3255 140.736 4.0535 140.784 3.7975 140.88C3.5735 140.976 3.3335 141.104 3.0775 141.264L2.8375 140.352H9.3175ZM34.8055 140.4H35.5255L21.9415 170.544L21.2695 170.592L34.8055 140.4ZM33.5575 174V143.904L35.2375 140.4H37.3495V173.184V174H33.5575ZM33.5575 143.232L37.3495 140.4V143.232C37.3495 143.36 37.1415 143.456 36.7255 143.52C36.3415 143.584 35.9095 143.616 35.4295 143.616C34.9815 143.616 34.5495 143.584 34.1335 143.52C33.7495 143.456 33.5575 143.36 33.5575 143.232ZM29.8135 174L30.0535 173.136C30.3095 173.296 30.5495 173.424 30.7735 173.52C30.9975 173.584 31.2535 173.616 31.5415 173.616C31.8295 173.616 32.1015 173.568 32.3575 173.472C32.6135 173.376 32.8375 173.2 33.0295 172.944C33.1895 172.752 33.3175 172.512 33.4135 172.224C33.5095 171.936 33.5575 171.584 33.5575 171.168C33.5575 170.72 33.7335 170.528 34.0855 170.592C34.4695 170.656 34.9175 170.768 35.4295 170.928C35.9735 170.768 36.4215 170.656 36.7735 170.592C37.1575 170.528 37.3495 170.72 37.3495 171.168C37.3495 172.064 37.5415 172.704 37.9255 173.088C38.3415 173.44 38.8215 173.616 39.3655 173.616C39.6535 173.616 39.9095 173.584 40.1335 173.52C40.3575 173.424 40.5975 173.296 40.8535 173.136L41.0935 174H29.8135ZM40.8535 141.264C40.5975 141.104 40.3575 140.992 40.1335 140.928C39.9095 140.832 39.6535 140.784 39.3655 140.784C38.7255 140.784 38.2295 141.008 37.8775 141.456C37.5255 141.872 37.3495 142.464 37.3495 143.232C37.3495 143.36 37.1415 143.456 36.7255 143.52C36.3415 143.584 35.9095 143.616 35.4295 143.616C34.9815 143.616 34.5495 143.584 34.1335 143.52C33.7495 143.456 33.5575 143.36 33.5575 143.232L35.0455 140.4H41.0935L40.8535 141.264ZM6.5815 140.352H7.5895V174.048H6.5815V140.352ZM2.8375 174.048L3.0775 173.184C3.3335 173.344 3.5735 173.472 3.7975 173.568C4.0215 173.632 4.2775 173.664 4.5655 173.664C4.8535 173.664 5.1095 173.616 5.3335 173.52C5.5895 173.424 5.8295 173.248 6.0535 172.992C6.2135 172.8 6.3415 172.56 6.4375 172.272C6.5335 171.984 6.5815 171.632 6.5815 171.216C6.5815 170.992 6.6295 170.864 6.7255 170.832C6.8215 170.8 6.9335 170.816 7.0615 170.88C7.1895 170.944 7.3495 171.04 7.5415 171.168V174.048H2.8375ZM11.3335 174.048H6.6295V171.168C6.8215 171.04 6.9815 170.944 7.1095 170.88C7.2375 170.816 7.3495 170.8 7.4455 170.832C7.5415 170.864 7.5895 170.992 7.5895 171.216C7.5895 171.632 7.6375 171.984 7.7335 172.272C7.8295 172.56 7.9575 172.8 8.1175 172.992C8.3415 173.248 8.5655 173.424 8.7895 173.52C9.0455 173.616 9.3175 173.664 9.6055 173.664C9.8935 173.664 10.1495 173.632 10.3735 173.568C10.5975 173.472 10.8375 173.344 11.0935 173.184L11.3335 174.048ZM62.8116 174.048L63.0516 173.136C63.3076 173.296 63.5476 173.424 63.7716 173.52C63.9956 173.616 64.2676 173.664 64.5876 173.664C65.3556 173.664 65.9316 173.424 66.3156 172.944C66.6996 172.432 66.7636 171.712 66.5076 170.784L57.8196 141.408C58.4596 141.056 59.0196 140.592 59.4996 140.016C60.0116 139.408 60.3796 138.736 60.6036 138L70.4916 171.12C70.7476 171.888 70.9876 172.512 71.2116 172.992C71.4676 173.44 71.9156 173.664 72.5556 173.664C72.8436 173.664 73.0996 173.616 73.3236 173.52C73.5796 173.424 73.8356 173.296 74.0916 173.136L74.3316 174.048H62.8116ZM45.9156 174L46.1556 173.136C46.4116 173.296 46.6516 173.424 46.8756 173.52C47.0996 173.584 47.3556 173.616 47.6436 173.616C48.1876 173.616 48.6196 173.44 48.9396 173.088C49.2596 172.704 49.5476 172.096 49.8036 171.264L51.0516 170.784L50.2356 174H48.4596H45.9156ZM50.3796 173.52H49.1796L57.8196 141.408H58.2996L50.3796 173.52ZM54.0756 174H49.0356L49.8036 171.264L50.9556 171.216C50.6996 172.048 50.7316 172.656 51.0516 173.04C51.3716 173.424 51.8036 173.616 52.3476 173.616C52.6996 173.616 53.0036 173.552 53.2596 173.424C53.5156 173.296 53.7076 173.2 53.8356 173.136L54.0756 174ZM52.6836 163.632V163.248L65.3076 162.624V163.632H52.6836ZM78.19 162C78.19 160.336 78.51 158.768 79.15 157.296C79.79 155.824 80.654 154.544 81.742 153.456C82.862 152.336 84.158 151.456 85.63 150.816C87.102 150.176 88.67 149.856 90.334 149.856C91.998 149.856 93.566 150.176 95.038 150.816C96.542 151.456 97.838 152.336 98.926 153.456C100.046 154.544 100.926 155.824 101.566 157.296C102.206 158.768 102.526 160.336 102.526 162C102.526 163.664 102.206 165.232 101.566 166.704C100.926 168.176 100.046 169.472 98.926 170.592C97.838 171.68 96.542 172.544 95.038 173.184C93.566 173.824 91.998 174.144 90.334 174.144C88.67 174.144 87.102 173.824 85.63 173.184C84.158 172.544 82.862 171.68 81.742 170.592C80.654 169.472 79.79 168.176 79.15 166.704C78.51 165.232 78.19 163.664 78.19 162ZM83.662 166.368C84.558 167.68 85.534 168.816 86.59 169.776C87.678 170.704 88.798 171.408 89.95 171.888C91.102 172.336 92.254 172.528 93.406 172.464C94.59 172.368 95.71 171.968 96.766 171.264C97.822 170.56 98.59 169.696 99.07 168.672C99.55 167.616 99.774 166.48 99.742 165.264C99.742 164.048 99.502 162.768 99.022 161.424C98.542 160.08 97.854 158.736 96.958 157.392C96.062 156.08 95.086 154.96 94.03 154.032C92.974 153.104 91.886 152.432 90.766 152.016C89.646 151.568 88.51 151.392 87.358 151.488C86.238 151.552 85.15 151.936 84.094 152.64C83.038 153.344 82.238 154.224 81.694 155.28C81.182 156.304 80.926 157.424 80.926 158.64C80.926 159.824 81.15 161.088 81.598 162.432C82.078 163.744 82.766 165.056 83.662 166.368ZM81.358 169.824L81.598 170.4C80.798 171.104 80.174 171.904 79.726 172.8C79.31 173.696 79.118 174.544 79.15 175.344C79.214 176.144 79.518 176.816 80.062 177.36C80.606 177.936 81.438 178.224 82.558 178.224C83.55 178.224 84.446 177.968 85.246 177.456C86.078 176.976 86.91 176.432 87.742 175.824C88.574 175.248 89.454 174.688 90.382 174.144C91.342 173.632 92.446 173.328 93.694 173.232C94.814 173.136 95.886 173.216 96.91 173.472C97.966 173.696 98.894 174.08 99.694 174.624C100.526 175.168 101.182 175.856 101.662 176.688C102.174 177.552 102.43 178.56 102.43 179.712C102.43 180.544 102.238 181.312 101.854 182.016C101.47 182.72 100.958 183.328 100.318 183.84C99.678 184.352 98.942 184.752 98.11 185.04C97.31 185.36 96.478 185.52 95.614 185.52C94.398 185.52 93.358 185.264 92.494 184.752C91.662 184.272 90.974 183.696 90.43 183.024C89.886 182.384 89.47 181.744 89.182 181.104C88.894 180.496 88.718 180.064 88.654 179.808H94.174C93.95 179.872 93.742 179.984 93.55 180.144C93.39 180.272 93.246 180.432 93.118 180.624C92.99 180.848 92.926 181.12 92.926 181.44C92.926 182.176 93.31 182.752 94.078 183.168C94.878 183.584 95.726 183.808 96.622 183.84C97.614 183.84 98.43 183.584 99.07 183.072C99.742 182.56 100.222 181.904 100.51 181.104C100.83 180.336 100.942 179.504 100.846 178.608C100.75 177.712 100.43 176.896 99.886 176.16C99.342 175.424 98.558 174.816 97.534 174.336C96.51 173.856 95.23 173.664 93.694 173.76C92.638 173.824 91.63 174.16 90.67 174.768C89.742 175.408 88.83 176.096 87.934 176.832C87.038 177.568 86.142 178.224 85.246 178.8C84.35 179.408 83.422 179.712 82.462 179.712C80.99 179.712 79.934 179.328 79.294 178.56C78.686 177.824 78.382 176.928 78.382 175.872C78.414 174.816 78.702 173.728 79.246 172.608C79.79 171.488 80.494 170.56 81.358 169.824ZM95.086 148.416C95.086 147.168 95.518 146.112 96.382 145.248C97.278 144.352 98.35 143.904 99.598 143.904C100.142 143.904 100.622 143.968 101.038 144.096C101.454 144.224 101.854 144.448 102.238 144.768V147.696C101.918 147.28 101.534 146.928 101.086 146.64C100.638 146.32 100.142 146.16 99.598 146.16C98.67 146.16 97.87 146.496 97.198 147.168C96.558 147.84 96.238 148.64 96.238 149.568C96.238 150.144 96.382 150.688 96.67 151.2C96.958 151.68 97.326 152.08 97.774 152.4C97.806 152.432 97.806 152.464 97.774 152.496C97.742 152.528 97.71 152.528 97.678 152.496C96.782 152.112 96.126 151.568 95.71 150.864C95.294 150.16 95.086 149.344 95.086 148.416ZM110.128 174V140.4H113.92V173.184V174H110.128ZM106.624 141.264L106.384 140.4H113.92V143.28C113.92 143.568 113.712 143.76 113.296 143.856C112.912 143.92 112.48 143.936 112 143.904C111.552 143.84 111.12 143.744 110.704 143.616C110.32 143.488 110.128 143.36 110.128 143.232C110.128 142.464 109.952 141.872 109.6 141.456C109.248 141.008 108.752 140.784 108.112 140.784C107.824 140.784 107.568 140.832 107.344 140.928C107.12 140.992 106.88 141.104 106.624 141.264ZM106.384 174L106.624 173.136C106.88 173.296 107.12 173.424 107.344 173.52C107.568 173.584 107.824 173.616 108.112 173.616C108.784 173.616 109.28 173.36 109.6 172.848C109.952 172.304 110.128 171.744 110.128 171.168C110.128 170.72 110.336 170.464 110.752 170.4C111.168 170.336 111.648 170.304 112.192 170.304C112.736 170.304 113.152 170.336 113.44 170.4C113.76 170.464 113.92 170.72 113.92 171.168C113.92 172.064 114.112 172.704 114.496 173.088C114.912 173.44 115.392 173.616 115.936 173.616C116.224 173.616 116.48 173.584 116.704 173.52C116.928 173.424 117.168 173.296 117.424 173.136L117.664 174H106.384ZM117.328 140.4L115.936 141.216C115.296 141.216 114.8 141.376 114.448 141.696C114.096 141.984 113.92 142.512 113.92 143.28C113.76 143.248 113.584 143.088 113.392 142.8C113.2 142.48 113.104 142.192 113.104 141.936C113.104 141.68 113.152 141.36 113.248 140.976C113.344 140.592 113.568 140.4 113.92 140.4H117.328ZM131.296 148.176C131.296 149.936 130.864 151.328 130 152.352C129.136 153.376 128.064 154.192 126.784 154.8C125.504 155.376 124.112 155.856 122.608 156.24C121.104 156.592 119.712 157.024 118.432 157.536C117.152 158.016 116.08 158.656 115.216 159.456C114.352 160.224 113.92 161.344 113.92 162.816C113.92 163.008 113.904 163.008 113.872 162.816C113.84 162.592 113.808 162.32 113.776 162C113.744 161.648 113.728 161.312 113.728 160.992C113.76 160.64 113.824 160.416 113.92 160.32C114.272 159.36 114.832 158.608 115.6 158.064C116.368 157.488 117.232 156.992 118.192 156.576C119.152 156.128 120.144 155.712 121.168 155.328C122.192 154.944 123.12 154.464 123.952 153.888C124.816 153.312 125.52 152.576 126.064 151.68C126.608 150.784 126.88 149.616 126.88 148.176C126.88 145.712 126.048 143.936 124.384 142.848C122.72 141.76 119.904 141.216 115.936 141.216C116.16 141.056 116.368 140.912 116.56 140.784C116.72 140.688 116.864 140.608 116.992 140.544C117.152 140.448 117.264 140.4 117.328 140.4C119.856 140.4 122 140.56 123.76 140.88C125.52 141.168 126.96 141.632 128.08 142.272C129.2 142.88 130.016 143.68 130.528 144.672C131.04 145.632 131.296 146.8 131.296 148.176ZM139.847 174V143.904V140.4H143.639V173.184V174H139.847ZM136.343 141.264L136.103 140.4H143.639C143.543 140.592 143.479 140.736 143.447 140.832C143.447 140.928 143.447 141.072 143.447 141.264C143.479 141.424 143.511 141.648 143.543 141.936C143.607 142.224 143.639 142.656 143.639 143.232C143.639 143.36 143.431 143.456 143.015 143.52C142.631 143.584 142.199 143.616 141.719 143.616C141.271 143.616 140.839 143.584 140.423 143.52C140.039 143.456 139.847 143.36 139.847 143.232C139.847 142.464 139.671 141.872 139.319 141.456C138.967 141.008 138.471 140.784 137.831 140.784C137.543 140.784 137.287 140.832 137.063 140.928C136.839 140.992 136.599 141.104 136.343 141.264ZM136.103 174L136.343 173.136C136.599 173.296 136.839 173.424 137.063 173.52C137.287 173.584 137.543 173.616 137.831 173.616C138.119 173.616 138.391 173.568 138.647 173.472C138.903 173.376 139.127 173.2 139.319 172.944C139.479 172.752 139.607 172.512 139.703 172.224C139.799 171.936 139.847 171.584 139.847 171.168C139.847 170.72 140.023 170.528 140.375 170.592C140.759 170.656 141.207 170.768 141.719 170.928C142.263 170.768 142.711 170.656 143.063 170.592C143.447 170.528 143.639 170.72 143.639 171.168C143.639 172.064 143.831 172.704 144.215 173.088C144.631 173.44 145.111 173.616 145.655 173.616C145.943 173.616 146.199 173.584 146.423 173.52C146.647 173.424 146.887 173.296 147.143 173.136L147.383 174H136.103ZM147.143 141.264C146.887 141.104 146.647 140.992 146.423 140.928C146.199 140.832 145.943 140.784 145.655 140.784C145.015 140.784 144.519 141.008 144.167 141.456C143.815 141.872 143.639 142.464 143.639 143.232C143.639 143.36 143.431 143.456 143.015 143.52C142.631 143.584 142.199 143.616 141.719 143.616C141.271 143.616 140.839 143.584 140.423 143.52C140.039 143.456 139.847 143.36 139.847 143.232C139.847 142.656 139.863 142.224 139.895 141.936C139.959 141.648 139.991 141.424 139.991 141.264C140.023 141.072 140.023 140.928 139.991 140.832C139.991 140.736 139.943 140.592 139.847 140.4H147.383L147.143 141.264ZM155.925 174V140.4H159.717V173.184V174H155.925ZM155.925 141.408V140.4H173.301V141.408H155.925ZM170.133 140.4H173.877L171.285 151.728L170.229 151.248C170.421 151.056 170.597 150.784 170.757 150.432C170.917 150.048 171.061 149.664 171.189 149.28C171.349 148.864 171.477 148.464 171.573 148.08C171.669 147.664 171.733 147.344 171.765 147.12C172.021 145.808 171.973 144.784 171.621 144.048C171.269 143.28 170.773 142.704 170.133 142.32C169.525 141.936 168.837 141.696 168.069 141.6C167.301 141.472 166.613 141.408 166.005 141.408L170.133 140.4ZM152.181 140.4H154.677H155.349H163.461L163.269 141.408H161.877C161.365 141.408 160.869 141.488 160.389 141.648C159.941 141.808 159.717 142.336 159.717 143.232C159.717 143.68 159.525 143.872 159.141 143.808C158.789 143.744 158.341 143.632 157.797 143.472C157.285 143.632 156.837 143.744 156.453 143.808C156.101 143.872 155.925 143.68 155.925 143.232C155.925 142.816 155.877 142.464 155.781 142.176C155.685 141.888 155.557 141.648 155.397 141.456C155.173 141.2 154.933 141.024 154.677 140.928C154.453 140.832 154.197 140.784 153.909 140.784C153.621 140.784 153.365 140.832 153.141 140.928C152.917 140.992 152.677 141.104 152.421 141.264L152.181 140.4ZM158.181 155.424H165.621V156.48L158.181 156.24V155.424ZM166.053 149.616L169.989 161.76H169.029C168.965 160.64 168.821 159.728 168.597 159.024C168.405 158.32 168.117 157.776 167.733 157.392C167.349 157.008 166.853 156.752 166.245 156.624C165.637 156.496 164.901 156.432 164.037 156.432V155.424C165.477 155.424 166.341 154.96 166.629 154.032C166.917 153.104 166.421 151.872 165.141 150.336L166.053 149.616ZM155.925 172.992H175.605V174H155.925V172.992ZM172.437 174L168.309 172.992C168.917 172.992 169.605 172.944 170.373 172.848C171.141 172.72 171.829 172.464 172.437 172.08C173.077 171.696 173.573 171.12 173.925 170.352C174.277 169.584 174.325 168.56 174.069 167.28C174.037 167.056 173.973 166.752 173.877 166.368C173.781 165.952 173.653 165.552 173.493 165.168C173.365 164.752 173.221 164.368 173.061 164.016C172.901 163.632 172.725 163.344 172.533 163.152L173.589 162.672L176.181 174H172.437ZM152.181 174L152.421 173.136C152.677 173.296 152.917 173.424 153.141 173.52C153.365 173.584 153.621 173.616 153.909 173.616C154.197 173.616 154.453 173.568 154.677 173.472C154.933 173.376 155.173 173.2 155.397 172.944C155.557 172.752 155.685 172.512 155.781 172.224C155.877 171.936 155.925 171.584 155.925 171.168C155.925 170.72 156.101 170.528 156.453 170.592C156.837 170.656 157.285 170.768 157.797 170.928C158.341 170.768 158.789 170.656 159.141 170.592C159.525 170.528 159.717 170.72 159.717 171.168C159.717 172.064 159.941 172.592 160.389 172.752C160.869 172.912 161.365 172.992 161.877 172.992H163.269L163.461 174H155.349H154.677H152.181Z" fill="white"/>
</g>
<defs>
<clipPath id="clip0_274_7195">
<rect width="120" height="120" fill="white" transform="translate(29.5)"/>
</clipPath>
<clipPath id="clip1_274_7195">
<rect width="179" height="53" fill="white" transform="translate(0 135)"/>
</clipPath>
</defs>
</svg>
