<svg width="750" height="750" viewBox="0 0 750 750" fill="none" xmlns="http://www.w3.org/2000/svg">
<g clip-path="url(#clip0_574_448)">
<path fill-rule="evenodd" clip-rule="evenodd" d="M243.443 647.445C242.516 648.008 241.318 647.823 240.605 647.005C236.32 643.252 231.485 640.222 227.082 636.611C224.728 634.655 222.219 632.893 219.579 631.344C217.648 630.231 216.198 628.492 214.35 627.223L213.835 626.89C211.574 625.508 209.739 623.514 207.559 621.964C205.719 620.655 204.396 618.715 202.552 617.313C199.894 615.242 197.343 613.039 194.908 610.711C193.166 609.409 191.677 607.799 190.513 605.962C190.252 605.437 189.772 605.325 189.426 605.001C187.891 603.655 186.44 602.216 185.08 600.693C182.294 597.389 179.192 594.355 176.46 591.014C174.479 588.588 172.362 586.294 170.313 583.933C168.343 581.66 166.417 579.348 164.537 576.998C160.114 571.512 156.017 565.772 152.266 559.807C149.387 555.101 146.777 550.236 144.447 545.236C142.394 541.26 140.608 537.152 139.102 532.939C138.01 529.538 136.417 526.274 135.649 522.836C134.926 519.592 134.021 516.368 133.222 513.166C131.37 505.751 129.819 498.285 128.57 490.767C127.83 486.342 127.18 481.873 126.372 477.475C125.424 472.315 125.07 467.087 124.139 461.927C123.596 458.905 123.434 455.705 123.078 452.604C122.733 449.601 122.81 446.568 122.277 443.589C121.849 440.598 121.573 437.589 121.451 434.571C121.244 431.769 120.372 428.824 121.296 425.951C119.847 423.94 120.842 421.61 120.608 419.453C120.373 417.297 120.283 415.102 119.924 413.005C119.554 410.843 119.237 408.63 118.932 406.482C118.313 402.121 117.28 397.844 116.654 393.51C116.271 390.865 115.121 388.527 114.522 385.988C113.347 381.131 111.693 376.403 109.582 371.873C108.699 370.071 108.095 368.145 107.791 366.161C107.597 364.65 106.189 364.007 105.774 362.63C105.103 360.402 104.058 358.289 103.214 356.114C103.065 355.375 102.529 354.774 101.812 354.542L102.389 352.632C102.082 351.853 101.767 352.777 101.346 352.53C100.915 351.67 100.23 350.851 100.352 349.678C100.47 348.575 99.2183 348.249 98.9515 347.222C98.3627 344.991 95.8986 343.472 96.415 340.771C94.7218 339.238 94.1476 337.016 92.9948 335.149C92.3875 334.277 92.1107 333.219 92.2084 332.165L92.2377 331.922C92.43 330.892 90.3987 330.773 91.1832 329.458C88.5397 326.63 88.4085 322.747 87.346 319.362C85.6428 313.931 83.5158 308.599 82.7239 302.841C82.3269 299.961 81.079 297.083 80.6196 294.156C79.5852 287.576 78.1002 281.057 77.8559 274.353C77.7563 271.583 77.0393 268.836 76.9658 266.063L76.8816 262.859C76.7624 258.052 76.6944 253.242 76.9341 248.435C76.818 247.32 77.0166 246.195 77.5073 245.187C78.2285 244.069 77.015 243.058 77.1201 241.827C77.2377 240.366 78.0517 239.106 77.908 237.508C77.8288 236.627 78.2936 235.317 78.2044 234.295C77.9156 230.974 79.5664 227.892 79.1994 224.58C79.2683 223.336 79.6138 222.124 80.2107 221.031C81.5329 217.266 81.0628 213.1 82.8962 209.519C83.7712 207.747 84.222 205.799 84.2154 203.827L84.2014 203.065C84.1946 202.501 84.22 201.957 84.5525 201.637C85.944 200.299 85.8992 198.409 86.4783 196.797C87.0982 195.069 87.1121 193.147 87.9693 191.427C89.0154 189.78 89.7606 187.96 90.1701 186.052C90.473 182.748 92.083 180.018 93.2866 177.113C93.8873 175.662 93.9272 173.817 95.7847 172.986C96.7296 172.563 94.9333 171.103 96.2886 170.479L96.4462 170.415C97.4209 170.071 97.525 169.255 97.4459 168.243C97.3735 167.317 99.0256 166.977 98.7435 165.994C98.4615 165.01 98.4949 163.656 99.0404 163.58C100.405 163.384 99.3408 161.747 100.471 161.671C100.588 161.632 100.68 161.541 100.72 161.425C101.69 158.088 104.368 155.682 105.508 152.378C106.276 150.42 107.406 148.625 108.84 147.087C110.069 145.575 111.172 143.964 112.135 142.27C113.884 139.444 116.407 137.271 118.109 134.452C118.571 133.689 120.64 134.337 119.86 132.466C121.172 132.248 121.023 130.9 121.66 130.187C122.314 129.679 123.043 129.274 123.82 128.988C124.594 127.268 125.762 125.754 127.23 124.569C129.914 121.82 132.77 119.243 135.779 116.854L138.263 114.893C141.582 112.281 144.978 109.751 149.008 108.257C150.044 107.873 149.8 106.755 150.673 106.327C155.735 103.804 160.522 100.775 166.06 99.1633C168.378 98.4872 170.535 96.9426 172.908 96.2323C177.67 94.805 182.201 92.7477 187.235 91.999C190.215 91.5574 193.235 90.6244 196.274 90.096C202.549 88.8215 208.955 88.3072 215.354 88.5643L219.284 88.8162C222.778 89.0408 226.271 89.2963 229.749 89.8116C231.396 90.0558 232.875 90.853 234.408 90.9297C235.901 91.0025 237.363 91.3838 238.702 92.0494C239.762 92.5585 240.875 91.7636 241.985 92.4923C242.806 93.2328 243.934 93.5208 245.002 93.2742L245.215 93.2177C245.843 92.9879 246.855 93.7963 247.689 94.1455C248.923 94.5454 250.113 95.0726 251.238 95.7186C252.093 96.3141 253.524 95.1378 253.913 96.7254C255.252 96.0177 256.251 97.0008 257.349 97.4282L257.499 97.4829C258.603 97.855 259.656 98.378 260.731 98.8345L264.316 100.356C265.317 100.958 266.408 101.397 267.547 101.656C269.667 101.78 271.345 103.082 273.387 103.478C275.643 104.091 277.814 104.981 279.851 106.128C281.69 107.005 283.8 106.577 285.632 107.651C287.355 108.824 289.302 109.626 291.351 110.006C293.453 110.214 295.208 111.563 297.085 111.677L297.438 111.684C299.839 111.634 301.451 113.348 303.547 113.579C308.117 114.08 312.371 116.016 316.845 116.605C322.488 117.347 328.004 118.785 333.715 119.256C337.426 119.562 341.163 119.751 344.878 120.059C348.6 120.222 352.33 120.068 356.026 119.6C360.654 119.139 365.238 118.306 369.733 117.108C374.272 115.954 378.582 114.124 383.083 112.903C385.136 112.346 387.039 111.425 389.125 110.926C391.37 110.39 393.409 108.976 395.656 108.431C401.278 107.067 406.437 104.192 412.237 103.455C418.924 100.538 426.235 100.028 433.176 98.0706C436.403 97.1571 439.861 97.0904 443.235 96.6732L443.956 96.578C449.929 95.7452 455.943 95.5183 461.959 95.2344C467.478 95.0188 473.005 95.1667 478.505 95.6771C482.465 96.0114 486.41 96.5379 490.373 96.7978C491.98 96.9043 493.329 98.29 495.041 97.6062C498.341 99.1622 502.182 98.6567 505.451 100.334C507.87 100.058 509.882 101.284 511.885 102.28C513.413 103.044 515.108 102.318 516.614 103.31C517.961 104.347 519.557 105.009 521.242 105.231C524.093 105.295 526.329 106.741 528.762 107.725C534.416 110.014 540.03 112.401 545.606 114.886C547.432 115.701 549.61 115.895 550.988 117.647C552.197 119.184 554.605 118.779 555.748 120.544C556.166 121.186 557.011 120.233 557.713 120.787C559.082 121.867 561.12 121.673 562.275 123.39C563.13 124.661 565.236 124.275 566.163 125.791L566.282 126.01C566.798 127.082 568.999 125.157 569.159 127.371C571.287 127.917 572.867 129.41 574.646 130.556C576.119 131.502 578.064 131.457 579.255 133.099C580.27 134.497 582.736 134.035 583.483 135.995C586.072 136.473 587.642 138.755 590.023 139.702C591.812 140.526 593.482 141.586 594.99 142.854C597.409 144.694 599.883 146.462 602.39 148.167C603.286 148.794 604.147 149.47 604.969 150.193C605.432 150.586 605.439 151.278 606.148 151.571C610.633 153.43 614.079 156.847 617.646 159.934C619.712 161.512 621.648 163.253 623.436 165.139L624.027 165.773C624.537 166.398 625.742 166.874 626.144 167.688C627.266 169.956 629.3 171.327 631.088 172.885L631.384 173.147C632.394 174.011 633.273 175.018 633.994 176.135C634.13 176.348 634.128 176.757 634.299 176.832C637.476 178.24 638.974 181.338 641.175 183.707C643.305 185.998 645.008 188.685 647.189 190.914C651.588 195.409 695.966 265.842 700.36 277.421L701.618 280.735C702.872 284.054 704.101 287.391 705.181 290.764L706.1 293.635C707.016 296.511 707.907 299.403 708.632 302.313L709.604 306.197C711.54 313.969 713.4 321.765 714.762 329.677C715.976 336.736 716.761 343.831 717.563 350.935C718.075 355.496 718.386 360.041 718.518 364.62C718.729 371.936 718.777 379.254 718.663 386.572C718.545 393.461 716.953 400.191 717.205 407.066C715.557 410.971 716.54 415.402 714.761 419.279C715.195 421.424 714.135 423.385 713.712 425.349C713.276 427.378 713.356 429.598 712.177 431.523C711.639 432.398 712.301 433.68 711.632 434.745C710.951 435.61 710.691 436.734 710.925 437.81C709.429 438.203 710.905 439.475 710.17 440.282C709.377 441.158 708.898 442.274 708.809 443.452C708.755 446.116 706.842 448.247 706.691 450.635C706.542 453.079 705.003 454.901 704.628 457.049L704.572 457.455C704.279 460.309 701.893 462.077 701.356 464.731C701.309 464.964 700.72 465.082 700.378 465.26C700.369 465.877 701.055 465.858 701.442 466.407C700.577 466.927 699.789 467.564 699.098 468.299C698.486 469.367 697.986 470.496 697.606 471.667L699.078 474.466C698.126 475.752 698.145 477.077 697.011 478.017C696.517 478.427 696.484 479.943 696.254 480.953C695.952 482.28 694.094 482.775 694.322 483.904C694.427 485.176 694.097 486.446 693.385 487.506C689.016 497.92 684.603 508.316 680.146 518.693C679.674 519.806 679.649 521.307 678.104 521.735C679.378 523.621 676.832 523.752 676.569 525.023C676.16 526.181 675.501 527.236 674.638 528.111C673.336 529.803 672.839 532.1 671.914 534.103C671.506 535.562 670.696 536.877 669.575 537.896C668.452 538.713 668.287 540.452 667.329 541.708C666.025 543.2 664.925 544.86 664.06 546.642C663.661 547.963 662.899 549.144 661.861 550.053C660.958 550.755 661.274 552.596 659.693 552.967C658.854 555.321 657.064 557.014 655.619 558.951L655.352 559.317C651.758 564.323 647.867 569.109 643.699 573.649C640.227 577.476 636.82 581.362 633.311 585.155C632.172 586.377 630.976 587.586 629.76 588.723C625.487 592.941 620.983 596.92 616.271 600.642C611.999 603.827 607.866 607.213 603.44 610.22C601.087 611.82 599.021 613.929 596.705 615.661C591.246 619.749 585.687 623.683 579.927 627.331C575.004 630.74 569.763 633.664 564.276 636.062C562.797 636.639 561.489 637.638 560.041 638.312C558.324 638.899 556.651 639.608 555.035 640.432C553.099 641.703 550.887 642.339 548.955 643.492C547.455 644.387 545.486 643.379 544.198 645.236C543.26 646.588 540.813 645.601 539.654 647.169C537.295 646.833 535.798 648.916 533.536 649.288L533.236 649.327C530.883 649.544 528.648 651.021 526.361 651.945C524.127 653.004 521.824 653.912 519.468 654.663C515.097 655.775 511.112 657.942 506.822 659.13C502.733 660.261 498.873 662.292 494.582 662.568C493.568 662.632 493.598 663.523 492.864 663.771C492.1 664.032 491.382 663.644 490.675 663.975C487.773 665.217 484.776 666.224 481.713 666.987C477.406 668.213 473.053 669.321 468.768 670.578C462.11 672.422 455.359 673.913 448.544 675.047C444.117 675.854 439.661 676.505 435.218 677.203L429.024 678.18C425.926 678.667 422.827 679.141 419.724 679.56C415.776 680.09 411.798 680.354 407.844 680.839C404.714 681.217 401.592 681.728 398.476 682.237C394.168 682.942 389.827 683.495 385.529 684.171C379.435 685.095 373.295 685.679 367.136 685.918C364.019 686.13 360.892 686.144 357.774 685.959C356.036 685.808 354.292 685.767 352.55 685.834L351.679 685.877C347.626 686.15 343.752 685.328 339.8 684.991C338.585 684.882 337.464 684.515 336.328 684.294L335.839 684.209C334.859 684.062 333.918 683.845 332.966 683.639L332.25 683.488C328.871 682.801 325.61 681.524 322.142 681.28L321.489 681.247C321.241 681.246 320.996 681.187 320.775 681.075C317.387 679.158 313.402 679.014 309.89 677.402L309.275 677.102C306.017 675.409 302.105 675.43 298.894 673.49C296.437 673.891 294.612 672.04 292.426 671.644C286.777 670.62 281.831 667.82 276.628 665.683L275.948 665.408C270.519 663.259 265.189 660.855 259.803 658.596C256.116 656.785 252.582 654.676 249.238 652.29C248.538 651.625 247.755 651.053 246.909 650.589C245.361 650.078 244.102 648.936 243.443 647.445Z" fill="#81846B"/>
<path fill-rule="evenodd" clip-rule="evenodd" d="M322.103 343.184C318.3 358.806 308.823 370.987 294.123 380.843C297.879 369.95 302.733 357.205 306.489 346.312C302.87 353.743 296.346 361.032 289.085 364.993C293.66 348.599 303.253 335.564 303.253 314.784C303.253 307.312 295.151 301.541 295.468 298.502C295.788 295.428 297.426 292.678 298.7 289.861C305.825 274.099 324.665 349.648 322.103 343.184Z" fill="#FDFCFB"/>
<path fill-rule="evenodd" clip-rule="evenodd" d="M612.556 206.676C612.381 206.658 612.207 206.637 612.033 206.613C612.24 206.369 612.411 206.386 612.556 206.676ZM497.571 441.354C496.848 441.974 496.127 442.591 495.41 443.206C494.815 443.206 492.449 439.191 489.158 433.609C486.127 428.466 482.312 421.994 478.376 416.106C474.938 410.961 471.177 406.324 468.48 402.999C466.028 399.975 464.455 398.036 464.803 397.785C472.395 392.321 480.31 387.246 488.219 382.174C500.996 373.982 513.758 365.799 525.121 356C555.47 329.829 576.59 296.956 589.234 268.748C599.9 244.953 605.654 226.148 608.863 215.658C610.441 210.502 611.404 207.355 612.033 206.613C605.398 205.702 599.503 200.593 597.713 194.131C595.877 187.499 598.48 179.867 603.988 175.74C610.145 171.125 612.148 162.827 612.765 155.159C612.892 153.578 612.981 151.983 613.069 150.386C613.412 144.234 613.757 138.047 616.295 132.491C617.287 130.318 618.994 128.055 621.383 128.001C625.196 127.915 626.564 132.956 626.716 136.766L627.401 153.846C629.009 150.984 633.733 151.695 635.664 154.35C637.595 157.005 637.549 160.563 637.424 163.843C638.323 156.562 641.233 149.54 645.749 143.757C647.166 141.943 649.298 140.078 651.493 140.773C653.814 141.508 654.385 144.484 654.465 146.916C655.161 168.019 648.843 189.295 636.742 206.6C634.407 209.939 633.143 213.807 632.308 217.823C632.617 220.637 632.755 223.672 632.413 226.204C628.513 255.088 622.029 283.623 613.063 311.356C607.729 327.856 601.362 344.355 590.659 358C585.015 365.197 578.278 371.451 571.542 377.637C550.898 396.598 525.817 418.061 503.618 437.058C500.611 439.632 497.657 442.16 494.774 444.631C494.621 444.631 495.63 443.49 497.571 441.354Z" fill="#FDFCFB"/>
<path d="M273.289 536.681C275.035 541.651 279.427 548 279.427 548C279.427 548 248.862 591.184 237.218 615.855C226.396 638.784 215.47 691.875 181.943 660C197.91 614.827 213.985 569.413 237.218 527.503C247.784 508.442 257.015 501.677 257.015 501.677C257.015 501.677 267.18 519.298 273.289 536.681Z" fill="#FDFCFB"/>
<path fill-rule="evenodd" clip-rule="evenodd" d="M306.781 280.473C304.517 282.411 306.464 286.2 308.944 287.853C311.424 289.506 314.646 290.759 315.497 293.613C311.716 293.844 308.303 290.648 304.54 291.071C300.378 291.538 297.923 296.497 298.722 300.602C299.522 304.707 302.593 307.97 305.765 310.7C310.709 314.955 316.238 318.531 322.149 321.294C324.313 322.305 326.714 325.363 324.577 326.432C322.59 325.296 320.603 324.16 318.615 323.024C321.934 333.338 325.359 343.862 331.84 352.55C338.322 361.238 348.531 367.912 359.361 367.287C361.449 367.167 364.469 367.616 364.273 369.695C362.868 370.02 361.464 370.346 360.06 370.672C364.398 374.36 370.587 375.262 376.205 374.312C381.822 373.362 387.012 370.772 392.046 368.107C402.143 362.761 412.222 356.8 419.559 348.05C424.594 342.045 428.148 334.939 431.073 327.673C440.331 304.677 443.656 279.328 440.641 254.727C440.49 253.492 439.741 251.855 438.555 252.239C409.82 261.543 377.428 258.982 350.517 245.278C344.695 242.313 338.908 238.64 335.548 233.041C348.004 240.711 361.583 246.557 375.719 250.335C389.576 254.039 404.137 255.753 418.321 253.62C432.506 251.488 446.316 245.302 456.189 234.91C469.646 220.747 474.581 199.986 472.658 180.556C470.735 161.126 462.628 142.807 452.852 125.898C450.046 137.441 440.085 146.258 428.962 150.467C417.84 154.676 405.632 154.929 393.752 154.348C381.872 153.766 369.953 152.405 358.117 153.58C350.788 154.308 343.072 156.283 338.144 161.749C330.641 170.069 332.295 182.874 334.41 193.87C331.113 192.13 329.295 187.991 330.246 184.391C317.081 186.816 307.5 199.06 304.134 212C300.768 224.94 302.401 238.587 304.056 251.854C304.758 257.485 305.46 263.117 306.163 268.748C306.592 272.186 307.132 275.872 309.504 278.4C316.97 286.359 322.196 296.392 324.435 307.066C332.48 293.328 338.077 278.165 340.885 262.499C341.518 258.971 342.063 255.282 344.095 252.328C346.127 249.374 350.185 247.444 353.394 249.047C340.602 268.552 340.029 294.993 324.217 312.148C321.624 305.632 319.031 299.117 316.437 292.602C314.459 287.63 311.888 282.086 306.781 280.473Z" fill="#FDFCFB"/>
<path fill-rule="evenodd" clip-rule="evenodd" d="M495.181 474.115C485.032 481.364 474.574 488.181 463.845 494.542C461.49 510.952 456.012 542.491 451.79 569.074C449.869 581.163 449.869 591.449 448.227 599.904C444.887 617.097 430.865 626.238 414.006 625.405C315.344 620.533 313.873 672.841 310.089 639.052C306.305 605.263 304.594 571.243 304.968 537.245C297.35 542.858 289.733 548.471 282.115 554.083C279.664 550.407 258.253 515.86 259.341 503.271C260.527 489.545 275.752 469.615 293.136 453.925C303.966 444.149 316.624 437.03 324.222 430.989C327.293 428.548 343.29 414.081 347 399.954C350.883 385.169 342.565 370.711 349.832 368.775C355.568 367.248 359.233 371.779 365.675 374.664C370.628 376.882 378.801 372.94 380.716 376.075C382.631 379.21 380.091 391.598 384.943 396.359C393.936 405.183 412.499 406.661 414.006 406.501C434.097 404.369 455.122 395.226 461.186 397.5C482.028 405.318 497.859 444.575 501.244 458.045C502.016 461.118 502.653 464.437 501.503 467.39C500.371 470.299 497.723 472.299 495.181 474.115Z" fill="#FDFCFB"/>
<path fill-rule="evenodd" clip-rule="evenodd" d="M470.852 404.329C470.227 403.524 469.622 402.814 469.051 402.189C466.292 399.166 464.335 398.122 464.803 397.785C484.66 383.494 506.724 371.865 525.121 356C555.47 329.83 576.59 296.956 589.234 268.749C598.91 247.162 585.151 296.685 553.077 344.333C526.699 383.521 471.93 405.72 470.852 404.329Z" fill="#F2ECE1"/>
<path fill-rule="evenodd" clip-rule="evenodd" d="M495.181 474.115C497.723 472.299 500.371 470.298 501.503 467.389C502.653 464.436 502.016 461.118 501.244 458.045C495.439 434.946 482.572 413.668 464.803 397.785C538.694 361.149 594.621 290.211 612.943 209.883C596.967 255.579 575.528 300.133 543.272 336.259C511.017 372.385 466.963 399.589 418.767 404.704C408.045 405.842 396.087 405.503 388.037 398.339C379.987 391.175 380.236 375.128 390.482 371.773C409.754 365.464 425.156 349.852 433.859 331.558C442.561 313.264 445.046 292.497 443.915 272.275C443.401 263.067 442.888 252.123 450.255 246.562C468.893 232.492 477.812 208.008 476.752 184.7C475.693 161.391 465.725 139.226 452.486 120C448.048 133.634 436.665 144.809 422.94 149.01C411.433 152.532 399.365 151.287 387.251 150.037C381.345 149.427 375.428 148.817 369.56 148.757C351.658 148.575 330.402 157.378 328.41 175.146C327.758 180.963 322.494 184.322 317.295 187.64C315.605 188.719 313.921 189.794 312.405 190.947C298.629 201.427 297.399 221.563 299.546 238.724C299.855 241.198 300.206 243.695 300.558 246.203C302.65 261.087 304.798 276.372 298.7 289.861C298.43 290.459 298.143 291.054 297.856 291.65C296.791 293.86 295.72 296.081 295.468 298.502C294.743 305.453 300.298 310.109 306.013 314.899C309.047 317.442 312.126 320.023 314.335 323.005C319.793 330.372 319.668 340.723 316.345 349.266C313.022 357.809 306.959 364.957 301.003 371.929C307.361 359.401 310.631 345.324 310.445 331.279L293.499 359.699C299.438 345.477 302.794 330.184 303.353 314.785L289.628 363.967C296.89 360.006 302.87 353.744 306.489 346.313L295.222 378.99C307.994 370.675 317.691 357.759 322.104 343.185C324.666 349.648 329.017 355.394 334.548 359.616C353.732 374.259 352.261 408.322 331.885 421.261C291.407 446.966 260.451 485.593 237.218 527.503C213.985 569.414 197.91 614.828 181.943 660C204.948 606.859 229.922 554.568 256.797 503.27C263.061 521.178 271.589 538.294 282.115 554.083L304.968 537.245C304.594 571.243 306.305 605.263 310.089 639.052C314.584 639.528 315.649 632.945 314.941 628.486C308.156 585.79 307.137 542.183 311.921 499.217C307.405 502.096 307.318 508.097 307.237 513.714C307.222 514.777 307.207 515.827 307.162 516.839C306.543 530.763 296.144 543.703 282.667 547.322C275.716 538.532 268.659 529.557 264.704 519.076C260.748 508.594 260.318 496.172 266.309 486.703C282.402 461.272 305.573 440.359 332.532 426.935C344.525 438.576 358.746 447.92 374.198 454.31C379.11 456.341 384.766 458.063 389.605 455.866C392.949 454.347 395.242 451.222 397.235 448.14C404.787 436.466 410.29 423.474 413.422 409.932C427.902 407.878 442.239 404.815 456.294 400.773C461.982 399.138 467.444 403.751 471.288 408.245C483.211 422.184 492.033 438.754 496.936 456.421C497.935 460.022 498.751 463.98 497.238 467.398C496.021 470.146 493.5 472.061 491.046 473.798C481.861 480.297 472.146 486.049 462.03 490.98C463.096 480.012 460.292 468.707 454.224 459.503C463.788 485.155 458.731 512.365 453.622 539.854C449.719 560.853 445.786 582.015 448.317 602.772L463.845 494.541C474.574 488.181 485.032 481.364 495.181 474.115ZM306.781 280.473C311.889 282.086 314.459 287.631 316.437 292.602L324.217 312.148C333.037 302.579 337.115 290.12 341.218 277.588C344.47 267.654 347.738 257.673 353.394 249.048C350.185 247.444 346.127 249.374 344.095 252.329C342.199 255.085 341.598 258.481 341.012 261.789C340.97 262.026 340.928 262.263 340.885 262.5C338.077 278.165 332.48 293.328 324.435 307.067C322.196 296.393 316.97 286.36 309.504 278.401C307.132 275.872 306.592 272.187 306.163 268.748L304.056 251.855C302.401 238.588 300.768 224.941 304.134 212.001C307.5 199.061 317.081 186.816 330.246 184.391C329.295 187.992 331.113 192.131 334.41 193.87C332.295 182.874 330.641 170.07 338.144 161.749C343.072 156.283 350.788 154.308 358.117 153.581C367.172 152.682 376.275 153.267 385.372 153.852C388.166 154.032 390.96 154.211 393.752 154.348C405.632 154.929 417.84 154.677 428.963 150.467C440.085 146.258 450.046 137.442 452.852 125.899C462.628 142.807 470.736 161.126 472.658 180.556C474.581 199.987 469.646 220.747 456.19 234.911C446.316 245.303 432.506 251.488 418.321 253.621C404.137 255.753 389.576 254.04 375.719 250.336C361.583 246.558 348.004 240.711 335.548 233.042C338.908 238.64 344.695 242.313 350.517 245.278C377.428 258.983 409.82 261.544 438.555 252.24C439.741 251.856 440.49 253.492 440.641 254.728C443.656 279.329 440.331 304.678 431.073 327.673C428.148 334.94 424.594 342.046 419.559 348.05C412.222 356.8 402.143 362.761 392.046 368.107C387.012 370.773 381.822 373.363 376.205 374.313C370.587 375.262 364.398 374.36 360.06 370.672L364.273 369.695C364.469 367.616 361.449 367.167 359.361 367.288C348.531 367.913 338.322 361.238 331.84 352.55C325.359 343.863 321.934 333.339 318.615 323.025L324.578 326.433C326.714 325.363 324.313 322.306 322.149 321.294C316.238 318.531 310.709 314.956 305.765 310.701C302.593 307.971 299.522 304.707 298.722 300.602C297.923 296.497 300.378 291.538 304.54 291.071C306.469 290.855 308.306 291.589 310.148 292.325C311.899 293.025 313.654 293.726 315.497 293.614C314.832 291.383 312.718 290.13 310.643 288.9C310.063 288.557 309.486 288.215 308.944 287.853C306.464 286.2 304.517 282.412 306.781 280.473ZM358.105 373.348C363.534 377.43 370.804 378.964 377.422 377.424C374.33 385.292 378.223 394.595 384.729 400.001C391.234 405.407 399.786 407.638 408.143 408.971C407.898 423.794 402.553 438.486 393.214 450.009C390.469 453.397 385.164 452.661 380.999 451.364C364.508 446.232 349.251 437.192 336.837 425.197C337.908 423.641 339.619 422.765 341.337 421.886C342.916 421.077 344.501 420.266 345.6 418.919C346.595 417.699 347.089 416.156 347.525 414.644C351.809 399.803 352.605 383.97 349.832 368.775C352.441 368.816 354.575 370.533 356.659 372.21C357.142 372.599 357.622 372.985 358.105 373.348ZM610.706 179.437C606.433 181.843 601.613 185.115 601.506 190.016C601.414 194.202 604.642 197.008 607.971 199.902C610.321 201.944 612.721 204.03 614.039 206.676C607.192 205.969 601.033 200.763 599.196 194.131C597.359 187.499 599.963 179.867 605.471 175.74C611.628 171.125 613.631 162.827 614.247 155.159C614.375 153.579 614.463 151.985 614.552 150.388L614.552 150.386C614.895 144.234 615.24 138.047 617.778 132.491C618.77 130.318 620.477 128.055 622.866 128.001C626.679 127.915 628.047 132.956 628.199 136.766L628.884 153.846C630.492 150.984 635.216 151.695 637.147 154.35C639.078 157.005 639.032 160.563 638.907 163.843C639.806 156.562 642.716 149.54 647.232 143.757C648.649 141.943 650.78 140.078 652.976 140.773C655.296 141.508 655.868 144.484 655.948 146.916C656.644 168.019 650.326 189.295 638.225 206.6C634.369 212.114 633.432 219.07 632.531 225.751L632.47 226.204C628.57 255.088 622.086 283.623 613.12 311.356C607.786 327.856 601.419 344.355 590.717 358C585.073 365.197 578.336 371.451 571.599 377.637C548.159 399.166 524.348 420.291 500.18 441C498.125 441 499.069 437.668 500.623 436.324C505.868 431.787 511.148 427.283 516.43 422.778C538.616 403.853 560.821 384.914 580.491 363.424C586.224 357.16 591.761 350.65 596.098 343.351C600.273 336.325 603.274 328.673 606.064 320.991C618.329 287.224 626.881 252.11 631.516 216.485C631.848 213.928 632.122 211.158 630.832 208.925C646.918 191.6 654.916 167.062 652.129 143.589C645.864 146.472 644.5 153.47 643.095 160.674C641.918 166.712 640.712 172.895 636.57 176.925L635.951 159.871C635.892 158.234 635.639 156.281 634.168 155.56C631.74 154.37 629.642 157.795 629.396 160.487C629.15 163.179 628.678 166.719 626.012 167.164C626.886 154.755 626.148 142.233 623.822 130.013C617.855 135.573 617.714 144.648 617.585 152.918C617.577 153.428 617.569 153.936 617.56 154.439C617.401 163.096 615.152 173.428 607.031 176.436C608.989 177.959 611.195 176.427 613.448 174.863C614.422 174.187 615.404 173.505 616.379 173.061C621.787 170.595 627.983 177.411 626.47 183.158C624.958 188.905 618.509 192.175 612.565 192.15C613.812 190.073 616.247 188.816 618.587 187.607C621.672 186.013 624.593 184.504 624.407 181.314C624.246 178.54 621.243 176.635 618.464 176.653C615.685 176.672 613.127 178.073 610.706 179.437ZM353.945 279.139C354.017 278.119 355.496 277.968 356.563 278.011C359.847 278.142 363.061 277.178 366.176 276.173L366.617 276.03C369.588 275.069 372.603 274.094 375.733 274.006C379.018 273.913 382.524 274.968 384.492 277.489C384.752 277.821 384.991 278.214 384.934 278.625C384.837 279.328 383.907 279.666 383.19 279.488C382.632 279.35 382.166 279.011 381.702 278.673C381.57 278.577 381.439 278.481 381.305 278.39C377.666 275.907 372.636 276.978 368.451 278.476L368.264 278.543L368.144 278.587C367.93 278.663 367.717 278.741 367.502 278.819L367.496 278.821C363.587 280.237 359.449 281.736 355.494 280.599C354.742 280.383 353.892 279.888 353.945 279.139ZM391.139 327.945C393.636 328.063 396.344 328.123 398.381 326.667C401.223 324.634 401.577 320.554 401.261 317.061C401.074 314.993 400.747 312.939 400.42 310.885C399.971 308.063 399.522 305.241 399.437 302.387C399.29 297.457 400.413 292.185 403.927 288.743C404.12 287.547 402.544 286.69 401.412 287.107C400.28 287.525 399.606 288.679 399.113 289.786C395.744 297.342 396.576 305.897 397.388 314.241V314.241L397.388 314.242L397.388 314.242L397.388 314.243L397.388 314.244L397.388 314.245L397.388 314.246C397.511 315.513 397.634 316.775 397.742 318.028C397.916 320.055 397.896 322.444 396.287 323.678C395.09 324.598 393.521 324.497 391.966 324.397L391.965 324.397C391.455 324.364 390.946 324.332 390.452 324.335C389.417 324.342 388.159 324.732 387.968 325.755C387.697 327.201 389.677 327.875 391.139 327.945ZM384.803 288.015C385.978 287.848 386.977 289.129 386.942 290.338C386.907 291.546 386.144 292.605 385.303 293.458C382.258 296.548 377.847 297.975 373.549 298C369.251 298.024 365.036 296.76 361.065 295.083C360.207 294.721 359.331 294.32 358.695 293.63C358.06 292.939 357.719 291.881 358.107 291.021C358.496 290.16 359.766 289.776 360.411 290.458C363.339 293.556 367.888 294.356 372.108 294.428C375.925 294.494 380.28 293.796 382.385 290.551C382.503 290.369 382.618 290.177 382.734 289.982L382.734 289.982L382.734 289.982C383.269 289.088 383.828 288.153 384.803 288.015ZM435.712 292.735C430.955 296.863 423.595 298.15 417.561 295.91C415.894 295.291 414.262 294.365 413.371 292.911C413.023 292.343 412.8 291.648 413.049 291.036C413.454 290.047 414.905 289.786 415.962 290.169C416.76 290.458 417.407 290.993 418.052 291.528L418.052 291.528L418.052 291.528C418.263 291.702 418.473 291.876 418.688 292.042C422.485 294.959 428.459 295.043 432.349 292.233C432.431 292.174 432.513 292.113 432.596 292.052L432.597 292.051C433.219 291.592 433.868 291.112 434.647 291.1C435.53 291.086 436.359 292.174 435.712 292.735ZM276.433 548C274.625 549.072 273.339 550.815 272.117 552.521C259.584 570.022 248.519 588.567 239.075 607.899C229.534 627.43 221.664 647.72 213.807 667.982C213.141 669.7 212.487 671.689 213.372 673.305C214.597 675.542 218.117 675.435 220.03 673.744C221.943 672.054 222.666 669.433 223.325 666.972C234.306 625.935 252.548 586.937 276.054 551.511C276.771 550.429 277.435 548.826 276.433 548ZM379.759 352.799C379.85 354.825 377.444 355.983 375.457 356C373.298 356.017 370.983 355.224 369.811 353.372C368.638 351.52 369.198 348.552 371.226 347.795L357.221 342.398C356.043 341.944 354.797 341.482 353.555 341.693C353.268 341.742 352.985 341.826 352.702 341.911C352.227 342.053 351.754 342.194 351.265 342.163C350.484 342.115 349.673 341.298 350.03 340.587C350.163 340.321 350.423 340.15 350.671 339.99L355.807 336.699C356.39 336.325 357.031 335.937 357.715 336.009C358.399 336.08 359.029 336.87 358.689 337.48C357.68 339.29 360.194 340.973 362.167 341.496C368.797 343.254 375.481 345.02 382.32 345.404C389.159 345.788 396.25 344.699 402.117 341.089C403.92 339.98 406.155 338.614 407.943 339.748C407.254 341.761 405.231 342.877 403.253 343.968C401.039 345.189 398.882 346.378 398.72 348.76C398.552 351.218 396.399 353.368 393.989 353.483C391.579 353.599 389.237 351.663 388.846 349.232C388.784 348.847 388.33 348.697 387.954 348.63C386.221 348.324 384.391 348.164 382.741 348.786C381.09 349.408 379.679 351.004 379.759 352.799ZM377.224 348.438C376.453 347.47 374.837 347.615 373.974 348.499C373.112 349.383 372.893 350.745 373.024 351.986C374.046 352.571 375.414 352.445 376.316 351.683C377.218 350.921 377.596 349.572 377.224 348.438ZM395.566 349.168C395.691 348.677 396.01 348.241 396.437 347.98C395.908 347.04 394.514 347.408 393.565 347.896C393.062 348.154 392.495 348.5 392.427 349.071C392.343 349.773 393.142 350.312 393.829 350.228C394.516 350.143 395.08 349.654 395.599 349.185L395.566 349.168ZM424.518 282.09C425.172 282.258 425.827 282.427 426.492 282.55C429.945 283.189 433.672 282.549 436.611 280.811C437.393 280.349 436.667 279.141 435.734 279.052C435.012 278.982 434.341 279.277 433.676 279.57C433.481 279.655 433.287 279.741 433.092 279.817C430.585 280.794 427.786 280.231 425 279.672C422.094 279.088 419.201 278.506 416.667 279.679C415.752 280.103 414.898 280.87 414.945 281.788C414.991 282.706 416.441 283.416 417.114 282.72C418.195 281.602 420.035 281.318 421.676 281.501C422.643 281.608 423.58 281.849 424.517 282.09L424.518 282.09Z" fill="#00160A"/>
<path fill-rule="evenodd" clip-rule="evenodd" d="M377.422 377.424C375.48 377.876 373.481 378.063 371.489 377.999C366.695 377.844 361.245 394.462 371.489 413.418C381.555 432.044 400.517 439.495 402.97 433.6C406.211 425.806 408.003 417.41 408.143 408.971C399.786 407.638 391.234 405.406 384.729 400C378.223 394.594 374.33 385.291 377.422 377.424Z" fill="#F2ECE1"/>
<circle cx="341" cy="329" r="6" fill="#F2D061"/>
<circle cx="417" cy="331" r="6" fill="#F2D061"/>
<path fill-rule="evenodd" clip-rule="evenodd" d="M352.081 546.308C354.235 543.803 358.611 545.019 361.924 545.898C370.75 548.24 381.468 545.615 388.038 539.502C394.65 533.351 406.792 540.692 415.459 536.903C420.683 534.619 424.913 528.372 430.178 529.982C436.638 531.957 444.628 530.385 449.905 526.177L449.907 524.927L449.926 522.168C444.675 526.806 436.259 528.612 429.511 526.549C424.245 524.939 420.015 531.187 414.791 533.471C406.125 537.259 393.983 529.919 387.371 536.07C380.932 542.06 370.51 544.701 361.789 542.6L360.049 542.148C356.945 541.351 353.314 540.665 351.414 542.876C345.418 549.85 333.549 552.737 324.813 549.346L325.894 552.934L326.411 553.113C335.042 555.962 346.296 553.038 352.081 546.308ZM343.9 507.072C346.176 504.716 350.462 505.985 353.71 506.907C362.361 509.36 373.159 507.089 380.018 501.374C386.921 495.622 398.604 502.952 407.423 499.516C412.74 497.445 417.279 491.545 422.429 493.213C428.748 495.259 452.089 483.023 452.089 483.023C446.196 482.859 428.94 491.966 422.412 490.045L421.948 489.902C416.798 488.234 412.259 494.134 406.943 496.205C398.123 499.641 386.441 492.311 379.538 498.063C372.816 503.664 362.311 505.957 353.752 503.737L352.045 503.262C349.001 502.426 345.428 501.682 343.42 503.761C337.086 510.317 319.795 507.464 316.624 509.355C316.624 509.355 337.789 513.398 343.9 507.072Z" fill="#F2D061"/>
<path fill-rule="evenodd" clip-rule="evenodd" d="M350.279 620.674C352.433 618.169 356.809 619.385 360.123 620.264C368.948 622.606 379.666 619.981 386.237 613.868C392.849 607.717 404.991 615.058 413.657 611.269C418.881 608.986 423.111 602.738 428.376 604.348C434.837 606.323 442.826 604.751 448.103 600.544L448.105 599.293L448.124 596.534C442.873 601.172 434.457 602.978 427.709 600.915C422.444 599.305 418.214 605.553 412.99 607.837C404.323 611.625 392.181 604.285 385.569 610.436C379.13 616.426 368.708 619.067 359.987 616.966L358.247 616.514C355.143 615.718 351.513 615.031 349.612 617.242C343.616 624.216 331.747 627.103 323.012 623.713L324.092 627.3L324.61 627.479C333.24 630.328 344.494 627.404 350.279 620.674ZM342.099 581.438C344.374 579.082 348.661 580.352 351.909 581.273C360.56 583.726 371.357 581.456 378.217 575.74C385.119 569.988 396.802 577.318 405.622 573.882C410.938 571.811 415.477 565.911 420.627 567.579C426.946 569.626 450.287 557.389 450.287 557.389C444.395 557.226 427.139 566.333 420.61 564.411L420.147 564.268C414.997 562.6 410.457 568.5 405.141 570.571C396.322 574.007 384.639 566.677 377.736 572.429C371.014 578.03 360.51 580.323 351.95 578.103L350.244 577.629C347.199 576.792 343.626 576.048 341.618 578.127C335.284 584.683 317.993 581.831 314.822 583.721C314.822 583.721 335.987 587.764 342.099 581.438Z" fill="#F2D061"/>
<path fill-rule="evenodd" clip-rule="evenodd" d="M332.145 197.323C337.928 200.884 359.126 161.749 390.693 161.749C457.597 161.749 462.628 142.807 452.852 125.898C450.046 137.441 440.085 146.258 428.962 150.467C417.84 154.676 405.632 154.929 393.751 154.348C381.871 153.766 369.953 152.405 358.117 153.58C350.788 154.308 343.072 156.283 338.144 161.749C330.641 170.069 332.294 182.874 334.409 193.87C331.112 192.13 329.294 187.991 330.246 184.391C317.08 186.816 307.499 199.06 304.133 212C300.767 224.94 302.401 238.587 304.055 251.854C304.758 257.485 305.46 263.117 306.162 268.748C306.162 268.748 309.159 223.384 313.224 212C318.758 196.503 333.436 199.475 332.145 197.323Z" fill="#F2ECE1"/>
</g>
<defs>
<clipPath id="clip0_574_448">
<rect width="750" height="750" fill="white"/>
</clipPath>
</defs>
</svg>
